<svg width="23" height="14" viewBox="0 0 23 14" fill="none" xmlns="http://www.w3.org/2000/svg">
<path d="M15.0847 6.00006C16.7447 6.00006 18.0747 4.66006 18.0747 3.00006C18.0747 1.34006 16.7447 6.10352e-05 15.0847 6.10352e-05C13.4247 6.10352e-05 12.0847 1.34006 12.0847 3.00006C12.0847 4.66006 13.4247 6.00006 15.0847 6.00006ZM7.08466 6.00006C8.74466 6.00006 10.0747 4.66006 10.0747 3.00006C10.0747 1.34006 8.74466 6.10352e-05 7.08466 6.10352e-05C5.42466 6.10352e-05 4.08466 1.34006 4.08466 3.00006C4.08466 4.66006 5.42466 6.00006 7.08466 6.00006ZM7.08466 8.00006C4.75466 8.00006 0.0846558 9.17006 0.0846558 11.5001V14.0001H14.0847V11.5001C14.0847 9.17006 9.41466 8.00006 7.08466 8.00006ZM15.0847 8.00006C14.7947 8.00006 14.4647 8.02006 14.1147 8.05006C15.2747 8.89006 16.0847 10.0201 16.0847 11.5001V14.0001H22.0847V11.5001C22.0847 9.17006 17.4147 8.00006 15.0847 8.00006Z" fill="white"/>
</svg>
