<svg width="1054" height="156" viewBox="0 0 1054 156" fill="none" xmlns="http://www.w3.org/2000/svg">
<g filter="url(#filter0_d_49_47)">
<rect x="3" y="1" width="1050" height="152" fill="#C4C4C4" fill-opacity="0.1" shape-rendering="crispEdges"/>
</g>
<path d="M75.745 36.05H77.46L76.76 44.905H75.36C74.87 42.7583 73.9133 41.0667 72.49 39.83C71.09 38.5933 69.3867 37.975 67.38 37.975C66.0033 37.975 64.7783 38.255 63.705 38.815C62.6317 39.3517 61.7217 40.1333 60.975 41.16C60.2517 42.1633 59.6917 43.4 59.295 44.87C58.9217 46.3167 58.735 47.95 58.735 49.77C58.735 53.3867 59.47 56.175 60.94 58.135C62.4333 60.0717 64.6267 61.04 67.52 61.04C69.8533 61.04 71.7783 60.41 73.295 59.15C74.835 57.89 75.9317 56.0117 76.585 53.515H78.125V63H76.48L75.99 60.235C73.4233 62.3117 70.3083 63.35 66.645 63.35C64.5217 63.35 62.5967 63.035 60.87 62.405C59.1433 61.775 57.6733 60.8883 56.46 59.745C55.2467 58.5783 54.3017 57.1667 53.625 55.51C52.9717 53.8533 52.645 52.01 52.645 49.98C52.645 47.8567 52.995 45.92 53.695 44.17C54.395 42.42 55.375 40.915 56.635 39.655C57.9183 38.395 59.435 37.4267 61.185 36.75C62.9583 36.05 64.9183 35.7 67.065 35.7C68.4883 35.7 69.8183 35.8983 71.055 36.295C72.2917 36.6917 73.6333 37.3333 75.08 38.22L75.745 36.05ZM88.3535 57.26C88.3535 58.2167 88.3768 58.975 88.4235 59.535C88.4935 60.0717 88.6218 60.4917 88.8085 60.795C89.0185 61.0983 89.3218 61.2967 89.7185 61.39C90.1385 61.4833 90.6985 61.5533 91.3985 61.6V63H80.3735V61.6C81.0735 61.5533 81.6335 61.4833 82.0535 61.39C82.4735 61.2967 82.7885 61.11 82.9985 60.83C83.2085 60.55 83.3368 60.1533 83.3835 59.64C83.4535 59.1033 83.4885 58.3917 83.4885 57.505V43.12C83.4885 41.72 83.4651 40.6233 83.4185 39.83C83.3951 39.0133 83.3368 38.395 83.2435 37.975C83.1735 37.6717 83.0918 37.4383 82.9985 37.275C82.9051 37.0883 82.7535 36.9483 82.5435 36.855C82.3568 36.7383 82.0885 36.6683 81.7385 36.645C81.4118 36.5983 80.9918 36.575 80.4785 36.575V35.28L88.2835 33.95V46.865H88.4235C89.1468 45.9083 89.9518 45.2083 90.8385 44.765C91.7485 44.3217 92.8335 44.1 94.0935 44.1C96.3801 44.1 98.1535 44.8 99.4135 46.2C100.02 46.9 100.498 47.7517 100.848 48.755C101.198 49.735 101.373 50.7617 101.373 51.835V57.26C101.373 58.24 101.397 59.01 101.443 59.57C101.49 60.1067 101.607 60.5267 101.793 60.83C102.003 61.11 102.307 61.2967 102.703 61.39C103.1 61.4833 103.648 61.5533 104.348 61.6V63H93.3935V61.6C94.0935 61.5767 94.6418 61.5183 95.0385 61.425C95.4585 61.3083 95.7735 61.11 95.9835 60.83C96.2168 60.55 96.3568 60.1533 96.4035 59.64C96.4735 59.1033 96.5085 58.3917 96.5085 57.505V53.2C96.5085 50.7267 96.2401 48.9767 95.7035 47.95C95.1668 46.9233 94.2451 46.41 92.9385 46.41C91.5385 46.41 90.4301 46.9233 89.6135 47.95C89.2168 48.4867 88.9018 49.1517 88.6685 49.945C88.4585 50.7383 88.3535 51.625 88.3535 52.605V57.26ZM113.794 57.26C113.794 58.1933 113.829 58.94 113.899 59.5C113.969 60.06 114.109 60.4917 114.319 60.795C114.529 61.0983 114.832 61.3083 115.229 61.425C115.625 61.5183 116.162 61.5767 116.839 61.6V63H105.814V61.6C106.467 61.5767 106.992 61.5067 107.389 61.39C107.809 61.25 108.124 61.04 108.334 60.76C108.567 60.4567 108.719 60.0483 108.789 59.535C108.882 58.9983 108.929 58.3217 108.929 57.505V53.2C108.929 51.8467 108.905 50.7383 108.859 49.875C108.812 48.9883 108.754 48.3817 108.684 48.055C108.567 47.4717 108.299 47.0867 107.879 46.9C107.482 46.7133 106.747 46.62 105.674 46.62V45.43L113.794 44.1V57.26ZM108.649 36.68C108.649 35.91 108.905 35.2683 109.419 34.755C109.955 34.2183 110.597 33.95 111.344 33.95C112.114 33.95 112.755 34.2183 113.269 34.755C113.805 35.2683 114.074 35.91 114.074 36.68C114.074 37.4267 113.805 38.0683 113.269 38.605C112.755 39.1183 112.114 39.375 111.344 39.375C110.597 39.375 109.955 39.1183 109.419 38.605C108.905 38.0683 108.649 37.4267 108.649 36.68ZM126.72 57.19C126.72 58.0533 126.755 58.765 126.825 59.325C126.919 59.885 127.059 60.34 127.245 60.69C127.432 61.0167 127.689 61.25 128.015 61.39C128.365 61.5067 128.809 61.5767 129.345 61.6V63H118.74V61.6C119.44 61.5767 119.989 61.5183 120.385 61.425C120.805 61.3083 121.12 61.11 121.33 60.83C121.54 60.5267 121.68 60.1183 121.75 59.605C121.82 59.0683 121.855 58.3567 121.855 57.47V47.005H118.11V45.01H121.855V43.89C121.855 42.5833 122.065 41.405 122.485 40.355C122.905 39.2817 123.5 38.3833 124.27 37.66C125.04 36.9133 125.974 36.3417 127.07 35.945C128.167 35.5483 129.404 35.35 130.78 35.35C131.667 35.35 132.414 35.4433 133.02 35.63C133.65 35.7933 134.269 36.085 134.875 36.505C135.295 36.1317 135.809 35.7933 136.415 35.49C137.022 35.1633 137.687 34.8833 138.41 34.65C139.134 34.4167 139.892 34.2417 140.685 34.125C141.479 34.0083 142.272 33.95 143.065 33.95C144.675 33.95 145.947 34.23 146.88 34.79C147.837 35.35 148.315 36.1083 148.315 37.065C148.315 37.695 148.14 38.1617 147.79 38.465C147.44 38.7683 147.032 38.92 146.565 38.92C146.005 38.92 145.515 38.8033 145.095 38.57C144.675 38.3367 144.29 37.9867 143.94 37.52C143.474 36.9133 143.1 36.505 142.82 36.295C142.54 36.085 142.225 35.98 141.875 35.98C141.385 35.98 140.93 36.085 140.51 36.295C140.09 36.4817 139.729 36.82 139.425 37.31C139.122 37.8 138.889 38.4533 138.725 39.27C138.562 40.0633 138.48 41.0667 138.48 42.28V45.01H143.975V47.005H138.48V57.19C138.48 58.0767 138.527 58.8 138.62 59.36C138.714 59.92 138.889 60.3633 139.145 60.69C139.425 61.0167 139.787 61.25 140.23 61.39C140.674 61.5067 141.245 61.5767 141.945 61.6V63H131.48V61.6C131.947 61.5767 132.32 61.5183 132.6 61.425C132.88 61.3083 133.09 61.0983 133.23 60.795C133.394 60.4917 133.499 60.0833 133.545 59.57C133.592 59.0333 133.615 58.3333 133.615 57.47V47.005H126.72V57.19ZM133.615 45.01V39.9C132.845 38.8733 132.157 38.1967 131.55 37.87C130.967 37.5433 130.337 37.38 129.66 37.38C128.54 37.38 127.77 37.9283 127.35 39.025C126.93 40.1217 126.72 41.6733 126.72 43.68V45.01H133.615ZM153.511 57.575C153.511 58.485 153.546 59.2083 153.616 59.745C153.71 60.2583 153.885 60.655 154.141 60.935C154.398 61.215 154.771 61.4017 155.261 61.495C155.751 61.565 156.405 61.6 157.221 61.6V63H145.531V61.6C146.231 61.5533 146.791 61.4833 147.211 61.39C147.631 61.2967 147.946 61.11 148.156 60.83C148.366 60.55 148.495 60.1533 148.541 59.64C148.611 59.1033 148.646 58.3917 148.646 57.505V53.235C148.646 51.7883 148.611 50.6333 148.541 49.77C148.471 48.9067 148.32 48.2417 148.086 47.775C147.853 47.3083 147.515 47.005 147.071 46.865C146.651 46.7017 146.091 46.62 145.391 46.62V45.395L152.391 44.1L152.951 48.125H153.091C153.721 46.8883 154.55 45.9083 155.576 45.185C156.603 44.4617 157.688 44.1 158.831 44.1C159.718 44.1 160.441 44.3217 161.001 44.765C161.561 45.2083 161.841 45.7683 161.841 46.445C161.841 47.1917 161.62 47.8217 161.176 48.335C160.756 48.8483 160.173 49.105 159.426 49.105C159.076 49.105 158.761 49.035 158.481 48.895C158.201 48.755 157.945 48.6033 157.711 48.44C157.501 48.2533 157.28 48.09 157.046 47.95C156.836 47.7867 156.615 47.705 156.381 47.705C155.938 47.705 155.518 47.9967 155.121 48.58C154.725 49.1633 154.398 49.945 154.141 50.925C153.955 51.625 153.803 52.4183 153.686 53.305C153.57 54.1683 153.511 55.0317 153.511 55.895V57.575ZM173.953 53.025C171.993 53.9117 170.511 54.74 169.508 55.51C168.528 56.2567 168.038 57.0383 168.038 57.855C168.038 58.5317 168.225 59.0683 168.598 59.465C168.971 59.8617 169.438 60.06 169.998 60.06C170.558 60.06 171.083 59.9667 171.573 59.78C172.063 59.57 172.483 59.3017 172.833 58.975C173.183 58.6483 173.451 58.2633 173.638 57.82C173.848 57.3533 173.953 56.8633 173.953 56.35V53.025ZM173.953 51.17V49.7C173.953 48.3467 173.708 47.3667 173.218 46.76C172.751 46.13 172.016 45.815 171.013 45.815C170.336 45.815 169.823 46.0017 169.473 46.375C169.123 46.725 168.796 47.32 168.493 48.16C168.283 48.7433 167.98 49.1983 167.583 49.525C167.21 49.8517 166.685 50.015 166.008 50.015C165.355 50.015 164.853 49.8167 164.503 49.42C164.153 49.0233 163.978 48.4633 163.978 47.74C163.978 46.62 164.585 45.7333 165.798 45.08C167.035 44.4267 168.89 44.1 171.363 44.1C173.976 44.1 175.843 44.5783 176.963 45.535C178.083 46.4683 178.643 48.0433 178.643 50.26V57.925C178.643 59.9083 179.04 60.9 179.833 60.9C180.276 60.9 180.685 60.7483 181.058 60.445L181.583 61.46C181.256 62.0433 180.743 62.51 180.043 62.86C179.366 63.1867 178.596 63.35 177.733 63.35C176.66 63.35 175.843 63.0233 175.283 62.37C174.723 61.7167 174.443 60.795 174.443 59.605H174.268C173.591 60.8183 172.716 61.74 171.643 62.37C170.57 63 169.345 63.315 167.968 63.315C166.498 63.315 165.32 62.9067 164.433 62.09C163.546 61.25 163.103 60.165 163.103 58.835C163.103 57.8083 163.558 56.8517 164.468 55.965C165.378 55.055 166.895 54.1683 169.018 53.305L173.953 51.17Z" fill="#4A8CFF"/>
<path d="M200.04 57.435C200.04 58.345 200.075 59.08 200.145 59.64C200.238 60.1767 200.401 60.6083 200.635 60.935C200.868 61.2383 201.195 61.4483 201.615 61.565C202.035 61.6817 202.595 61.7517 203.295 61.775V63H193.25V61.775C193.95 61.7517 194.521 61.6817 194.965 61.565C195.408 61.425 195.746 61.215 195.98 60.935C196.236 60.6317 196.4 60.2233 196.47 59.71C196.563 59.1733 196.61 58.4967 196.61 57.68V53.2C196.61 51.8467 196.586 50.7383 196.54 49.875C196.516 48.9883 196.458 48.3817 196.365 48.055C196.248 47.5183 195.98 47.1567 195.56 46.97C195.14 46.76 194.346 46.655 193.18 46.655V45.43L200.04 44.1V57.435ZM196.015 36.995C196.015 36.3883 196.225 35.875 196.645 35.455C197.065 35.035 197.578 34.825 198.185 34.825C198.791 34.825 199.305 35.035 199.725 35.455C200.145 35.875 200.355 36.3883 200.355 36.995C200.355 37.6017 200.145 38.115 199.725 38.535C199.305 38.955 198.791 39.165 198.185 39.165C197.578 39.165 197.065 38.955 196.645 38.535C196.225 38.115 196.015 37.6017 196.015 36.995ZM206.998 63H206.228V56.98H207.103C208.013 60.27 209.67 61.915 212.073 61.915C213.007 61.915 213.742 61.6933 214.278 61.25C214.838 60.7833 215.118 60.0833 215.118 59.15C215.118 58.8 215.06 58.5083 214.943 58.275C214.85 58.0183 214.652 57.7617 214.348 57.505C214.068 57.225 213.66 56.91 213.123 56.56C212.61 56.21 211.922 55.7667 211.058 55.23C210.265 54.74 209.577 54.285 208.993 53.865C208.41 53.445 207.92 53.025 207.523 52.605C207.127 52.1617 206.823 51.695 206.613 51.205C206.427 50.715 206.333 50.1433 206.333 49.49C206.333 48.6967 206.462 47.9733 206.718 47.32C206.998 46.6433 207.372 46.0717 207.838 45.605C208.305 45.1383 208.853 44.7767 209.483 44.52C210.113 44.24 210.802 44.1 211.548 44.1C212.178 44.1 212.832 44.205 213.508 44.415C214.185 44.6017 214.78 44.8583 215.293 45.185L215.993 44.45H216.658V49.49H215.748C215.235 48.0667 214.675 47.0517 214.068 46.445C213.462 45.8383 212.715 45.535 211.828 45.535C211.035 45.535 210.393 45.745 209.903 46.165C209.437 46.585 209.203 47.1683 209.203 47.915C209.203 48.3117 209.262 48.6617 209.378 48.965C209.518 49.245 209.728 49.525 210.008 49.805C210.288 50.085 210.638 50.3767 211.058 50.68C211.502 50.96 212.027 51.2867 212.633 51.66C213.637 52.29 214.488 52.85 215.188 53.34C215.912 53.83 216.495 54.32 216.938 54.81C217.382 55.2767 217.708 55.7667 217.918 56.28C218.128 56.7933 218.233 57.3767 218.233 58.03C218.233 59.6867 217.697 60.9933 216.623 61.95C215.55 62.8833 214.138 63.35 212.388 63.35C210.568 63.35 209.005 62.825 207.698 61.775L206.998 63ZM242.146 52.64C240.816 53.1533 239.684 53.655 238.751 54.145C237.841 54.635 237.106 55.125 236.546 55.615C235.986 56.105 235.577 56.595 235.321 57.085C235.087 57.575 234.971 58.0767 234.971 58.59C234.971 59.36 235.227 59.99 235.741 60.48C236.254 60.97 236.931 61.215 237.771 61.215C238.377 61.215 238.937 61.0633 239.451 60.76C239.987 60.4567 240.454 60.0483 240.851 59.535C241.247 58.9983 241.562 58.38 241.796 57.68C242.029 56.9567 242.146 56.1983 242.146 55.405V52.64ZM242.146 51.135V49.7C242.146 46.8533 240.932 45.43 238.506 45.43C238.109 45.43 237.771 45.465 237.491 45.535C237.211 45.605 236.977 45.7217 236.791 45.885C236.604 46.0483 236.429 46.2817 236.266 46.585C236.126 46.8883 235.986 47.2617 235.846 47.705C235.589 48.3817 235.332 48.8367 235.076 49.07C234.842 49.28 234.492 49.385 234.026 49.385C232.859 49.385 232.276 48.8017 232.276 47.635C232.276 46.515 232.871 45.6517 234.061 45.045C235.251 44.415 236.942 44.1 239.136 44.1C241.469 44.1 243.126 44.52 244.106 45.36C245.086 46.1767 245.576 47.5767 245.576 49.56V57.4C245.576 60.06 246.101 61.39 247.151 61.39C247.477 61.39 247.792 61.355 248.096 61.285C248.399 61.1917 248.656 60.97 248.866 60.62L249.356 61.46C249.076 61.9967 248.562 62.4517 247.816 62.825C247.069 63.175 246.287 63.35 245.471 63.35C244.444 63.35 243.674 63.0233 243.161 62.37C242.671 61.7167 242.426 60.795 242.426 59.605H242.251C241.644 60.7483 240.804 61.6583 239.731 62.335C238.657 62.9883 237.467 63.315 236.161 63.315C234.691 63.315 233.536 62.9417 232.696 62.195C231.856 61.4483 231.436 60.445 231.436 59.185C231.436 58.625 231.529 58.0883 231.716 57.575C231.926 57.0617 232.252 56.5717 232.696 56.105C233.139 55.6383 233.722 55.1833 234.446 54.74C235.169 54.2733 236.056 53.8067 237.106 53.34L242.146 51.135ZM259.753 45.01H263.708V42.49C263.708 39.8067 264.408 37.7183 265.808 36.225C267.232 34.7083 269.25 33.95 271.863 33.95C273.31 33.95 274.488 34.1717 275.398 34.615C276.308 35.0583 276.763 35.63 276.763 36.33C276.763 36.7967 276.612 37.1933 276.308 37.52C276.028 37.8233 275.667 37.975 275.223 37.975C274.943 37.975 274.64 37.8933 274.313 37.73C274.01 37.5433 273.602 37.24 273.088 36.82C272.505 36.33 272.05 36.015 271.723 35.875C271.397 35.7117 271.012 35.63 270.568 35.63C269.168 35.63 268.165 36.3417 267.558 37.765C267.348 38.2317 267.197 38.8033 267.103 39.48C267.033 40.1567 266.998 41.09 266.998 42.28V45.01H272.633V46.655H266.998V57.365C266.998 58.2283 267.045 58.94 267.138 59.5C267.255 60.06 267.442 60.515 267.698 60.865C267.978 61.1917 268.352 61.425 268.818 61.565C269.285 61.6817 269.892 61.7517 270.638 61.775V63H260.698V61.775C261.352 61.7517 261.877 61.6933 262.273 61.6C262.67 61.4833 262.973 61.285 263.183 61.005C263.393 60.7017 263.533 60.2933 263.603 59.78C263.673 59.2433 263.708 58.5317 263.708 57.645V46.655H259.753V45.01ZM281.177 57.435C281.177 58.3917 281.201 59.15 281.247 59.71C281.294 60.27 281.411 60.7017 281.597 61.005C281.807 61.285 282.099 61.4717 282.472 61.565C282.846 61.6583 283.371 61.7283 284.047 61.775V63H274.737V61.775C275.414 61.7517 275.951 61.6933 276.347 61.6C276.744 61.4833 277.047 61.285 277.257 61.005C277.467 60.725 277.596 60.3283 277.642 59.815C277.712 59.2783 277.747 58.5667 277.747 57.68V53.585C277.747 51.9983 277.724 50.7617 277.677 49.875C277.654 48.9883 277.537 48.335 277.327 47.915C277.141 47.495 276.837 47.25 276.417 47.18C275.997 47.0867 275.414 47.04 274.667 47.04V45.815L280.792 44.485L281.282 48.825H281.422C281.726 48.125 282.099 47.4833 282.542 46.9C283.009 46.3167 283.511 45.8267 284.047 45.43C284.584 45.01 285.144 44.6833 285.727 44.45C286.311 44.2167 286.906 44.1 287.512 44.1C288.259 44.1 288.842 44.2867 289.262 44.66C289.706 45.01 289.927 45.4883 289.927 46.095C289.927 46.655 289.752 47.0983 289.402 47.425C289.052 47.7283 288.551 47.88 287.897 47.88C287.524 47.88 287.209 47.8333 286.952 47.74C286.696 47.6467 286.462 47.5533 286.252 47.46C286.066 47.3433 285.879 47.2383 285.692 47.145C285.529 47.0517 285.342 47.005 285.132 47.005C284.502 47.005 283.872 47.4133 283.242 48.23C282.612 49.0233 282.122 50.0383 281.772 51.275C281.586 51.9517 281.434 52.7217 281.317 53.585C281.224 54.425 281.177 55.3117 281.177 56.245V57.435ZM307.981 59.745C305.998 62.1483 303.536 63.35 300.596 63.35C299.219 63.35 297.971 63.1283 296.851 62.685C295.731 62.2183 294.763 61.5767 293.946 60.76C293.153 59.92 292.534 58.9283 292.091 57.785C291.648 56.6183 291.426 55.335 291.426 53.935C291.426 52.5117 291.659 51.1933 292.126 49.98C292.593 48.7667 293.246 47.7283 294.086 46.865C294.949 46.0017 295.964 45.325 297.131 44.835C298.321 44.345 299.616 44.1 301.016 44.1C303.279 44.1 305.029 44.7183 306.266 45.955C307.503 47.1683 308.121 48.9183 308.121 51.205C308.121 51.5317 308.051 51.73 307.911 51.8C307.794 51.87 307.503 51.905 307.036 51.905H295.521C295.474 52.0917 295.439 52.325 295.416 52.605C295.393 52.8617 295.381 53.1533 295.381 53.48C295.381 54.6933 295.521 55.8017 295.801 56.805C296.104 57.785 296.524 58.625 297.061 59.325C297.621 60.025 298.274 60.5733 299.021 60.97C299.791 61.3433 300.643 61.53 301.576 61.53C302.556 61.53 303.466 61.32 304.306 60.9C305.146 60.4567 306.009 59.745 306.896 58.765L307.981 59.745ZM302.206 50.295C302.673 50.295 303.046 50.2833 303.326 50.26C303.606 50.2367 303.816 50.19 303.956 50.12C304.096 50.05 304.189 49.9567 304.236 49.84C304.283 49.7 304.306 49.525 304.306 49.315C304.306 48.2417 303.956 47.39 303.256 46.76C302.579 46.1067 301.646 45.78 300.456 45.78C297.936 45.78 296.373 47.285 295.766 50.295H302.206ZM328.044 59.745C326.061 62.1483 323.599 63.35 320.659 63.35C319.283 63.35 318.034 63.1283 316.914 62.685C315.794 62.2183 314.826 61.5767 314.009 60.76C313.216 59.92 312.598 58.9283 312.154 57.785C311.711 56.6183 311.489 55.335 311.489 53.935C311.489 52.5117 311.723 51.1933 312.189 49.98C312.656 48.7667 313.309 47.7283 314.149 46.865C315.013 46.0017 316.028 45.325 317.194 44.835C318.384 44.345 319.679 44.1 321.079 44.1C323.343 44.1 325.093 44.7183 326.329 45.955C327.566 47.1683 328.184 48.9183 328.184 51.205C328.184 51.5317 328.114 51.73 327.974 51.8C327.858 51.87 327.566 51.905 327.099 51.905H315.584C315.538 52.0917 315.503 52.325 315.479 52.605C315.456 52.8617 315.444 53.1533 315.444 53.48C315.444 54.6933 315.584 55.8017 315.864 56.805C316.168 57.785 316.588 58.625 317.124 59.325C317.684 60.025 318.338 60.5733 319.084 60.97C319.854 61.3433 320.706 61.53 321.639 61.53C322.619 61.53 323.529 61.32 324.369 60.9C325.209 60.4567 326.073 59.745 326.959 58.765L328.044 59.745ZM322.269 50.295C322.736 50.295 323.109 50.2833 323.389 50.26C323.669 50.2367 323.879 50.19 324.019 50.12C324.159 50.05 324.253 49.9567 324.299 49.84C324.346 49.7 324.369 49.525 324.369 49.315C324.369 48.2417 324.019 47.39 323.319 46.76C322.643 46.1067 321.709 45.78 320.519 45.78C317.999 45.78 316.436 47.285 315.829 50.295H322.269ZM352.102 52.64C350.772 53.1533 349.64 53.655 348.707 54.145C347.797 54.635 347.062 55.125 346.502 55.615C345.942 56.105 345.533 56.595 345.277 57.085C345.043 57.575 344.927 58.0767 344.927 58.59C344.927 59.36 345.183 59.99 345.697 60.48C346.21 60.97 346.887 61.215 347.727 61.215C348.333 61.215 348.893 61.0633 349.407 60.76C349.943 60.4567 350.41 60.0483 350.807 59.535C351.203 58.9983 351.518 58.38 351.752 57.68C351.985 56.9567 352.102 56.1983 352.102 55.405V52.64ZM352.102 51.135V49.7C352.102 46.8533 350.888 45.43 348.462 45.43C348.065 45.43 347.727 45.465 347.447 45.535C347.167 45.605 346.933 45.7217 346.747 45.885C346.56 46.0483 346.385 46.2817 346.222 46.585C346.082 46.8883 345.942 47.2617 345.802 47.705C345.545 48.3817 345.288 48.8367 345.032 49.07C344.798 49.28 344.448 49.385 343.982 49.385C342.815 49.385 342.232 48.8017 342.232 47.635C342.232 46.515 342.827 45.6517 344.017 45.045C345.207 44.415 346.898 44.1 349.092 44.1C351.425 44.1 353.082 44.52 354.062 45.36C355.042 46.1767 355.532 47.5767 355.532 49.56V57.4C355.532 60.06 356.057 61.39 357.107 61.39C357.433 61.39 357.748 61.355 358.052 61.285C358.355 61.1917 358.612 60.97 358.822 60.62L359.312 61.46C359.032 61.9967 358.518 62.4517 357.772 62.825C357.025 63.175 356.243 63.35 355.427 63.35C354.4 63.35 353.63 63.0233 353.117 62.37C352.627 61.7167 352.382 60.795 352.382 59.605H352.207C351.6 60.7483 350.76 61.6583 349.687 62.335C348.613 62.9883 347.423 63.315 346.117 63.315C344.647 63.315 343.492 62.9417 342.652 62.195C341.812 61.4483 341.392 60.445 341.392 59.185C341.392 58.625 341.485 58.0883 341.672 57.575C341.882 57.0617 342.208 56.5717 342.652 56.105C343.095 55.6383 343.678 55.1833 344.402 54.74C345.125 54.2733 346.012 53.8067 347.062 53.34L352.102 51.135ZM366.617 46.97H366.757C367.503 46.0833 368.308 45.3833 369.172 44.87C370.035 44.3567 371.038 44.1 372.182 44.1C373.512 44.1 374.725 44.345 375.822 44.835C376.942 45.3017 377.91 45.9667 378.727 46.83C379.543 47.6933 380.173 48.72 380.617 49.91C381.083 51.0767 381.317 52.36 381.317 53.76C381.317 55.1833 381.083 56.49 380.617 57.68C380.15 58.8467 379.508 59.85 378.692 60.69C377.875 61.53 376.907 62.1833 375.787 62.65C374.667 63.1167 373.453 63.35 372.147 63.35C371.073 63.35 370.093 63.175 369.207 62.825C368.343 62.4517 367.527 61.8567 366.757 61.04V66.15C366.757 67.0833 366.803 67.83 366.897 68.39C366.99 68.95 367.177 69.3817 367.457 69.685C367.737 69.9883 368.133 70.1983 368.647 70.315C369.183 70.4317 369.883 70.5017 370.747 70.525V71.75H359.967V70.525C360.667 70.5017 361.227 70.4317 361.647 70.315C362.09 70.1983 362.428 69.9883 362.662 69.685C362.918 69.3817 363.093 68.9617 363.187 68.425C363.28 67.9117 363.327 67.235 363.327 66.395V53.305C363.327 51.9517 363.303 50.8433 363.257 49.98C363.233 49.1167 363.175 48.5217 363.082 48.195C362.965 47.635 362.697 47.2617 362.277 47.075C361.857 46.865 361.063 46.76 359.897 46.76V45.57L366.617 44.24V46.97ZM367.667 47.985C367.363 48.4517 367.13 49.0117 366.967 49.665C366.827 50.295 366.757 51.1233 366.757 52.15V54.88C366.757 55.51 366.768 56.0583 366.792 56.525C366.838 56.9683 366.897 57.3533 366.967 57.68C367.037 58.0067 367.13 58.2983 367.247 58.555C367.363 58.8117 367.515 59.0567 367.702 59.29C368.238 60.0367 368.88 60.62 369.627 61.04C370.373 61.4367 371.155 61.635 371.972 61.635C373.582 61.635 374.877 60.9583 375.857 59.605C376.86 58.2517 377.362 56.35 377.362 53.9C377.362 52.6867 377.222 51.59 376.942 50.61C376.685 49.6067 376.312 48.755 375.822 48.055C375.332 47.3317 374.737 46.7717 374.037 46.375C373.36 45.9783 372.602 45.78 371.762 45.78C370.922 45.78 370.14 45.9783 369.417 46.375C368.717 46.7483 368.133 47.285 367.667 47.985ZM390.371 46.97H390.511C391.258 46.0833 392.063 45.3833 392.926 44.87C393.79 44.3567 394.793 44.1 395.936 44.1C397.266 44.1 398.48 44.345 399.576 44.835C400.696 45.3017 401.665 45.9667 402.481 46.83C403.298 47.6933 403.928 48.72 404.371 49.91C404.838 51.0767 405.071 52.36 405.071 53.76C405.071 55.1833 404.838 56.49 404.371 57.68C403.905 58.8467 403.263 59.85 402.446 60.69C401.63 61.53 400.661 62.1833 399.541 62.65C398.421 63.1167 397.208 63.35 395.901 63.35C394.828 63.35 393.848 63.175 392.961 62.825C392.098 62.4517 391.281 61.8567 390.511 61.04V66.15C390.511 67.0833 390.558 67.83 390.651 68.39C390.745 68.95 390.931 69.3817 391.211 69.685C391.491 69.9883 391.888 70.1983 392.401 70.315C392.938 70.4317 393.638 70.5017 394.501 70.525V71.75H383.721V70.525C384.421 70.5017 384.981 70.4317 385.401 70.315C385.845 70.1983 386.183 69.9883 386.416 69.685C386.673 69.3817 386.848 68.9617 386.941 68.425C387.035 67.9117 387.081 67.235 387.081 66.395V53.305C387.081 51.9517 387.058 50.8433 387.011 49.98C386.988 49.1167 386.93 48.5217 386.836 48.195C386.72 47.635 386.451 47.2617 386.031 47.075C385.611 46.865 384.818 46.76 383.651 46.76V45.57L390.371 44.24V46.97ZM391.421 47.985C391.118 48.4517 390.885 49.0117 390.721 49.665C390.581 50.295 390.511 51.1233 390.511 52.15V54.88C390.511 55.51 390.523 56.0583 390.546 56.525C390.593 56.9683 390.651 57.3533 390.721 57.68C390.791 58.0067 390.885 58.2983 391.001 58.555C391.118 58.8117 391.27 59.0567 391.456 59.29C391.993 60.0367 392.635 60.62 393.381 61.04C394.128 61.4367 394.91 61.635 395.726 61.635C397.336 61.635 398.631 60.9583 399.611 59.605C400.615 58.2517 401.116 56.35 401.116 53.9C401.116 52.6867 400.976 51.59 400.696 50.61C400.44 49.6067 400.066 48.755 399.576 48.055C399.086 47.3317 398.491 46.7717 397.791 46.375C397.115 45.9783 396.356 45.78 395.516 45.78C394.676 45.78 393.895 45.9783 393.171 46.375C392.471 46.7483 391.888 47.285 391.421 47.985ZM414.091 57.54C414.091 58.4267 414.126 59.1383 414.196 59.675C414.266 60.2117 414.406 60.6317 414.616 60.935C414.85 61.2383 415.165 61.4483 415.561 61.565C415.981 61.6817 416.53 61.7517 417.206 61.775V63H407.546V61.775C408.246 61.7517 408.806 61.6817 409.226 61.565C409.646 61.425 409.973 61.215 410.206 60.935C410.463 60.655 410.626 60.27 410.696 59.78C410.79 59.2667 410.836 58.6017 410.836 57.785V42.7C410.836 41.44 410.813 40.39 410.766 39.55C410.743 38.6867 410.696 38.1033 410.626 37.8C410.51 37.2633 410.23 36.9017 409.786 36.715C409.366 36.5283 408.596 36.435 407.476 36.435V35.245L414.091 33.95V57.54ZM426.138 57.435C426.138 58.345 426.173 59.08 426.243 59.64C426.337 60.1767 426.5 60.6083 426.733 60.935C426.967 61.2383 427.293 61.4483 427.713 61.565C428.133 61.6817 428.693 61.7517 429.393 61.775V63H419.348V61.775C420.048 61.7517 420.62 61.6817 421.063 61.565C421.507 61.425 421.845 61.215 422.078 60.935C422.335 60.6317 422.498 60.2233 422.568 59.71C422.662 59.1733 422.708 58.4967 422.708 57.68V53.2C422.708 51.8467 422.685 50.7383 422.638 49.875C422.615 48.9883 422.557 48.3817 422.463 48.055C422.347 47.5183 422.078 47.1567 421.658 46.97C421.238 46.76 420.445 46.655 419.278 46.655V45.43L426.138 44.1V57.435ZM422.113 36.995C422.113 36.3883 422.323 35.875 422.743 35.455C423.163 35.035 423.677 34.825 424.283 34.825C424.89 34.825 425.403 35.035 425.823 35.455C426.243 35.875 426.453 36.3883 426.453 36.995C426.453 37.6017 426.243 38.115 425.823 38.535C425.403 38.955 424.89 39.165 424.283 39.165C423.677 39.165 423.163 38.955 422.743 38.535C422.323 38.115 422.113 37.6017 422.113 36.995ZM447.797 60.095C446.957 61.1217 445.872 61.9267 444.542 62.51C443.212 63.07 441.777 63.35 440.237 63.35C439 63.35 437.857 63.1283 436.807 62.685C435.78 62.2183 434.894 61.5767 434.147 60.76C433.4 59.92 432.817 58.9167 432.397 57.75C432 56.5833 431.802 55.2883 431.802 53.865C431.802 52.3717 432.035 51.03 432.502 49.84C432.969 48.6267 433.622 47.6 434.462 46.76C435.325 45.8967 436.352 45.2433 437.542 44.8C438.755 44.3333 440.085 44.1 441.532 44.1C442.442 44.1 443.27 44.1817 444.017 44.345C444.764 44.485 445.405 44.695 445.942 44.975C446.502 45.2317 446.934 45.5583 447.237 45.955C447.54 46.3283 447.692 46.7367 447.692 47.18C447.692 47.6467 447.54 48.0083 447.237 48.265C446.934 48.5217 446.514 48.65 445.977 48.65C445.557 48.65 445.207 48.5683 444.927 48.405C444.647 48.2183 444.285 47.8217 443.842 47.215C443.375 46.6783 442.92 46.305 442.477 46.095C442.057 45.8617 441.509 45.745 440.832 45.745C439.175 45.745 437.915 46.3867 437.052 47.67C436.212 48.9533 435.792 50.8433 435.792 53.34C435.792 56.0233 436.259 58.065 437.192 59.465C438.149 60.8417 439.537 61.53 441.357 61.53C442.337 61.53 443.259 61.3433 444.122 60.97C444.985 60.5733 445.86 59.9433 446.747 59.08L447.797 60.095ZM461.067 52.64C459.737 53.1533 458.605 53.655 457.672 54.145C456.762 54.635 456.027 55.125 455.467 55.615C454.907 56.105 454.498 56.595 454.242 57.085C454.008 57.575 453.892 58.0767 453.892 58.59C453.892 59.36 454.148 59.99 454.662 60.48C455.175 60.97 455.852 61.215 456.692 61.215C457.298 61.215 457.858 61.0633 458.372 60.76C458.908 60.4567 459.375 60.0483 459.772 59.535C460.168 58.9983 460.483 58.38 460.717 57.68C460.95 56.9567 461.067 56.1983 461.067 55.405V52.64ZM461.067 51.135V49.7C461.067 46.8533 459.853 45.43 457.427 45.43C457.03 45.43 456.692 45.465 456.412 45.535C456.132 45.605 455.898 45.7217 455.712 45.885C455.525 46.0483 455.35 46.2817 455.187 46.585C455.047 46.8883 454.907 47.2617 454.767 47.705C454.51 48.3817 454.253 48.8367 453.997 49.07C453.763 49.28 453.413 49.385 452.947 49.385C451.78 49.385 451.197 48.8017 451.197 47.635C451.197 46.515 451.792 45.6517 452.982 45.045C454.172 44.415 455.863 44.1 458.057 44.1C460.39 44.1 462.047 44.52 463.027 45.36C464.007 46.1767 464.497 47.5767 464.497 49.56V57.4C464.497 60.06 465.022 61.39 466.072 61.39C466.398 61.39 466.713 61.355 467.017 61.285C467.32 61.1917 467.577 60.97 467.787 60.62L468.277 61.46C467.997 61.9967 467.483 62.4517 466.737 62.825C465.99 63.175 465.208 63.35 464.392 63.35C463.365 63.35 462.595 63.0233 462.082 62.37C461.592 61.7167 461.347 60.795 461.347 59.605H461.172C460.565 60.7483 459.725 61.6583 458.652 62.335C457.578 62.9883 456.388 63.315 455.082 63.315C453.612 63.315 452.457 62.9417 451.617 62.195C450.777 61.4483 450.357 60.445 450.357 59.185C450.357 58.625 450.45 58.0883 450.637 57.575C450.847 57.0617 451.173 56.5717 451.617 56.105C452.06 55.6383 452.643 55.1833 453.367 54.74C454.09 54.2733 454.977 53.8067 456.027 53.34L461.067 51.135ZM469.631 46.655V45.36C470.868 44.6367 471.836 43.9133 472.536 43.19C473.236 42.4667 473.773 41.6033 474.146 40.6H475.161V45.01H479.851V46.655H475.161V57.295C475.161 58.1117 475.196 58.8 475.266 59.36C475.36 59.92 475.5 60.375 475.686 60.725C475.873 61.0517 476.118 61.285 476.421 61.425C476.725 61.565 477.11 61.635 477.576 61.635C478.16 61.635 478.65 61.5183 479.046 61.285C479.466 61.0283 479.875 60.6083 480.271 60.025L481.146 60.69C480.82 61.5533 480.248 62.2183 479.431 62.685C478.638 63.1283 477.646 63.35 476.456 63.35C474.916 63.35 473.738 62.9883 472.921 62.265C472.128 61.5183 471.731 60.4567 471.731 59.08V46.655H469.631ZM489.439 57.435C489.439 58.345 489.474 59.08 489.544 59.64C489.637 60.1767 489.801 60.6083 490.034 60.935C490.267 61.2383 490.594 61.4483 491.014 61.565C491.434 61.6817 491.994 61.7517 492.694 61.775V63H482.649V61.775C483.349 61.7517 483.921 61.6817 484.364 61.565C484.807 61.425 485.146 61.215 485.379 60.935C485.636 60.6317 485.799 60.2233 485.869 59.71C485.962 59.1733 486.009 58.4967 486.009 57.68V53.2C486.009 51.8467 485.986 50.7383 485.939 49.875C485.916 48.9883 485.857 48.3817 485.764 48.055C485.647 47.5183 485.379 47.1567 484.959 46.97C484.539 46.76 483.746 46.655 482.579 46.655V45.43L489.439 44.1V57.435ZM485.414 36.995C485.414 36.3883 485.624 35.875 486.044 35.455C486.464 35.035 486.977 34.825 487.584 34.825C488.191 34.825 488.704 35.035 489.124 35.455C489.544 35.875 489.754 36.3883 489.754 36.995C489.754 37.6017 489.544 38.115 489.124 38.535C488.704 38.955 488.191 39.165 487.584 39.165C486.977 39.165 486.464 38.955 486.044 38.535C485.624 38.115 485.414 37.6017 485.414 36.995ZM504.763 44.1C506.093 44.1 507.353 44.345 508.543 44.835C509.733 45.3017 510.771 45.955 511.658 46.795C512.568 47.635 513.279 48.6383 513.793 49.805C514.329 50.9483 514.598 52.2083 514.598 53.585C514.598 55.0083 514.329 56.315 513.793 57.505C513.279 58.695 512.568 59.7217 511.658 60.585C510.771 61.4483 509.733 62.125 508.543 62.615C507.353 63.105 506.093 63.35 504.763 63.35C503.456 63.35 502.208 63.1167 501.018 62.65C499.851 62.16 498.824 61.4833 497.938 60.62C497.051 59.7567 496.351 58.73 495.838 57.54C495.324 56.3267 495.068 55.0083 495.068 53.585C495.068 52.2083 495.324 50.9367 495.838 49.77C496.351 48.6033 497.051 47.6 497.938 46.76C498.824 45.92 499.851 45.2667 501.018 44.8C502.208 44.3333 503.456 44.1 504.763 44.1ZM504.763 45.78C503.899 45.78 503.106 45.9667 502.383 46.34C501.683 46.7133 501.076 47.25 500.563 47.95C500.073 48.6267 499.688 49.455 499.408 50.435C499.151 51.3917 499.023 52.4533 499.023 53.62C499.023 54.8333 499.151 55.93 499.408 56.91C499.688 57.89 500.073 58.73 500.563 59.43C501.076 60.1067 501.683 60.6317 502.383 61.005C503.083 61.3783 503.876 61.565 504.763 61.565C505.649 61.565 506.454 61.3783 507.178 61.005C507.901 60.6317 508.519 60.095 509.033 59.395C509.546 58.695 509.943 57.855 510.223 56.875C510.503 55.895 510.643 54.81 510.643 53.62C510.643 52.4533 510.503 51.3917 510.223 50.435C509.943 49.4783 509.546 48.6617 509.033 47.985C508.519 47.285 507.901 46.7483 507.178 46.375C506.454 45.9783 505.649 45.78 504.763 45.78ZM523.848 57.505C523.848 58.4617 523.871 59.22 523.918 59.78C523.965 60.3167 524.081 60.7367 524.268 61.04C524.478 61.32 524.77 61.5067 525.143 61.6C525.54 61.6933 526.076 61.7633 526.753 61.81V63H517.583V61.81C518.236 61.7633 518.75 61.6933 519.123 61.6C519.52 61.5067 519.823 61.32 520.033 61.04C520.243 60.76 520.371 60.3633 520.418 59.85C520.488 59.3367 520.523 58.6367 520.523 57.75V53.095C520.523 50.3183 520.453 48.6267 520.313 48.02C520.243 47.7167 520.15 47.4717 520.033 47.285C519.94 47.075 519.788 46.9233 519.578 46.83C519.368 46.7133 519.1 46.6433 518.773 46.62C518.446 46.5733 518.026 46.55 517.513 46.55V45.43L523.113 44.1L523.533 47.565H523.673C524.56 46.4683 525.598 45.6167 526.788 45.01C527.978 44.4033 529.273 44.1 530.673 44.1C531.746 44.1 532.726 44.275 533.613 44.625C534.5 44.975 535.176 45.4533 535.643 46.06C536.04 46.5967 536.32 47.2967 536.483 48.16C536.646 49 536.728 50.1667 536.728 51.66V57.505C536.728 58.4617 536.751 59.22 536.798 59.78C536.868 60.3167 536.996 60.7367 537.183 61.04C537.37 61.32 537.65 61.5067 538.023 61.6C538.42 61.6933 538.933 61.7633 539.563 61.81V63H530.498V61.81C531.151 61.7867 531.665 61.7283 532.038 61.635C532.435 61.5183 532.726 61.32 532.913 61.04C533.123 60.76 533.251 60.3633 533.298 59.85C533.368 59.3133 533.403 58.6133 533.403 57.75V53.13C533.403 51.8 533.333 50.68 533.193 49.77C533.053 48.86 532.82 48.125 532.493 47.565C532.19 47.005 531.781 46.6083 531.268 46.375C530.755 46.1183 530.136 45.99 529.413 45.99C528.363 45.99 527.395 46.27 526.508 46.83C525.645 47.3667 524.968 48.1133 524.478 49.07C524.361 49.3033 524.256 49.525 524.163 49.735C524.093 49.945 524.035 50.19 523.988 50.47C523.941 50.75 523.906 51.0767 523.883 51.45C523.86 51.8 523.848 52.255 523.848 52.815V57.505ZM551.868 46.655V45.36C553.104 44.6367 554.073 43.9133 554.773 43.19C555.473 42.4667 556.009 41.6033 556.383 40.6H557.398V45.01H562.088V46.655H557.398V57.295C557.398 58.1117 557.433 58.8 557.503 59.36C557.596 59.92 557.736 60.375 557.923 60.725C558.109 61.0517 558.354 61.285 558.658 61.425C558.961 61.565 559.346 61.635 559.813 61.635C560.396 61.635 560.886 61.5183 561.283 61.285C561.703 61.0283 562.111 60.6083 562.508 60.025L563.383 60.69C563.056 61.5533 562.484 62.2183 561.668 62.685C560.874 63.1283 559.883 63.35 558.693 63.35C557.153 63.35 555.974 62.9883 555.158 62.265C554.364 61.5183 553.968 60.4567 553.968 59.08V46.655H551.868ZM570.975 57.435C570.975 58.3917 570.999 59.15 571.045 59.71C571.092 60.27 571.209 60.7017 571.395 61.005C571.605 61.285 571.897 61.4717 572.27 61.565C572.644 61.6583 573.169 61.7283 573.845 61.775V63H564.535V61.775C565.212 61.7283 565.749 61.6583 566.145 61.565C566.542 61.4717 566.845 61.285 567.055 61.005C567.265 60.725 567.394 60.3283 567.44 59.815C567.51 59.2783 567.545 58.5667 567.545 57.68V43.015C567.545 41.6383 567.522 40.5417 567.475 39.725C567.452 38.9083 567.394 38.29 567.3 37.87C567.254 37.59 567.172 37.3683 567.055 37.205C566.962 37.0183 566.81 36.8783 566.6 36.785C566.39 36.6683 566.11 36.5867 565.76 36.54C565.41 36.4933 564.979 36.47 564.465 36.47V35.28L570.905 33.95V47.285H571.045C571.395 46.8183 571.827 46.3983 572.34 46.025C572.877 45.6283 573.449 45.29 574.055 45.01C574.662 44.73 575.292 44.5083 575.945 44.345C576.622 44.1817 577.275 44.1 577.905 44.1C578.979 44.1 579.959 44.2867 580.845 44.66C581.755 45.0333 582.455 45.535 582.945 46.165C583.342 46.7017 583.634 47.4133 583.82 48.3C584.007 49.1633 584.1 50.3417 584.1 51.835V57.435C584.1 58.3917 584.124 59.15 584.17 59.71C584.217 60.2467 584.334 60.6667 584.52 60.97C584.73 61.2733 585.022 61.4717 585.395 61.565C585.769 61.6583 586.294 61.7283 586.97 61.775V63H577.695V61.775C578.349 61.7517 578.874 61.6933 579.27 61.6C579.667 61.4833 579.959 61.285 580.145 61.005C580.355 60.725 580.484 60.3283 580.53 59.815C580.6 59.2783 580.635 58.5667 580.635 57.68V53.27C580.635 50.6567 580.332 48.8017 579.725 47.705C579.119 46.585 578.104 46.025 576.68 46.025C575.584 46.025 574.58 46.305 573.67 46.865C572.784 47.425 572.084 48.195 571.57 49.175C571.454 49.4317 571.349 49.6767 571.255 49.91C571.185 50.12 571.127 50.365 571.08 50.645C571.034 50.925 570.999 51.2517 570.975 51.625C570.975 51.975 570.975 52.4183 570.975 52.955V57.435ZM600.007 52.64C598.677 53.1533 597.545 53.655 596.612 54.145C595.702 54.635 594.967 55.125 594.407 55.615C593.847 56.105 593.439 56.595 593.182 57.085C592.949 57.575 592.832 58.0767 592.832 58.59C592.832 59.36 593.089 59.99 593.602 60.48C594.115 60.97 594.792 61.215 595.632 61.215C596.239 61.215 596.799 61.0633 597.312 60.76C597.849 60.4567 598.315 60.0483 598.712 59.535C599.109 58.9983 599.424 58.38 599.657 57.68C599.89 56.9567 600.007 56.1983 600.007 55.405V52.64ZM600.007 51.135V49.7C600.007 46.8533 598.794 45.43 596.367 45.43C595.97 45.43 595.632 45.465 595.352 45.535C595.072 45.605 594.839 45.7217 594.652 45.885C594.465 46.0483 594.29 46.2817 594.127 46.585C593.987 46.8883 593.847 47.2617 593.707 47.705C593.45 48.3817 593.194 48.8367 592.937 49.07C592.704 49.28 592.354 49.385 591.887 49.385C590.72 49.385 590.137 48.8017 590.137 47.635C590.137 46.515 590.732 45.6517 591.922 45.045C593.112 44.415 594.804 44.1 596.997 44.1C599.33 44.1 600.987 44.52 601.967 45.36C602.947 46.1767 603.437 47.5767 603.437 49.56V57.4C603.437 60.06 603.962 61.39 605.012 61.39C605.339 61.39 605.654 61.355 605.957 61.285C606.26 61.1917 606.517 60.97 606.727 60.62L607.217 61.46C606.937 61.9967 606.424 62.4517 605.677 62.825C604.93 63.175 604.149 63.35 603.332 63.35C602.305 63.35 601.535 63.0233 601.022 62.37C600.532 61.7167 600.287 60.795 600.287 59.605H600.112C599.505 60.7483 598.665 61.6583 597.592 62.335C596.519 62.9883 595.329 63.315 594.022 63.315C592.552 63.315 591.397 62.9417 590.557 62.195C589.717 61.4483 589.297 60.445 589.297 59.185C589.297 58.625 589.39 58.0883 589.577 57.575C589.787 57.0617 590.114 56.5717 590.557 56.105C591 55.6383 591.584 55.1833 592.307 54.74C593.03 54.2733 593.917 53.8067 594.967 53.34L600.007 51.135ZM608.572 46.655V45.36C609.809 44.6367 610.777 43.9133 611.477 43.19C612.177 42.4667 612.714 41.6033 613.087 40.6H614.102V45.01H618.792V46.655H614.102V57.295C614.102 58.1117 614.137 58.8 614.207 59.36C614.3 59.92 614.44 60.375 614.627 60.725C614.814 61.0517 615.059 61.285 615.362 61.425C615.665 61.565 616.05 61.635 616.517 61.635C617.1 61.635 617.59 61.5183 617.987 61.285C618.407 61.0283 618.815 60.6083 619.212 60.025L620.087 60.69C619.76 61.5533 619.189 62.2183 618.372 62.685C617.579 63.1283 616.587 63.35 615.397 63.35C613.857 63.35 612.679 62.9883 611.862 62.265C611.069 61.5183 610.672 60.4567 610.672 59.08V46.655H608.572ZM638.218 57.435C638.218 58.3917 638.242 59.15 638.288 59.71C638.335 60.27 638.452 60.7017 638.638 61.005C638.848 61.285 639.14 61.4717 639.513 61.565C639.887 61.6583 640.412 61.7283 641.088 61.775V63H631.778V61.775C632.455 61.7517 632.992 61.6933 633.388 61.6C633.785 61.4833 634.088 61.285 634.298 61.005C634.508 60.725 634.637 60.3283 634.683 59.815C634.753 59.2783 634.788 58.5667 634.788 57.68V53.585C634.788 51.9983 634.765 50.7617 634.718 49.875C634.695 48.9883 634.578 48.335 634.368 47.915C634.182 47.495 633.878 47.25 633.458 47.18C633.038 47.0867 632.455 47.04 631.708 47.04V45.815L637.833 44.485L638.323 48.825H638.463C638.767 48.125 639.14 47.4833 639.583 46.9C640.05 46.3167 640.552 45.8267 641.088 45.43C641.625 45.01 642.185 44.6833 642.768 44.45C643.352 44.2167 643.947 44.1 644.553 44.1C645.3 44.1 645.883 44.2867 646.303 44.66C646.747 45.01 646.968 45.4883 646.968 46.095C646.968 46.655 646.793 47.0983 646.443 47.425C646.093 47.7283 645.592 47.88 644.938 47.88C644.565 47.88 644.25 47.8333 643.993 47.74C643.737 47.6467 643.503 47.5533 643.293 47.46C643.107 47.3433 642.92 47.2383 642.733 47.145C642.57 47.0517 642.383 47.005 642.173 47.005C641.543 47.005 640.913 47.4133 640.283 48.23C639.653 49.0233 639.163 50.0383 638.813 51.275C638.627 51.9517 638.475 52.7217 638.358 53.585C638.265 54.425 638.218 55.3117 638.218 56.245V57.435ZM665.022 59.745C663.039 62.1483 660.577 63.35 657.637 63.35C656.26 63.35 655.012 63.1283 653.892 62.685C652.772 62.2183 651.804 61.5767 650.987 60.76C650.194 59.92 649.575 58.9283 649.132 57.785C648.689 56.6183 648.467 55.335 648.467 53.935C648.467 52.5117 648.7 51.1933 649.167 49.98C649.634 48.7667 650.287 47.7283 651.127 46.865C651.99 46.0017 653.005 45.325 654.172 44.835C655.362 44.345 656.657 44.1 658.057 44.1C660.32 44.1 662.07 44.7183 663.307 45.955C664.544 47.1683 665.162 48.9183 665.162 51.205C665.162 51.5317 665.092 51.73 664.952 51.8C664.835 51.87 664.544 51.905 664.077 51.905H652.562C652.515 52.0917 652.48 52.325 652.457 52.605C652.434 52.8617 652.422 53.1533 652.422 53.48C652.422 54.6933 652.562 55.8017 652.842 56.805C653.145 57.785 653.565 58.625 654.102 59.325C654.662 60.025 655.315 60.5733 656.062 60.97C656.832 61.3433 657.684 61.53 658.617 61.53C659.597 61.53 660.507 61.32 661.347 60.9C662.187 60.4567 663.05 59.745 663.937 58.765L665.022 59.745ZM659.247 50.295C659.714 50.295 660.087 50.2833 660.367 50.26C660.647 50.2367 660.857 50.19 660.997 50.12C661.137 50.05 661.23 49.9567 661.277 49.84C661.324 49.7 661.347 49.525 661.347 49.315C661.347 48.2417 660.997 47.39 660.297 46.76C659.62 46.1067 658.687 45.78 657.497 45.78C654.977 45.78 653.414 47.285 652.807 50.295H659.247ZM684.525 60.095C683.685 61.1217 682.6 61.9267 681.27 62.51C679.94 63.07 678.505 63.35 676.965 63.35C675.729 63.35 674.585 63.1283 673.535 62.685C672.509 62.2183 671.622 61.5767 670.875 60.76C670.129 59.92 669.545 58.9167 669.125 57.75C668.729 56.5833 668.53 55.2883 668.53 53.865C668.53 52.3717 668.764 51.03 669.23 49.84C669.697 48.6267 670.35 47.6 671.19 46.76C672.054 45.8967 673.08 45.2433 674.27 44.8C675.484 44.3333 676.814 44.1 678.26 44.1C679.17 44.1 679.999 44.1817 680.745 44.345C681.492 44.485 682.134 44.695 682.67 44.975C683.23 45.2317 683.662 45.5583 683.965 45.955C684.269 46.3283 684.42 46.7367 684.42 47.18C684.42 47.6467 684.269 48.0083 683.965 48.265C683.662 48.5217 683.242 48.65 682.705 48.65C682.285 48.65 681.935 48.5683 681.655 48.405C681.375 48.2183 681.014 47.8217 680.57 47.215C680.104 46.6783 679.649 46.305 679.205 46.095C678.785 45.8617 678.237 45.745 677.56 45.745C675.904 45.745 674.644 46.3867 673.78 47.67C672.94 48.9533 672.52 50.8433 672.52 53.34C672.52 56.0233 672.987 58.065 673.92 59.465C674.877 60.8417 676.265 61.53 678.085 61.53C679.065 61.53 679.987 61.3433 680.85 60.97C681.714 60.5733 682.589 59.9433 683.475 59.08L684.525 60.095ZM696.955 44.1C698.285 44.1 699.545 44.345 700.735 44.835C701.925 45.3017 702.963 45.955 703.85 46.795C704.76 47.635 705.472 48.6383 705.985 49.805C706.522 50.9483 706.79 52.2083 706.79 53.585C706.79 55.0083 706.522 56.315 705.985 57.505C705.472 58.695 704.76 59.7217 703.85 60.585C702.963 61.4483 701.925 62.125 700.735 62.615C699.545 63.105 698.285 63.35 696.955 63.35C695.648 63.35 694.4 63.1167 693.21 62.65C692.043 62.16 691.017 61.4833 690.13 60.62C689.243 59.7567 688.543 58.73 688.03 57.54C687.517 56.3267 687.26 55.0083 687.26 53.585C687.26 52.2083 687.517 50.9367 688.03 49.77C688.543 48.6033 689.243 47.6 690.13 46.76C691.017 45.92 692.043 45.2667 693.21 44.8C694.4 44.3333 695.648 44.1 696.955 44.1ZM696.955 45.78C696.092 45.78 695.298 45.9667 694.575 46.34C693.875 46.7133 693.268 47.25 692.755 47.95C692.265 48.6267 691.88 49.455 691.6 50.435C691.343 51.3917 691.215 52.4533 691.215 53.62C691.215 54.8333 691.343 55.93 691.6 56.91C691.88 57.89 692.265 58.73 692.755 59.43C693.268 60.1067 693.875 60.6317 694.575 61.005C695.275 61.3783 696.068 61.565 696.955 61.565C697.842 61.565 698.647 61.3783 699.37 61.005C700.093 60.6317 700.712 60.095 701.225 59.395C701.738 58.695 702.135 57.855 702.415 56.875C702.695 55.895 702.835 54.81 702.835 53.62C702.835 52.4533 702.695 51.3917 702.415 50.435C702.135 49.4783 701.738 48.6617 701.225 47.985C700.712 47.285 700.093 46.7483 699.37 46.375C698.647 45.9783 697.842 45.78 696.955 45.78ZM718.07 55.475C719.05 55.475 719.809 55.0317 720.345 54.145C720.905 53.2583 721.185 52.01 721.185 50.4C721.185 48.8133 720.905 47.5883 720.345 46.725C719.809 45.8383 719.039 45.395 718.035 45.395C717.032 45.395 716.227 45.8383 715.62 46.725C715.037 47.6117 714.745 48.825 714.745 50.365C714.745 51.905 715.049 53.1417 715.655 54.075C716.262 55.0083 717.067 55.475 718.07 55.475ZM716.145 59.57C716.705 59.6167 717.219 59.6633 717.685 59.71C718.152 59.7567 718.607 59.8033 719.05 59.85C719.517 59.8967 719.972 59.955 720.415 60.025C720.882 60.095 721.384 60.165 721.92 60.235C723.6 60.4917 724.942 61.145 725.945 62.195C726.972 63.2217 727.485 64.5167 727.485 66.08C727.485 68.04 726.704 69.5333 725.14 70.56C723.6 71.5867 721.36 72.1 718.42 72.1C717.114 72.1 715.912 71.9833 714.815 71.75C713.742 71.5167 712.82 71.1783 712.05 70.735C711.28 70.315 710.674 69.8017 710.23 69.195C709.81 68.5883 709.6 67.9233 709.6 67.2C709.6 66.71 709.682 66.255 709.845 65.835C710.009 65.415 710.23 65.0417 710.51 64.715C710.79 64.4117 711.117 64.1667 711.49 63.98C711.887 63.7933 712.295 63.7 712.715 63.7C713.509 63.7 714.22 63.945 714.85 64.435C714.22 64.575 713.707 64.9133 713.31 65.45C712.914 66.01 712.715 66.64 712.715 67.34C712.715 68.3667 713.217 69.16 714.22 69.72C715.247 70.28 716.694 70.56 718.56 70.56C722.55 70.56 724.545 69.335 724.545 66.885C724.545 65.9517 724.23 65.17 723.6 64.54C722.97 63.9333 722.224 63.5717 721.36 63.455C720.8 63.385 720.217 63.3033 719.61 63.21C719.027 63.14 718.444 63.07 717.86 63C717.3 62.93 716.775 62.8717 716.285 62.825C715.795 62.7783 715.399 62.7317 715.095 62.685C713.789 62.545 712.797 62.195 712.12 61.635C711.444 61.075 711.105 60.305 711.105 59.325C711.105 58.5083 711.444 57.785 712.12 57.155C712.797 56.525 713.649 56.1283 714.675 55.965V55.825C714.162 55.615 713.684 55.3233 713.24 54.95C712.797 54.5533 712.412 54.11 712.085 53.62C711.782 53.13 711.537 52.605 711.35 52.045C711.164 51.4617 711.07 50.8667 711.07 50.26C711.07 49.3733 711.234 48.5567 711.56 47.81C711.91 47.0633 712.389 46.4217 712.995 45.885C713.625 45.325 714.36 44.8933 715.2 44.59C716.04 44.2633 716.962 44.1 717.965 44.1C718.992 44.1 719.96 44.2633 720.87 44.59C721.78 44.8933 722.562 45.3483 723.215 45.955C724.009 45.3017 724.709 44.835 725.315 44.555C725.922 44.2517 726.494 44.1 727.03 44.1C727.87 44.1 728.535 44.2983 729.025 44.695C729.539 45.0683 729.795 45.5817 729.795 46.235C729.795 46.6317 729.655 46.9467 729.375 47.18C729.119 47.4133 728.792 47.53 728.395 47.53C728.069 47.53 727.8 47.4717 727.59 47.355C727.38 47.2383 727.182 47.1217 726.995 47.005C726.832 46.865 726.657 46.7367 726.47 46.62C726.284 46.5033 726.05 46.445 725.77 46.445C725.21 46.445 724.639 46.6433 724.055 47.04C724.615 47.9033 724.895 48.9883 724.895 50.295C724.895 52.2783 724.277 53.8417 723.04 54.985C721.804 56.105 719.949 56.7583 717.475 56.945C716.052 57.0617 715.06 57.2133 714.5 57.4C713.94 57.5867 713.66 57.925 713.66 58.415C713.66 58.7883 713.87 59.0683 714.29 59.255C714.71 59.4183 715.329 59.5233 716.145 59.57ZM736.993 57.505C736.993 58.4617 737.016 59.22 737.063 59.78C737.109 60.3167 737.226 60.7367 737.413 61.04C737.623 61.32 737.914 61.5067 738.288 61.6C738.684 61.6933 739.221 61.7633 739.898 61.81V63H730.728V61.81C731.381 61.7633 731.894 61.6933 732.268 61.6C732.664 61.5067 732.968 61.32 733.178 61.04C733.388 60.76 733.516 60.3633 733.563 59.85C733.633 59.3367 733.668 58.6367 733.668 57.75V53.095C733.668 50.3183 733.598 48.6267 733.458 48.02C733.388 47.7167 733.294 47.4717 733.178 47.285C733.084 47.075 732.933 46.9233 732.723 46.83C732.513 46.7133 732.244 46.6433 731.918 46.62C731.591 46.5733 731.171 46.55 730.658 46.55V45.43L736.258 44.1L736.678 47.565H736.818C737.704 46.4683 738.743 45.6167 739.933 45.01C741.123 44.4033 742.418 44.1 743.818 44.1C744.891 44.1 745.871 44.275 746.758 44.625C747.644 44.975 748.321 45.4533 748.788 46.06C749.184 46.5967 749.464 47.2967 749.628 48.16C749.791 49 749.873 50.1667 749.873 51.66V57.505C749.873 58.4617 749.896 59.22 749.943 59.78C750.013 60.3167 750.141 60.7367 750.328 61.04C750.514 61.32 750.794 61.5067 751.168 61.6C751.564 61.6933 752.078 61.7633 752.708 61.81V63H743.643V61.81C744.296 61.7867 744.809 61.7283 745.183 61.635C745.579 61.5183 745.871 61.32 746.058 61.04C746.268 60.76 746.396 60.3633 746.443 59.85C746.513 59.3133 746.548 58.6133 746.548 57.75V53.13C746.548 51.8 746.478 50.68 746.338 49.77C746.198 48.86 745.964 48.125 745.638 47.565C745.334 47.005 744.926 46.6083 744.413 46.375C743.899 46.1183 743.281 45.99 742.558 45.99C741.508 45.99 740.539 46.27 739.653 46.83C738.789 47.3667 738.113 48.1133 737.623 49.07C737.506 49.3033 737.401 49.525 737.308 49.735C737.238 49.945 737.179 50.19 737.133 50.47C737.086 50.75 737.051 51.0767 737.028 51.45C737.004 51.8 736.993 52.255 736.993 52.815V57.505ZM761.543 57.435C761.543 58.345 761.578 59.08 761.648 59.64C761.742 60.1767 761.905 60.6083 762.138 60.935C762.372 61.2383 762.698 61.4483 763.118 61.565C763.538 61.6817 764.098 61.7517 764.798 61.775V63H754.753V61.775C755.453 61.7517 756.025 61.6817 756.468 61.565C756.912 61.425 757.25 61.215 757.483 60.935C757.74 60.6317 757.903 60.2233 757.973 59.71C758.067 59.1733 758.113 58.4967 758.113 57.68V53.2C758.113 51.8467 758.09 50.7383 758.043 49.875C758.02 48.9883 757.962 48.3817 757.868 48.055C757.752 47.5183 757.483 47.1567 757.063 46.97C756.643 46.76 755.85 46.655 754.683 46.655V45.43L761.543 44.1V57.435ZM757.518 36.995C757.518 36.3883 757.728 35.875 758.148 35.455C758.568 35.035 759.082 34.825 759.688 34.825C760.295 34.825 760.808 35.035 761.228 35.455C761.648 35.875 761.858 36.3883 761.858 36.995C761.858 37.6017 761.648 38.115 761.228 38.535C760.808 38.955 760.295 39.165 759.688 39.165C759.082 39.165 758.568 38.955 758.148 38.535C757.728 38.115 757.518 37.6017 757.518 36.995ZM782.922 63H766.122V62.86L778.232 45.92H774.347C773.344 45.92 772.516 45.9667 771.862 46.06C771.232 46.13 770.707 46.2933 770.287 46.55C769.891 46.7833 769.587 47.1217 769.377 47.565C769.167 47.985 769.004 48.5567 768.887 49.28H767.767L768.327 44.45H783.377V44.59L771.442 61.39H775.537C776.727 61.39 777.707 61.3433 778.477 61.25C779.271 61.1567 779.912 60.97 780.402 60.69C780.916 60.41 781.312 60.025 781.592 59.535C781.896 59.045 782.152 58.3917 782.362 57.575H783.517L782.922 63ZM803.245 59.745C801.261 62.1483 798.8 63.35 795.86 63.35C794.483 63.35 793.235 63.1283 792.115 62.685C790.995 62.2183 790.026 61.5767 789.21 60.76C788.416 59.92 787.798 58.9283 787.355 57.785C786.911 56.6183 786.69 55.335 786.69 53.935C786.69 52.5117 786.923 51.1933 787.39 49.98C787.856 48.7667 788.51 47.7283 789.35 46.865C790.213 46.0017 791.228 45.325 792.395 44.835C793.585 44.345 794.88 44.1 796.28 44.1C798.543 44.1 800.293 44.7183 801.53 45.955C802.766 47.1683 803.385 48.9183 803.385 51.205C803.385 51.5317 803.315 51.73 803.175 51.8C803.058 51.87 802.766 51.905 802.3 51.905H790.785C790.738 52.0917 790.703 52.325 790.68 52.605C790.656 52.8617 790.645 53.1533 790.645 53.48C790.645 54.6933 790.785 55.8017 791.065 56.805C791.368 57.785 791.788 58.625 792.325 59.325C792.885 60.025 793.538 60.5733 794.285 60.97C795.055 61.3433 795.906 61.53 796.84 61.53C797.82 61.53 798.73 61.32 799.57 60.9C800.41 60.4567 801.273 59.745 802.16 58.765L803.245 59.745ZM797.47 50.295C797.936 50.295 798.31 50.2833 798.59 50.26C798.87 50.2367 799.08 50.19 799.22 50.12C799.36 50.05 799.453 49.9567 799.5 49.84C799.546 49.7 799.57 49.525 799.57 49.315C799.57 48.2417 799.22 47.39 798.52 46.76C797.843 46.1067 796.91 45.78 795.72 45.78C793.2 45.78 791.636 47.285 791.03 50.295H797.47ZM822.647 57.505C822.647 58.4617 822.67 59.22 822.717 59.78C822.764 60.3167 822.88 60.7367 823.067 61.04C823.277 61.32 823.569 61.5067 823.942 61.6C824.339 61.6933 824.875 61.7633 825.552 61.81V63H816.382V61.81C817.035 61.7633 817.549 61.6933 817.922 61.6C818.319 61.5067 818.622 61.32 818.832 61.04C819.042 60.76 819.17 60.3633 819.217 59.85C819.287 59.3367 819.322 58.6367 819.322 57.75V53.095C819.322 50.3183 819.252 48.6267 819.112 48.02C819.042 47.7167 818.949 47.4717 818.832 47.285C818.739 47.075 818.587 46.9233 818.377 46.83C818.167 46.7133 817.899 46.6433 817.572 46.62C817.245 46.5733 816.825 46.55 816.312 46.55V45.43L821.912 44.1L822.332 47.565H822.472C823.359 46.4683 824.397 45.6167 825.587 45.01C826.777 44.4033 828.072 44.1 829.472 44.1C830.545 44.1 831.525 44.275 832.412 44.625C833.299 44.975 833.975 45.4533 834.442 46.06C834.839 46.5967 835.119 47.2967 835.282 48.16C835.445 49 835.527 50.1667 835.527 51.66V57.505C835.527 58.4617 835.55 59.22 835.597 59.78C835.667 60.3167 835.795 60.7367 835.982 61.04C836.169 61.32 836.449 61.5067 836.822 61.6C837.219 61.6933 837.732 61.7633 838.362 61.81V63H829.297V61.81C829.95 61.7867 830.464 61.7283 830.837 61.635C831.234 61.5183 831.525 61.32 831.712 61.04C831.922 60.76 832.05 60.3633 832.097 59.85C832.167 59.3133 832.202 58.6133 832.202 57.75V53.13C832.202 51.8 832.132 50.68 831.992 49.77C831.852 48.86 831.619 48.125 831.292 47.565C830.989 47.005 830.58 46.6083 830.067 46.375C829.554 46.1183 828.935 45.99 828.212 45.99C827.162 45.99 826.194 46.27 825.307 46.83C824.444 47.3667 823.767 48.1133 823.277 49.07C823.16 49.3033 823.055 49.525 822.962 49.735C822.892 49.945 822.834 50.19 822.787 50.47C822.74 50.75 822.705 51.0767 822.682 51.45C822.659 51.8 822.647 52.255 822.647 52.815V57.505ZM855.423 50.05C855.423 49.0933 855.399 48.3467 855.353 47.81C855.306 47.25 855.178 46.83 854.968 46.55C854.781 46.2467 854.489 46.0483 854.093 45.955C853.719 45.8383 853.194 45.745 852.518 45.675V44.45H858.853V55.195C858.853 56.525 858.864 57.61 858.888 58.45C858.934 59.29 858.993 59.92 859.063 60.34C859.109 60.6433 859.179 60.8883 859.273 61.075C859.389 61.2383 859.553 61.3783 859.763 61.495C859.973 61.5883 860.241 61.6583 860.568 61.705C860.918 61.7283 861.361 61.74 861.898 61.74V62.965L856.123 63.385L855.738 59.185H855.598C854.711 60.6317 853.684 61.6933 852.518 62.37C851.374 63.0233 850.173 63.35 848.913 63.35C847.933 63.35 846.976 63.1633 846.043 62.79C845.133 62.4167 844.444 61.915 843.978 61.285C843.581 60.7717 843.289 60.06 843.103 59.15C842.939 58.24 842.858 57.0617 842.858 55.615V50.05C842.858 49.0933 842.834 48.3467 842.788 47.81C842.741 47.25 842.613 46.83 842.403 46.55C842.216 46.2467 841.924 46.0483 841.528 45.955C841.154 45.8383 840.629 45.745 839.953 45.675V44.45H846.288V54.005C846.288 56.5483 846.579 58.3917 847.163 59.535C847.769 60.6783 848.726 61.25 850.033 61.25C852.086 61.25 853.684 59.9083 854.828 57.225C854.944 56.945 855.038 56.6883 855.108 56.455C855.178 56.2217 855.236 55.965 855.283 55.685C855.329 55.405 855.364 55.09 855.388 54.74C855.411 54.39 855.423 53.97 855.423 53.48V50.05ZM870.4 57.4C870.4 58.38 870.423 59.15 870.47 59.71C870.517 60.27 870.633 60.7017 870.82 61.005C871.03 61.285 871.322 61.4717 871.695 61.565C872.068 61.6583 872.593 61.7283 873.27 61.775V63H863.96V61.775C864.637 61.7283 865.173 61.6583 865.57 61.565C865.967 61.4717 866.27 61.285 866.48 61.005C866.69 60.725 866.818 60.3283 866.865 59.815C866.935 59.2783 866.97 58.5667 866.97 57.68V53.2C866.97 51.87 866.947 50.7617 866.9 49.875C866.877 48.9883 866.818 48.3817 866.725 48.055C866.655 47.7517 866.573 47.5183 866.48 47.355C866.387 47.1683 866.235 47.0283 866.025 46.935C865.815 46.8183 865.535 46.7483 865.185 46.725C864.858 46.6783 864.427 46.655 863.89 46.655V45.43L869.595 44.1L870.05 47.6H870.225C871.275 46.41 872.372 45.535 873.515 44.975C874.682 44.3917 875.965 44.1 877.365 44.1C878.835 44.1 880.072 44.4033 881.075 45.01C882.078 45.5933 882.778 46.445 883.175 47.565H883.315C884.178 46.4683 885.228 45.6167 886.465 45.01C887.702 44.4033 889.02 44.1 890.42 44.1C891.517 44.1 892.508 44.2867 893.395 44.66C894.305 45.01 894.993 45.5 895.46 46.13C895.88 46.6667 896.172 47.3783 896.335 48.265C896.522 49.1283 896.615 50.3183 896.615 51.835V57.4C896.615 58.3567 896.638 59.115 896.685 59.675C896.755 60.235 896.883 60.6667 897.07 60.97C897.257 61.2733 897.537 61.4717 897.91 61.565C898.307 61.6583 898.843 61.7283 899.52 61.775V63H890.21V61.775C890.863 61.7517 891.388 61.6933 891.785 61.6C892.182 61.4833 892.485 61.285 892.695 61.005C892.905 60.7017 893.033 60.2933 893.08 59.78C893.15 59.2667 893.185 58.5667 893.185 57.68V53.27C893.185 51.94 893.115 50.82 892.975 49.91C892.835 48.9767 892.602 48.23 892.275 47.67C891.948 47.0867 891.517 46.6667 890.98 46.41C890.467 46.1533 889.837 46.025 889.09 46.025C888.063 46.025 887.095 46.3167 886.185 46.9C885.298 47.46 884.598 48.2183 884.085 49.175C883.968 49.4083 883.863 49.6417 883.77 49.875C883.7 50.085 883.642 50.33 883.595 50.61C883.548 50.8667 883.513 51.1817 883.49 51.555C883.49 51.9283 883.49 52.395 883.49 52.955V57.4C883.49 58.3567 883.513 59.115 883.56 59.675C883.607 60.235 883.723 60.6667 883.91 60.97C884.12 61.2733 884.423 61.4717 884.82 61.565C885.217 61.6583 885.753 61.7283 886.43 61.775V63H877.12V61.775C877.773 61.7283 878.298 61.6583 878.695 61.565C879.092 61.4717 879.383 61.285 879.57 61.005C879.78 60.725 879.908 60.3283 879.955 59.815C880.025 59.2783 880.06 58.5667 880.06 57.68V53.27C880.06 51.9167 879.99 50.785 879.85 49.875C879.71 48.9417 879.477 48.195 879.15 47.635C878.847 47.0517 878.438 46.6433 877.925 46.41C877.412 46.1533 876.782 46.025 876.035 46.025C874.985 46.025 873.993 46.3167 873.06 46.9C872.15 47.46 871.462 48.2183 870.995 49.175C870.878 49.4083 870.773 49.6417 870.68 49.875C870.61 50.085 870.552 50.33 870.505 50.61C870.458 50.8667 870.423 51.1817 870.4 51.555C870.4 51.9283 870.4 52.395 870.4 52.955V57.4ZM906.844 55.685C906.844 56.5717 906.972 57.3883 907.229 58.135C907.485 58.8583 907.835 59.4883 908.279 60.025C908.745 60.5383 909.294 60.9467 909.924 61.25C910.577 61.5533 911.277 61.705 912.024 61.705C912.84 61.705 913.575 61.5183 914.229 61.145C914.905 60.7717 915.477 60.2467 915.944 59.57C916.434 58.87 916.807 58.0417 917.064 57.085C917.344 56.105 917.484 55.02 917.484 53.83C917.484 52.64 917.344 51.555 917.064 50.575C916.784 49.5717 916.399 48.72 915.909 48.02C915.419 47.2967 914.824 46.7367 914.124 46.34C913.447 45.9433 912.7 45.745 911.884 45.745C910.927 45.745 910.075 45.9783 909.329 46.445C908.582 46.8883 908.01 47.5183 907.614 48.335C907.1 49.3617 906.844 50.7733 906.844 52.57V55.685ZM906.774 46.935H906.914C907.66 45.955 908.477 45.2433 909.364 44.8C910.274 44.3333 911.324 44.1 912.514 44.1C913.774 44.1 914.94 44.345 916.014 44.835C917.11 45.325 918.055 46.0017 918.849 46.865C919.665 47.7283 920.295 48.755 920.739 49.945C921.205 51.1117 921.439 52.3717 921.439 53.725C921.439 55.1017 921.205 56.385 920.739 57.575C920.272 58.7417 919.63 59.7567 918.814 60.62C918.02 61.4833 917.075 62.16 915.979 62.65C914.882 63.14 913.692 63.385 912.409 63.385C911.079 63.385 909.83 63.14 908.664 62.65C907.52 62.16 906.575 61.495 905.829 60.655L904.184 63H903.414V41.86C903.414 39.5033 903.262 37.9983 902.959 37.345C902.889 37.1817 902.807 37.0533 902.714 36.96C902.62 36.8433 902.48 36.75 902.294 36.68C902.107 36.5867 901.85 36.505 901.524 36.435C901.197 36.365 900.754 36.295 900.194 36.225V35.35L906.774 33.95V46.935ZM941.399 59.745C939.416 62.1483 936.954 63.35 934.014 63.35C932.637 63.35 931.389 63.1283 930.269 62.685C929.149 62.2183 928.181 61.5767 927.364 60.76C926.571 59.92 925.952 58.9283 925.509 57.785C925.066 56.6183 924.844 55.335 924.844 53.935C924.844 52.5117 925.077 51.1933 925.544 49.98C926.011 48.7667 926.664 47.7283 927.504 46.865C928.367 46.0017 929.382 45.325 930.549 44.835C931.739 44.345 933.034 44.1 934.434 44.1C936.697 44.1 938.447 44.7183 939.684 45.955C940.921 47.1683 941.539 48.9183 941.539 51.205C941.539 51.5317 941.469 51.73 941.329 51.8C941.212 51.87 940.921 51.905 940.454 51.905H928.939C928.892 52.0917 928.857 52.325 928.834 52.605C928.811 52.8617 928.799 53.1533 928.799 53.48C928.799 54.6933 928.939 55.8017 929.219 56.805C929.522 57.785 929.942 58.625 930.479 59.325C931.039 60.025 931.692 60.5733 932.439 60.97C933.209 61.3433 934.061 61.53 934.994 61.53C935.974 61.53 936.884 61.32 937.724 60.9C938.564 60.4567 939.427 59.745 940.314 58.765L941.399 59.745ZM935.624 50.295C936.091 50.295 936.464 50.2833 936.744 50.26C937.024 50.2367 937.234 50.19 937.374 50.12C937.514 50.05 937.607 49.9567 937.654 49.84C937.701 49.7 937.724 49.525 937.724 49.315C937.724 48.2417 937.374 47.39 936.674 46.76C935.997 46.1067 935.064 45.78 933.874 45.78C931.354 45.78 929.791 47.285 929.184 50.295H935.624ZM950.962 57.435C950.962 58.3917 950.986 59.15 951.032 59.71C951.079 60.27 951.196 60.7017 951.382 61.005C951.592 61.285 951.884 61.4717 952.257 61.565C952.631 61.6583 953.156 61.7283 953.832 61.775V63H944.522V61.775C945.199 61.7517 945.736 61.6933 946.132 61.6C946.529 61.4833 946.832 61.285 947.042 61.005C947.252 60.725 947.381 60.3283 947.427 59.815C947.497 59.2783 947.532 58.5667 947.532 57.68V53.585C947.532 51.9983 947.509 50.7617 947.462 49.875C947.439 48.9883 947.322 48.335 947.112 47.915C946.926 47.495 946.622 47.25 946.202 47.18C945.782 47.0867 945.199 47.04 944.452 47.04V45.815L950.577 44.485L951.067 48.825H951.207C951.511 48.125 951.884 47.4833 952.327 46.9C952.794 46.3167 953.296 45.8267 953.832 45.43C954.369 45.01 954.929 44.6833 955.512 44.45C956.096 44.2167 956.691 44.1 957.297 44.1C958.044 44.1 958.627 44.2867 959.047 44.66C959.491 45.01 959.712 45.4883 959.712 46.095C959.712 46.655 959.537 47.0983 959.187 47.425C958.837 47.7283 958.336 47.88 957.682 47.88C957.309 47.88 956.994 47.8333 956.737 47.74C956.481 47.6467 956.247 47.5533 956.037 47.46C955.851 47.3433 955.664 47.2383 955.477 47.145C955.314 47.0517 955.127 47.005 954.917 47.005C954.287 47.005 953.657 47.4133 953.027 48.23C952.397 49.0233 951.907 50.0383 951.557 51.275C951.371 51.9517 951.219 52.7217 951.102 53.585C951.009 54.425 950.962 55.3117 950.962 56.245V57.435ZM962.882 63H962.112V56.98H962.987C963.897 60.27 965.554 61.915 967.957 61.915C968.89 61.915 969.625 61.6933 970.162 61.25C970.722 60.7833 971.002 60.0833 971.002 59.15C971.002 58.8 970.944 58.5083 970.827 58.275C970.734 58.0183 970.535 57.7617 970.232 57.505C969.952 57.225 969.544 56.91 969.007 56.56C968.494 56.21 967.805 55.7667 966.942 55.23C966.149 54.74 965.46 54.285 964.877 53.865C964.294 53.445 963.804 53.025 963.407 52.605C963.01 52.1617 962.707 51.695 962.497 51.205C962.31 50.715 962.217 50.1433 962.217 49.49C962.217 48.6967 962.345 47.9733 962.602 47.32C962.882 46.6433 963.255 46.0717 963.722 45.605C964.189 45.1383 964.737 44.7767 965.367 44.52C965.997 44.24 966.685 44.1 967.432 44.1C968.062 44.1 968.715 44.205 969.392 44.415C970.069 44.6017 970.664 44.8583 971.177 45.185L971.877 44.45H972.542V49.49H971.632C971.119 48.0667 970.559 47.0517 969.952 46.445C969.345 45.8383 968.599 45.535 967.712 45.535C966.919 45.535 966.277 45.745 965.787 46.165C965.32 46.585 965.087 47.1683 965.087 47.915C965.087 48.3117 965.145 48.6617 965.262 48.965C965.402 49.245 965.612 49.525 965.892 49.805C966.172 50.085 966.522 50.3767 966.942 50.68C967.385 50.96 967.91 51.2867 968.517 51.66C969.52 52.29 970.372 52.85 971.072 53.34C971.795 53.83 972.379 54.32 972.822 54.81C973.265 55.2767 973.592 55.7667 973.802 56.28C974.012 56.7933 974.117 57.3767 974.117 58.03C974.117 59.6867 973.58 60.9933 972.507 61.95C971.434 62.8833 970.022 63.35 968.272 63.35C966.452 63.35 964.889 62.825 963.582 61.775L962.882 63ZM51.77 88.01H55.725V85.49C55.725 82.8067 56.425 80.7183 57.825 79.225C59.2483 77.7083 61.2667 76.95 63.88 76.95C65.3267 76.95 66.505 77.1717 67.415 77.615C68.325 78.0583 68.78 78.63 68.78 79.33C68.78 79.7967 68.6283 80.1933 68.325 80.52C68.045 80.8233 67.6833 80.975 67.24 80.975C66.96 80.975 66.6567 80.8933 66.33 80.73C66.0267 80.5433 65.6183 80.24 65.105 79.82C64.5217 79.33 64.0667 79.015 63.74 78.875C63.4133 78.7117 63.0283 78.63 62.585 78.63C61.185 78.63 60.1817 79.3417 59.575 80.765C59.365 81.2317 59.2133 81.8033 59.12 82.48C59.05 83.1567 59.015 84.09 59.015 85.28V88.01H64.65V89.655H59.015V100.365C59.015 101.228 59.0617 101.94 59.155 102.5C59.2717 103.06 59.4583 103.515 59.715 103.865C59.995 104.192 60.3683 104.425 60.835 104.565C61.3017 104.682 61.9083 104.752 62.655 104.775V106H52.715V104.775C53.3683 104.752 53.8933 104.693 54.29 104.6C54.6867 104.483 54.99 104.285 55.2 104.005C55.41 103.702 55.55 103.293 55.62 102.78C55.69 102.243 55.725 101.532 55.725 100.645V89.655H51.77V88.01ZM76.3887 87.1C77.7187 87.1 78.9787 87.345 80.1687 87.835C81.3587 88.3017 82.397 88.955 83.2837 89.795C84.1937 90.635 84.9053 91.6383 85.4187 92.805C85.9553 93.9483 86.2237 95.2083 86.2237 96.585C86.2237 98.0083 85.9553 99.315 85.4187 100.505C84.9053 101.695 84.1937 102.722 83.2837 103.585C82.397 104.448 81.3587 105.125 80.1687 105.615C78.9787 106.105 77.7187 106.35 76.3887 106.35C75.082 106.35 73.8337 106.117 72.6437 105.65C71.477 105.16 70.4503 104.483 69.5637 103.62C68.677 102.757 67.977 101.73 67.4637 100.54C66.9503 99.3267 66.6937 98.0083 66.6937 96.585C66.6937 95.2083 66.9503 93.9367 67.4637 92.77C67.977 91.6033 68.677 90.6 69.5637 89.76C70.4503 88.92 71.477 88.2667 72.6437 87.8C73.8337 87.3333 75.082 87.1 76.3887 87.1ZM76.3887 88.78C75.5253 88.78 74.732 88.9667 74.0087 89.34C73.3087 89.7133 72.702 90.25 72.1887 90.95C71.6987 91.6267 71.3137 92.455 71.0337 93.435C70.777 94.3917 70.6487 95.4533 70.6487 96.62C70.6487 97.8333 70.777 98.93 71.0337 99.91C71.3137 100.89 71.6987 101.73 72.1887 102.43C72.702 103.107 73.3087 103.632 74.0087 104.005C74.7087 104.378 75.502 104.565 76.3887 104.565C77.2753 104.565 78.0803 104.378 78.8037 104.005C79.527 103.632 80.1453 103.095 80.6587 102.395C81.172 101.695 81.5687 100.855 81.8487 99.875C82.1287 98.895 82.2687 97.81 82.2687 96.62C82.2687 95.4533 82.1287 94.3917 81.8487 93.435C81.5687 92.4783 81.172 91.6617 80.6587 90.985C80.1453 90.285 79.527 89.7483 78.8037 89.375C78.0803 88.9783 77.2753 88.78 76.3887 88.78ZM104.119 93.05C104.119 92.0933 104.096 91.3467 104.049 90.81C104.002 90.25 103.874 89.83 103.664 89.55C103.477 89.2467 103.186 89.0483 102.789 88.955C102.416 88.8383 101.891 88.745 101.214 88.675V87.45H107.549V98.195C107.549 99.525 107.561 100.61 107.584 101.45C107.631 102.29 107.689 102.92 107.759 103.34C107.806 103.643 107.876 103.888 107.969 104.075C108.086 104.238 108.249 104.378 108.459 104.495C108.669 104.588 108.937 104.658 109.264 104.705C109.614 104.728 110.057 104.74 110.594 104.74V105.965L104.819 106.385L104.434 102.185H104.294C103.407 103.632 102.381 104.693 101.214 105.37C100.071 106.023 98.8691 106.35 97.6091 106.35C96.6291 106.35 95.6724 106.163 94.7391 105.79C93.8291 105.417 93.1407 104.915 92.6741 104.285C92.2774 103.772 91.9857 103.06 91.7991 102.15C91.6357 101.24 91.5541 100.062 91.5541 98.615V93.05C91.5541 92.0933 91.5307 91.3467 91.4841 90.81C91.4374 90.25 91.3091 89.83 91.0991 89.55C90.9124 89.2467 90.6207 89.0483 90.2241 88.955C89.8507 88.8383 89.3257 88.745 88.6491 88.675V87.45H94.9841V97.005C94.9841 99.5483 95.2757 101.392 95.8591 102.535C96.4657 103.678 97.4224 104.25 98.7291 104.25C100.782 104.25 102.381 102.908 103.524 100.225C103.641 99.945 103.734 99.6883 103.804 99.455C103.874 99.2217 103.932 98.965 103.979 98.685C104.026 98.405 104.061 98.09 104.084 97.74C104.107 97.39 104.119 96.97 104.119 96.48V93.05ZM118.921 100.505C118.921 101.462 118.945 102.22 118.991 102.78C119.038 103.317 119.155 103.737 119.341 104.04C119.551 104.32 119.843 104.507 120.216 104.6C120.613 104.693 121.15 104.763 121.826 104.81V106H112.656V104.81C113.31 104.763 113.823 104.693 114.196 104.6C114.593 104.507 114.896 104.32 115.106 104.04C115.316 103.76 115.445 103.363 115.491 102.85C115.561 102.337 115.596 101.637 115.596 100.75V96.095C115.596 93.3183 115.526 91.6267 115.386 91.02C115.316 90.7167 115.223 90.4717 115.106 90.285C115.013 90.075 114.861 89.9233 114.651 89.83C114.441 89.7133 114.173 89.6433 113.846 89.62C113.52 89.5733 113.1 89.55 112.586 89.55V88.43L118.186 87.1L118.606 90.565H118.746C119.633 89.4683 120.671 88.6167 121.861 88.01C123.051 87.4033 124.346 87.1 125.746 87.1C126.82 87.1 127.8 87.275 128.686 87.625C129.573 87.975 130.25 88.4533 130.716 89.06C131.113 89.5967 131.393 90.2967 131.556 91.16C131.72 92 131.801 93.1667 131.801 94.66V100.505C131.801 101.462 131.825 102.22 131.871 102.78C131.941 103.317 132.07 103.737 132.256 104.04C132.443 104.32 132.723 104.507 133.096 104.6C133.493 104.693 134.006 104.763 134.636 104.81V106H125.571V104.81C126.225 104.787 126.738 104.728 127.111 104.635C127.508 104.518 127.8 104.32 127.986 104.04C128.196 103.76 128.325 103.363 128.371 102.85C128.441 102.313 128.476 101.613 128.476 100.75V96.13C128.476 94.8 128.406 93.68 128.266 92.77C128.126 91.86 127.893 91.125 127.566 90.565C127.263 90.005 126.855 89.6083 126.341 89.375C125.828 89.1183 125.21 88.99 124.486 88.99C123.436 88.99 122.468 89.27 121.581 89.83C120.718 90.3667 120.041 91.1133 119.551 92.07C119.435 92.3033 119.33 92.525 119.236 92.735C119.166 92.945 119.108 93.19 119.061 93.47C119.015 93.75 118.98 94.0767 118.956 94.45C118.933 94.8 118.921 95.255 118.921 95.815V100.505ZM152.432 103.06H152.292C151.452 104.25 150.554 105.102 149.597 105.615C148.664 106.105 147.556 106.35 146.272 106.35C144.942 106.35 143.717 106.117 142.597 105.65C141.501 105.16 140.544 104.495 139.727 103.655C138.934 102.792 138.304 101.765 137.837 100.575C137.394 99.385 137.172 98.09 137.172 96.69C137.172 95.3133 137.394 94.0417 137.837 92.875C138.304 91.685 138.934 90.67 139.727 89.83C140.544 88.9667 141.512 88.3017 142.632 87.835C143.752 87.345 144.966 87.1 146.272 87.1C147.392 87.1 148.384 87.2867 149.247 87.66C150.134 88.0333 150.986 88.6283 151.802 89.445V85.875C151.802 84.545 151.779 83.4367 151.732 82.55C151.709 81.6633 151.662 81.0567 151.592 80.73C151.476 80.2167 151.149 79.855 150.612 79.645C150.076 79.435 149.201 79.33 147.987 79.33V78.28L155.162 76.95V97.145C155.162 98.755 155.174 100.085 155.197 101.135C155.221 102.162 155.291 102.897 155.407 103.34C155.477 103.62 155.559 103.853 155.652 104.04C155.769 104.227 155.921 104.378 156.107 104.495C156.317 104.588 156.586 104.658 156.912 104.705C157.262 104.752 157.706 104.775 158.242 104.775V105.965L152.432 106.35V103.06ZM151.732 95.325C151.732 94.1117 151.662 93.19 151.522 92.56C151.406 91.93 151.161 91.3817 150.787 90.915C150.251 90.215 149.562 89.69 148.722 89.34C147.906 88.9667 147.089 88.78 146.272 88.78C144.592 88.78 143.309 89.48 142.422 90.88C141.559 92.2567 141.127 94.135 141.127 96.515C141.127 97.7517 141.232 98.8717 141.442 99.875C141.676 100.878 142.002 101.742 142.422 102.465C142.866 103.165 143.402 103.713 144.032 104.11C144.686 104.483 145.432 104.67 146.272 104.67C146.692 104.67 147.112 104.623 147.532 104.53C147.976 104.437 148.396 104.297 148.792 104.11C149.212 103.9 149.597 103.667 149.947 103.41C150.297 103.13 150.589 102.815 150.822 102.465C151.149 101.952 151.382 101.333 151.522 100.61C151.662 99.8867 151.732 98.895 151.732 97.635V95.325ZM177.139 100.435C177.139 101.345 177.174 102.08 177.244 102.64C177.338 103.177 177.501 103.608 177.734 103.935C177.968 104.238 178.294 104.448 178.714 104.565C179.134 104.682 179.694 104.752 180.394 104.775V106H170.349V104.775C171.049 104.752 171.621 104.682 172.064 104.565C172.508 104.425 172.846 104.215 173.079 103.935C173.336 103.632 173.499 103.223 173.569 102.71C173.663 102.173 173.709 101.497 173.709 100.68V96.2C173.709 94.8467 173.686 93.7383 173.639 92.875C173.616 91.9883 173.558 91.3817 173.464 91.055C173.348 90.5183 173.079 90.1567 172.659 89.97C172.239 89.76 171.446 89.655 170.279 89.655V88.43L177.139 87.1V100.435ZM173.114 79.995C173.114 79.3883 173.324 78.875 173.744 78.455C174.164 78.035 174.678 77.825 175.284 77.825C175.891 77.825 176.404 78.035 176.824 78.455C177.244 78.875 177.454 79.3883 177.454 79.995C177.454 80.6017 177.244 81.115 176.824 81.535C176.404 81.955 175.891 82.165 175.284 82.165C174.678 82.165 174.164 81.955 173.744 81.535C173.324 81.115 173.114 80.6017 173.114 79.995ZM188.648 100.505C188.648 101.462 188.671 102.22 188.718 102.78C188.765 103.317 188.881 103.737 189.068 104.04C189.278 104.32 189.57 104.507 189.943 104.6C190.34 104.693 190.876 104.763 191.553 104.81V106H182.383V104.81C183.036 104.763 183.55 104.693 183.923 104.6C184.32 104.507 184.623 104.32 184.833 104.04C185.043 103.76 185.171 103.363 185.218 102.85C185.288 102.337 185.323 101.637 185.323 100.75V96.095C185.323 93.3183 185.253 91.6267 185.113 91.02C185.043 90.7167 184.95 90.4717 184.833 90.285C184.74 90.075 184.588 89.9233 184.378 89.83C184.168 89.7133 183.9 89.6433 183.573 89.62C183.246 89.5733 182.826 89.55 182.313 89.55V88.43L187.913 87.1L188.333 90.565H188.473C189.36 89.4683 190.398 88.6167 191.588 88.01C192.778 87.4033 194.073 87.1 195.473 87.1C196.546 87.1 197.526 87.275 198.413 87.625C199.3 87.975 199.976 88.4533 200.443 89.06C200.84 89.5967 201.12 90.2967 201.283 91.16C201.446 92 201.528 93.1667 201.528 94.66V100.505C201.528 101.462 201.551 102.22 201.598 102.78C201.668 103.317 201.796 103.737 201.983 104.04C202.17 104.32 202.45 104.507 202.823 104.6C203.22 104.693 203.733 104.763 204.363 104.81V106H195.298V104.81C195.951 104.787 196.465 104.728 196.838 104.635C197.235 104.518 197.526 104.32 197.713 104.04C197.923 103.76 198.051 103.363 198.098 102.85C198.168 102.313 198.203 101.613 198.203 100.75V96.13C198.203 94.8 198.133 93.68 197.993 92.77C197.853 91.86 197.62 91.125 197.293 90.565C196.99 90.005 196.581 89.6083 196.068 89.375C195.555 89.1183 194.936 88.99 194.213 88.99C193.163 88.99 192.195 89.27 191.308 89.83C190.445 90.3667 189.768 91.1133 189.278 92.07C189.161 92.3033 189.056 92.525 188.963 92.735C188.893 92.945 188.835 93.19 188.788 93.47C188.741 93.75 188.706 94.0767 188.683 94.45C188.66 94.8 188.648 95.255 188.648 95.815V100.505ZM223.248 100.435C223.248 101.345 223.283 102.08 223.353 102.64C223.446 103.177 223.609 103.608 223.843 103.935C224.076 104.238 224.403 104.448 224.823 104.565C225.243 104.682 225.803 104.752 226.503 104.775V106H216.458V104.775C217.158 104.752 217.729 104.682 218.173 104.565C218.616 104.425 218.954 104.215 219.188 103.935C219.444 103.632 219.608 103.223 219.678 102.71C219.771 102.173 219.818 101.497 219.818 100.68V96.2C219.818 94.8467 219.794 93.7383 219.748 92.875C219.724 91.9883 219.666 91.3817 219.573 91.055C219.456 90.5183 219.188 90.1567 218.768 89.97C218.348 89.76 217.554 89.655 216.388 89.655V88.43L223.248 87.1V100.435ZM219.223 79.995C219.223 79.3883 219.433 78.875 219.853 78.455C220.273 78.035 220.786 77.825 221.393 77.825C221.999 77.825 222.513 78.035 222.933 78.455C223.353 78.875 223.563 79.3883 223.563 79.995C223.563 80.6017 223.353 81.115 222.933 81.535C222.513 81.955 221.999 82.165 221.393 82.165C220.786 82.165 220.273 81.955 219.853 81.535C219.433 81.115 219.223 80.6017 219.223 79.995ZM234.931 100.4C234.931 101.38 234.955 102.15 235.001 102.71C235.048 103.27 235.165 103.702 235.351 104.005C235.561 104.285 235.853 104.472 236.226 104.565C236.6 104.658 237.125 104.728 237.801 104.775V106H228.491V104.775C229.168 104.728 229.705 104.658 230.101 104.565C230.498 104.472 230.801 104.285 231.011 104.005C231.221 103.725 231.35 103.328 231.396 102.815C231.466 102.278 231.501 101.567 231.501 100.68V96.2C231.501 94.87 231.478 93.7617 231.431 92.875C231.408 91.9883 231.35 91.3817 231.256 91.055C231.186 90.7517 231.105 90.5183 231.011 90.355C230.918 90.1683 230.766 90.0283 230.556 89.935C230.346 89.8183 230.066 89.7483 229.716 89.725C229.39 89.6783 228.958 89.655 228.421 89.655V88.43L234.126 87.1L234.581 90.6H234.756C235.806 89.41 236.903 88.535 238.046 87.975C239.213 87.3917 240.496 87.1 241.896 87.1C243.366 87.1 244.603 87.4033 245.606 88.01C246.61 88.5933 247.31 89.445 247.706 90.565H247.846C248.71 89.4683 249.76 88.6167 250.996 88.01C252.233 87.4033 253.551 87.1 254.951 87.1C256.048 87.1 257.04 87.2867 257.926 87.66C258.836 88.01 259.525 88.5 259.991 89.13C260.411 89.6667 260.703 90.3783 260.866 91.265C261.053 92.1283 261.146 93.3183 261.146 94.835V100.4C261.146 101.357 261.17 102.115 261.216 102.675C261.286 103.235 261.415 103.667 261.601 103.97C261.788 104.273 262.068 104.472 262.441 104.565C262.838 104.658 263.375 104.728 264.051 104.775V106H254.741V104.775C255.395 104.752 255.92 104.693 256.316 104.6C256.713 104.483 257.016 104.285 257.226 104.005C257.436 103.702 257.565 103.293 257.611 102.78C257.681 102.267 257.716 101.567 257.716 100.68V96.27C257.716 94.94 257.646 93.82 257.506 92.91C257.366 91.9767 257.133 91.23 256.806 90.67C256.48 90.0867 256.048 89.6667 255.511 89.41C254.998 89.1533 254.368 89.025 253.621 89.025C252.595 89.025 251.626 89.3167 250.716 89.9C249.83 90.46 249.13 91.2183 248.616 92.175C248.5 92.4083 248.395 92.6417 248.301 92.875C248.231 93.085 248.173 93.33 248.126 93.61C248.08 93.8667 248.045 94.1817 248.021 94.555C248.021 94.9283 248.021 95.395 248.021 95.955V100.4C248.021 101.357 248.045 102.115 248.091 102.675C248.138 103.235 248.255 103.667 248.441 103.97C248.651 104.273 248.955 104.472 249.351 104.565C249.748 104.658 250.285 104.728 250.961 104.775V106H241.651V104.775C242.305 104.728 242.83 104.658 243.226 104.565C243.623 104.472 243.915 104.285 244.101 104.005C244.311 103.725 244.44 103.328 244.486 102.815C244.556 102.278 244.591 101.567 244.591 100.68V96.27C244.591 94.9167 244.521 93.785 244.381 92.875C244.241 91.9417 244.008 91.195 243.681 90.635C243.378 90.0517 242.97 89.6433 242.456 89.41C241.943 89.1533 241.313 89.025 240.566 89.025C239.516 89.025 238.525 89.3167 237.591 89.9C236.681 90.46 235.993 91.2183 235.526 92.175C235.41 92.4083 235.305 92.6417 235.211 92.875C235.141 93.085 235.083 93.33 235.036 93.61C234.99 93.8667 234.955 94.1817 234.931 94.555C234.931 94.9283 234.931 95.395 234.931 95.955V100.4ZM276.975 95.64C275.645 96.1533 274.513 96.655 273.58 97.145C272.67 97.635 271.935 98.125 271.375 98.615C270.815 99.105 270.406 99.595 270.15 100.085C269.916 100.575 269.8 101.077 269.8 101.59C269.8 102.36 270.056 102.99 270.57 103.48C271.083 103.97 271.76 104.215 272.6 104.215C273.206 104.215 273.766 104.063 274.28 103.76C274.816 103.457 275.283 103.048 275.68 102.535C276.076 101.998 276.391 101.38 276.625 100.68C276.858 99.9567 276.975 99.1983 276.975 98.405V95.64ZM276.975 94.135V92.7C276.975 89.8533 275.761 88.43 273.335 88.43C272.938 88.43 272.6 88.465 272.32 88.535C272.04 88.605 271.806 88.7217 271.62 88.885C271.433 89.0483 271.258 89.2817 271.095 89.585C270.955 89.8883 270.815 90.2617 270.675 90.705C270.418 91.3817 270.161 91.8367 269.905 92.07C269.671 92.28 269.321 92.385 268.855 92.385C267.688 92.385 267.105 91.8017 267.105 90.635C267.105 89.515 267.7 88.6517 268.89 88.045C270.08 87.415 271.771 87.1 273.965 87.1C276.298 87.1 277.955 87.52 278.935 88.36C279.915 89.1767 280.405 90.5767 280.405 92.56V100.4C280.405 103.06 280.93 104.39 281.98 104.39C282.306 104.39 282.621 104.355 282.925 104.285C283.228 104.192 283.485 103.97 283.695 103.62L284.185 104.46C283.905 104.997 283.391 105.452 282.645 105.825C281.898 106.175 281.116 106.35 280.3 106.35C279.273 106.35 278.503 106.023 277.99 105.37C277.5 104.717 277.255 103.795 277.255 102.605H277.08C276.473 103.748 275.633 104.658 274.56 105.335C273.486 105.988 272.296 106.315 270.99 106.315C269.52 106.315 268.365 105.942 267.525 105.195C266.685 104.448 266.265 103.445 266.265 102.185C266.265 101.625 266.358 101.088 266.545 100.575C266.755 100.062 267.081 99.5717 267.525 99.105C267.968 98.6383 268.551 98.1833 269.275 97.74C269.998 97.2733 270.885 96.8067 271.935 96.34L276.975 94.135ZM293.73 98.475C294.71 98.475 295.468 98.0317 296.005 97.145C296.565 96.2583 296.845 95.01 296.845 93.4C296.845 91.8133 296.565 90.5883 296.005 89.725C295.468 88.8383 294.698 88.395 293.695 88.395C292.691 88.395 291.886 88.8383 291.28 89.725C290.696 90.6117 290.405 91.825 290.405 93.365C290.405 94.905 290.708 96.1417 291.315 97.075C291.921 98.0083 292.726 98.475 293.73 98.475ZM291.805 102.57C292.365 102.617 292.878 102.663 293.345 102.71C293.811 102.757 294.266 102.803 294.71 102.85C295.176 102.897 295.631 102.955 296.075 103.025C296.541 103.095 297.043 103.165 297.58 103.235C299.26 103.492 300.601 104.145 301.605 105.195C302.631 106.222 303.145 107.517 303.145 109.08C303.145 111.04 302.363 112.533 300.8 113.56C299.26 114.587 297.02 115.1 294.08 115.1C292.773 115.1 291.571 114.983 290.475 114.75C289.401 114.517 288.48 114.178 287.71 113.735C286.94 113.315 286.333 112.802 285.89 112.195C285.47 111.588 285.26 110.923 285.26 110.2C285.26 109.71 285.341 109.255 285.505 108.835C285.668 108.415 285.89 108.042 286.17 107.715C286.45 107.412 286.776 107.167 287.15 106.98C287.546 106.793 287.955 106.7 288.375 106.7C289.168 106.7 289.88 106.945 290.51 107.435C289.88 107.575 289.366 107.913 288.97 108.45C288.573 109.01 288.375 109.64 288.375 110.34C288.375 111.367 288.876 112.16 289.88 112.72C290.906 113.28 292.353 113.56 294.22 113.56C298.21 113.56 300.205 112.335 300.205 109.885C300.205 108.952 299.89 108.17 299.26 107.54C298.63 106.933 297.883 106.572 297.02 106.455C296.46 106.385 295.876 106.303 295.27 106.21C294.686 106.14 294.103 106.07 293.52 106C292.96 105.93 292.435 105.872 291.945 105.825C291.455 105.778 291.058 105.732 290.755 105.685C289.448 105.545 288.456 105.195 287.78 104.635C287.103 104.075 286.765 103.305 286.765 102.325C286.765 101.508 287.103 100.785 287.78 100.155C288.456 99.525 289.308 99.1283 290.335 98.965V98.825C289.821 98.615 289.343 98.3233 288.9 97.95C288.456 97.5533 288.071 97.11 287.745 96.62C287.441 96.13 287.196 95.605 287.01 95.045C286.823 94.4617 286.73 93.8667 286.73 93.26C286.73 92.3733 286.893 91.5567 287.22 90.81C287.57 90.0633 288.048 89.4217 288.655 88.885C289.285 88.325 290.02 87.8933 290.86 87.59C291.7 87.2633 292.621 87.1 293.625 87.1C294.651 87.1 295.62 87.2633 296.53 87.59C297.44 87.8933 298.221 88.3483 298.875 88.955C299.668 88.3017 300.368 87.835 300.975 87.555C301.581 87.2517 302.153 87.1 302.69 87.1C303.53 87.1 304.195 87.2983 304.685 87.695C305.198 88.0683 305.455 88.5817 305.455 89.235C305.455 89.6317 305.315 89.9467 305.035 90.18C304.778 90.4133 304.451 90.53 304.055 90.53C303.728 90.53 303.46 90.4717 303.25 90.355C303.04 90.2383 302.841 90.1217 302.655 90.005C302.491 89.865 302.316 89.7367 302.13 89.62C301.943 89.5033 301.71 89.445 301.43 89.445C300.87 89.445 300.298 89.6433 299.715 90.04C300.275 90.9033 300.555 91.9883 300.555 93.295C300.555 95.2783 299.936 96.8417 298.7 97.985C297.463 99.105 295.608 99.7583 293.135 99.945C291.711 100.062 290.72 100.213 290.16 100.4C289.6 100.587 289.32 100.925 289.32 101.415C289.32 101.788 289.53 102.068 289.95 102.255C290.37 102.418 290.988 102.523 291.805 102.57ZM323.191 102.745C321.208 105.148 318.746 106.35 315.806 106.35C314.429 106.35 313.181 106.128 312.061 105.685C310.941 105.218 309.973 104.577 309.156 103.76C308.363 102.92 307.744 101.928 307.301 100.785C306.858 99.6183 306.636 98.335 306.636 96.935C306.636 95.5117 306.869 94.1933 307.336 92.98C307.803 91.7667 308.456 90.7283 309.296 89.865C310.159 89.0017 311.174 88.325 312.341 87.835C313.531 87.345 314.826 87.1 316.226 87.1C318.489 87.1 320.239 87.7183 321.476 88.955C322.713 90.1683 323.331 91.9183 323.331 94.205C323.331 94.5317 323.261 94.73 323.121 94.8C323.004 94.87 322.713 94.905 322.246 94.905H310.731C310.684 95.0917 310.649 95.325 310.626 95.605C310.603 95.8617 310.591 96.1533 310.591 96.48C310.591 97.6933 310.731 98.8017 311.011 99.805C311.314 100.785 311.734 101.625 312.271 102.325C312.831 103.025 313.484 103.573 314.231 103.97C315.001 104.343 315.853 104.53 316.786 104.53C317.766 104.53 318.676 104.32 319.516 103.9C320.356 103.457 321.219 102.745 322.106 101.765L323.191 102.745ZM317.416 93.295C317.883 93.295 318.256 93.2833 318.536 93.26C318.816 93.2367 319.026 93.19 319.166 93.12C319.306 93.05 319.399 92.9567 319.446 92.84C319.493 92.7 319.516 92.525 319.516 92.315C319.516 91.2417 319.166 90.39 318.466 89.76C317.789 89.1067 316.856 88.78 315.666 88.78C313.146 88.78 311.583 90.285 310.976 93.295H317.416ZM327.994 106H327.224V99.98H328.099C329.009 103.27 330.666 104.915 333.069 104.915C334.003 104.915 334.738 104.693 335.274 104.25C335.834 103.783 336.114 103.083 336.114 102.15C336.114 101.8 336.056 101.508 335.939 101.275C335.846 101.018 335.648 100.762 335.344 100.505C335.064 100.225 334.656 99.91 334.119 99.56C333.606 99.21 332.918 98.7667 332.054 98.23C331.261 97.74 330.573 97.285 329.989 96.865C329.406 96.445 328.916 96.025 328.519 95.605C328.123 95.1617 327.819 94.695 327.609 94.205C327.423 93.715 327.329 93.1433 327.329 92.49C327.329 91.6967 327.458 90.9733 327.714 90.32C327.994 89.6433 328.368 89.0717 328.834 88.605C329.301 88.1383 329.849 87.7767 330.479 87.52C331.109 87.24 331.798 87.1 332.544 87.1C333.174 87.1 333.828 87.205 334.504 87.415C335.181 87.6017 335.776 87.8583 336.289 88.185L336.989 87.45H337.654V92.49H336.744C336.231 91.0667 335.671 90.0517 335.064 89.445C334.458 88.8383 333.711 88.535 332.824 88.535C332.031 88.535 331.389 88.745 330.899 89.165C330.433 89.585 330.199 90.1683 330.199 90.915C330.199 91.3117 330.258 91.6617 330.374 91.965C330.514 92.245 330.724 92.525 331.004 92.805C331.284 93.085 331.634 93.3767 332.054 93.68C332.498 93.96 333.023 94.2867 333.629 94.66C334.633 95.29 335.484 95.85 336.184 96.34C336.908 96.83 337.491 97.32 337.934 97.81C338.378 98.2767 338.704 98.7667 338.914 99.28C339.124 99.7933 339.229 100.377 339.229 101.03C339.229 102.687 338.693 103.993 337.619 104.95C336.546 105.883 335.134 106.35 333.384 106.35C331.564 106.35 330.001 105.825 328.694 104.775L327.994 106ZM343.223 104.075C343.223 103.422 343.445 102.873 343.888 102.43C344.331 101.987 344.868 101.765 345.498 101.765C346.151 101.765 346.7 101.987 347.143 102.43C347.586 102.873 347.808 103.422 347.808 104.075C347.808 104.705 347.586 105.242 347.143 105.685C346.7 106.128 346.151 106.35 345.498 106.35C344.868 106.35 344.331 106.128 343.888 105.685C343.445 105.242 343.223 104.705 343.223 104.075Z" fill="black"/>
<defs>
<filter id="filter0_d_49_47" x="0" y="0" width="1054" height="156" filterUnits="userSpaceOnUse" color-interpolation-filters="sRGB">
<feFlood flood-opacity="0" result="BackgroundImageFix"/>
<feColorMatrix in="SourceAlpha" type="matrix" values="0 0 0 0 0 0 0 0 0 0 0 0 0 0 0 0 0 0 127 0" result="hardAlpha"/>
<feOffset dx="-1" dy="1"/>
<feGaussianBlur stdDeviation="1"/>
<feComposite in2="hardAlpha" operator="out"/>
<feColorMatrix type="matrix" values="0 0 0 0 0 0 0 0 0 0 0 0 0 0 0 0 0 0 0.25 0"/>
<feBlend mode="normal" in2="BackgroundImageFix" result="effect1_dropShadow_49_47"/>
<feBlend mode="normal" in="SourceGraphic" in2="effect1_dropShadow_49_47" result="shape"/>
</filter>
</defs>
</svg>
