<svg width="553" height="516" viewBox="0 0 553 516" fill="none" xmlns="http://www.w3.org/2000/svg">
<path d="M372.633 365.415H174.325C157.656 365.415 144.095 351.854 144.095 335.185V136.877C144.095 120.208 157.656 106.647 174.325 106.647H372.633C389.302 106.647 402.863 120.208 402.863 136.877V335.185C402.863 351.854 389.302 365.415 372.633 365.415ZM174.325 111.484C160.301 111.484 148.932 122.853 148.932 136.877V335.185C148.932 349.209 160.301 360.578 174.325 360.578H313.235C360.064 360.578 398.026 322.616 398.026 275.787V136.877C398.026 122.853 386.657 111.484 372.633 111.484H174.325V111.484Z" fill="#F2F2F2"/>
<path d="M195.704 132.106C186.319 132.106 178.683 139.741 178.683 149.127V175.769C178.683 185.155 186.319 192.79 195.704 192.79H222.346C231.732 192.79 239.367 185.155 239.367 175.769V149.127C239.367 139.741 231.732 132.106 222.346 132.106H195.704Z" fill="#F2F2F2"/>
<path d="M195.704 207.106C186.319 207.106 178.683 214.741 178.683 224.127V250.769C178.683 260.155 186.319 267.79 195.704 267.79H222.346C231.732 267.79 239.367 260.155 239.367 250.769V224.127C239.367 214.741 231.732 207.106 222.346 207.106H195.704Z" fill="#F2F2F2"/>
<path d="M195.704 282.106C186.319 282.106 178.683 289.741 178.683 299.127V325.769C178.683 335.155 186.319 342.79 195.704 342.79H222.346C231.732 342.79 239.367 335.155 239.367 325.769V299.127C239.367 289.741 231.732 282.106 222.346 282.106H195.704Z" fill="#F2F2F2"/>
<path d="M213.372 67.1061C201.545 67.1061 191.924 76.7269 191.924 88.5532V122.123C191.924 133.949 201.545 143.57 213.372 143.57H246.941C258.767 143.57 268.388 133.949 268.388 122.123V88.5532C268.388 76.7269 258.767 67.1061 246.941 67.1061H213.372Z" fill="#003BA3"/>
<path d="M323.89 160.919C312.064 160.919 302.443 170.539 302.443 182.366V215.935C302.443 227.761 312.064 237.382 323.89 237.382H357.46C369.286 237.382 378.907 227.761 378.907 215.935V182.366C378.907 170.539 369.286 160.919 357.46 160.919H323.89Z" fill="#003BA3"/>
<path d="M275.842 498.808L269.023 498.75L266.004 471.833L276.069 471.917L275.842 498.808Z" fill="#A0616A"/>
<path d="M253.998 509.652C253.983 511.331 255.336 512.713 257.021 512.728L270.58 512.841L272.954 508.03L273.826 512.866L278.942 512.912L277.65 495.664L275.87 495.545L268.61 495.045L266.267 494.888L266.226 499.768L255.334 507.156C254.505 507.719 254.006 508.651 253.998 509.652H253.998Z" fill="#2F2E41"/>
<path d="M310.54 498.808L303.72 498.75L300.702 471.833L310.767 471.917L310.54 498.808Z" fill="#A0616A"/>
<path d="M288.696 509.652C288.681 511.331 290.034 512.713 291.719 512.728L305.278 512.841L307.652 508.03L308.523 512.866L313.64 512.912L312.348 495.664L310.568 495.545L303.307 495.045L300.965 494.888L300.924 499.768L290.032 507.156C289.203 507.719 288.704 508.651 288.696 509.652Z" fill="#2F2E41"/>
<path d="M249.081 281.178L276.725 282.051L302.913 287.871C302.913 287.871 300.294 291.072 309.024 299.801C309.024 299.801 320.663 320.17 312.516 339.957L309.024 419.105C309.024 419.105 319.205 474.898 311.426 492.656L301.145 493.298L283.749 419.748L275.27 340.539L271.196 418.523C271.196 418.523 286.781 472.049 276.939 493.298L265.805 492.656L246.753 418.523C246.753 418.523 238.606 332.973 239.77 316.678C240.934 300.383 249.081 281.178 249.081 281.178H249.081Z" fill="#2F2E41"/>
<path d="M341.914 156.113C338.135 157.091 335.865 160.948 336.843 164.727C337.292 166.458 338.348 167.867 339.721 168.798L339.72 168.807L339.184 181.792L349.121 186.391L349.914 166.409L349.845 166.411C350.707 164.876 351.004 163.022 350.528 161.183C349.55 157.404 345.693 155.134 341.914 156.113V156.113Z" fill="#A0616A"/>
<path d="M360.461 219.31V227H326.418V220.438L342.517 203.177C344.134 201.377 345.41 199.793 346.345 198.426C347.279 197.036 347.951 195.794 348.361 194.7C348.794 193.584 349.011 192.524 349.011 191.521C349.011 190.018 348.76 188.73 348.259 187.659C347.757 186.565 347.017 185.722 346.037 185.13C345.08 184.537 343.895 184.241 342.482 184.241C340.979 184.241 339.68 184.606 338.586 185.335C337.515 186.064 336.695 187.078 336.125 188.377C335.578 189.676 335.305 191.146 335.305 192.786H325.427C325.427 189.824 326.133 187.112 327.546 184.651C328.959 182.168 330.952 180.197 333.527 178.738C336.102 177.257 339.156 176.517 342.688 176.517C346.174 176.517 349.113 177.086 351.506 178.226C353.921 179.342 355.744 180.96 356.975 183.079C358.228 185.175 358.854 187.682 358.854 190.599C358.854 192.239 358.592 193.846 358.068 195.418C357.544 196.967 356.792 198.517 355.812 200.066C354.855 201.593 353.693 203.143 352.326 204.715C350.959 206.287 349.444 207.916 347.78 209.603L339.133 219.31H360.461Z" fill="#FCF7F7"/>
<path d="M286.378 202.455C284.291 200.386 283.08 197.58 283.034 194.53C282.973 190.438 285.024 186.723 288.52 184.595C292.545 182.143 297.579 182.391 301.345 185.226L332.548 208.719L338.108 174.875L350.044 178.718L347.196 222.788C346.997 225.87 345.255 228.586 342.536 230.052C339.816 231.518 336.59 231.481 333.905 229.954L288.813 204.299C287.907 203.783 287.091 203.162 286.378 202.455V202.455Z" fill="#3F3D56"/>
<path d="M238.799 137.182C240.794 140.537 239.691 144.875 236.335 146.869C234.798 147.783 233.056 148.04 231.426 147.734L231.419 147.741L222.658 157.34L212.364 153.61L225.869 138.861L225.916 138.912C226.385 137.215 227.479 135.688 229.112 134.718C232.467 132.723 236.805 133.826 238.799 137.182Z" fill="#A0616A"/>
<path d="M198.501 167.845H203.765C205.451 167.845 206.841 167.56 207.935 166.99C209.028 166.398 209.837 165.577 210.361 164.529C210.908 163.458 211.182 162.216 211.182 160.804C211.182 159.528 210.931 158.4 210.43 157.42C209.951 156.417 209.211 155.643 208.208 155.096C207.205 154.526 205.941 154.241 204.414 154.241C203.206 154.241 202.09 154.48 201.064 154.959C200.039 155.438 199.219 156.11 198.604 156.976C197.988 157.841 197.681 158.89 197.681 160.12H187.803C187.803 157.386 188.532 155.005 189.99 152.977C191.471 150.949 193.454 149.365 195.938 148.226C198.421 147.086 201.156 146.517 204.141 146.517C207.513 146.517 210.464 147.063 212.993 148.157C215.522 149.228 217.493 150.812 218.906 152.908C220.319 155.005 221.025 157.602 221.025 160.701C221.025 162.273 220.661 163.8 219.932 165.281C219.202 166.74 218.154 168.061 216.787 169.246C215.443 170.408 213.802 171.342 211.865 172.049C209.928 172.732 207.752 173.074 205.337 173.074H198.501V167.845ZM198.501 175.33V170.237H205.337C208.049 170.237 210.43 170.545 212.48 171.16C214.531 171.775 216.252 172.664 217.642 173.826C219.032 174.965 220.08 176.321 220.786 177.894C221.493 179.443 221.846 181.163 221.846 183.055C221.846 185.379 221.401 187.452 220.513 189.275C219.624 191.076 218.371 192.602 216.753 193.855C215.158 195.109 213.289 196.066 211.147 196.727C209.006 197.365 206.67 197.684 204.141 197.684C202.044 197.684 199.982 197.399 197.954 196.829C195.949 196.237 194.126 195.359 192.485 194.197C190.868 193.012 189.569 191.531 188.589 189.754C187.632 187.954 187.153 185.823 187.153 183.362H197.031C197.031 184.638 197.35 185.778 197.988 186.78C198.626 187.783 199.504 188.569 200.62 189.139C201.759 189.708 203.024 189.993 204.414 189.993C205.986 189.993 207.331 189.708 208.447 189.139C209.587 188.546 210.452 187.726 211.045 186.678C211.66 185.607 211.968 184.365 211.968 182.952C211.968 181.129 211.637 179.671 210.977 178.577C210.316 177.461 209.37 176.64 208.14 176.116C206.909 175.592 205.451 175.33 203.765 175.33H198.501Z" fill="black"/>
<path d="M242.584 208.787L192.498 195.258C189.516 194.453 187.2 192.207 186.301 189.252C185.402 186.296 186.077 183.141 188.105 180.812L217.111 147.511L228.293 153.186L208.413 181.135L247.112 186.419C251.782 187.057 255.532 190.425 256.664 195.001C257.648 198.974 256.489 203.055 253.565 205.918C251.385 208.053 248.55 209.192 245.611 209.192C244.607 209.192 243.59 209.059 242.584 208.787H242.584Z" fill="#3F3D56"/>
<path d="M313.989 292.822L243.951 296.035C242.027 293.114 242.548 288.722 245.242 283.221C255.413 262.454 247.689 223.167 242.492 202.71C241.034 196.97 244.948 191.264 250.841 190.674L257.444 190.014L263.549 171.38H284.927L293.797 181.513L308.849 190.657C306.109 218.877 294.435 258.727 311.066 278.712C314.703 283.083 315.734 287.809 313.989 292.822Z" fill="#3F3D56"/>
<path d="M271.519 171.81C283.019 171.81 292.342 162.487 292.342 150.987C292.342 139.486 283.019 130.163 271.519 130.163C260.018 130.163 250.695 139.486 250.695 150.987C250.695 162.487 260.018 171.81 271.519 171.81Z" fill="#A0616A"/>
<path d="M295.082 137.658C297.98 127.095 266.403 118.037 260.267 126.543C259.414 125.334 256.26 124.599 254.813 124.97C253.367 125.341 252.15 126.269 250.963 127.166C249.33 128.42 247.639 129.719 246.637 131.522C245.628 133.317 245.472 135.766 246.83 137.324C247.906 138.563 249.796 145.147 251.414 145.474C252.542 145.704 253.491 145.889 254.307 146.023C255.035 144.962 256.889 143.629 256.755 142.345C257.853 143.072 257.452 144.352 257.231 145.659C256.494 150.013 239.884 183.714 249.397 173.783C250.34 174.34 251.504 174.859 252.847 175.334C255.125 171.899 256.995 167.848 258.226 163.611L258.235 163.689C258.659 167.371 261.35 170.392 264.909 171.423C279.189 175.56 290.739 169.49 294.713 158.543C293.258 155.59 292.624 155.911 292.755 155.823C294.57 154.599 297.066 155.4 297.847 157.446C298.077 158.049 298.286 158.564 298.467 158.951C300.537 151.547 302.999 152.615 295.082 137.658H295.082Z" fill="#2F2E41"/>
<path d="M285.231 129.994L283.773 122.537C283.65 121.91 283.534 121.23 283.816 120.657C284.18 119.921 285.113 119.616 285.925 119.734C286.738 119.851 287.345 120.593 288.153 120.736C290.963 121.232 294.677 118.457 295.684 125.478C296.104 128.405 300.775 128.715 302.335 131.227C303.895 133.739 304.086 137.366 301.957 139.418C300.257 141.057 297.526 141.246 295.318 140.409C293.109 139.572 291.337 137.88 289.789 136.097C288.241 134.313 286.839 132.383 285.053 130.837" fill="#2F2E41"/>
<path d="M296.195 141.336C290.497 140.54 286.613 138.468 284.651 135.177C282.083 130.87 283.803 126.127 283.878 125.927L285.082 126.375C285.066 126.418 283.506 130.76 285.762 134.53C287.516 137.463 291.087 139.325 296.372 140.063L296.195 141.336Z" fill="#6C63FF"/>
<path d="M322.934 60.7623C306.183 60.7623 292.553 47.1323 292.553 30.3812C292.553 13.63 306.183 0 322.934 0C339.685 0 353.315 13.63 353.315 30.3812C353.315 47.1323 339.685 60.7623 322.934 60.7623ZM322.934 12.1525C312.882 12.1525 304.705 20.3293 304.705 30.3812C304.705 40.4331 312.882 48.6099 322.934 48.6099C332.986 48.6099 341.163 40.4331 341.163 30.3812C341.163 20.3293 332.986 12.1525 322.934 12.1525Z" fill="#003BA3"/>
<path d="M369.677 81.409C368.188 81.409 366.696 80.8661 365.524 79.7654L337.009 53.0424C334.558 50.749 334.434 46.9039 336.73 44.4562C339.02 41.9996 342.866 41.8779 345.316 44.1773L373.831 70.9002C376.282 73.1937 376.406 77.0388 374.11 79.4865C372.914 80.7652 371.297 81.409 369.677 81.409Z" fill="#003BA3"/>
<path d="M0 514.269C0 514.929 0.53003 515.459 1.19006 515.459H551.48C552.14 515.459 552.67 514.929 552.67 514.269C552.67 513.609 552.14 513.079 551.48 513.079H1.19006C0.53003 513.079 0 513.609 0 514.269Z" fill="#CCCCCC"/>
<path d="M236.412 82.1318V132H226.568V93.4795L214.742 97.2393V89.4805L235.353 82.1318H236.412Z" fill="white"/>
<path d="M222.281 245.406V253.131H186.427L185.948 247.149L206.695 214.234H214.522L206.046 228.419L195.724 245.406H222.281ZM216.642 214.234V264H206.798V214.234H216.642Z" fill="black"/>
<path d="M198.681 318.339L190.819 316.459L193.656 291.234H221.615V299.198H201.757L200.526 310.238C201.187 309.851 202.19 309.441 203.534 309.008C204.879 308.552 206.382 308.324 208.046 308.324C210.461 308.324 212.603 308.7 214.472 309.452C216.34 310.204 217.924 311.298 219.223 312.733C220.544 314.169 221.547 315.924 222.23 317.997C222.914 320.071 223.256 322.418 223.256 325.038C223.256 327.248 222.914 329.356 222.23 331.361C221.547 333.344 220.51 335.121 219.12 336.693C217.73 338.243 215.987 339.462 213.891 340.351C211.794 341.239 209.311 341.684 206.439 341.684C204.298 341.684 202.224 341.365 200.219 340.727C198.236 340.089 196.448 339.143 194.853 337.89C193.28 336.636 192.016 335.121 191.059 333.344C190.124 331.544 189.634 329.493 189.589 327.191H199.364C199.501 328.604 199.866 329.823 200.458 330.849C201.073 331.851 201.882 332.626 202.885 333.173C203.887 333.72 205.061 333.993 206.405 333.993C207.659 333.993 208.729 333.754 209.618 333.275C210.507 332.797 211.225 332.136 211.771 331.293C212.318 330.427 212.717 329.424 212.968 328.285C213.241 327.123 213.378 325.87 213.378 324.525C213.378 323.181 213.218 321.962 212.899 320.868C212.58 319.774 212.09 318.829 211.43 318.031C210.769 317.234 209.926 316.618 208.9 316.186C207.898 315.753 206.724 315.536 205.38 315.536C203.557 315.536 202.144 315.821 201.142 316.391C200.162 316.96 199.341 317.61 198.681 318.339Z" fill="black"/>
</svg>
