<svg width="193" height="72" viewBox="0 0 193 72" fill="none" xmlns="http://www.w3.org/2000/svg">
<path fill-rule="evenodd" clip-rule="evenodd" d="M52.3791 63.2903H11.6209C5.20276 63.2903 0 58.0821 0 51.6576V11.6325C0 5.20819 5.20276 3.43323e-05 11.6209 3.43323e-05H52.3791C58.797 3.43323e-05 64 5.20819 64 11.6325V51.6576C64 58.0821 58.797 63.2903 52.3791 63.2903Z" fill="white"/>
<path fill-rule="evenodd" clip-rule="evenodd" d="M33.4738 7.50043C32.9837 7.59123 31.4693 7.90883 30.1331 8.18124C19.9328 10.2689 11.9151 20.6157 11.8706 31.689C11.8706 42.6259 18.8638 52.0198 29.4649 55.1512C33.1173 56.195 38.8635 56.1042 42.6049 54.9242C47.6828 53.336 47.6383 53.5176 44.3867 47.8902C42.4267 44.4411 41.4024 43.0797 40.9569 43.2613C40.6006 43.3973 38.9524 43.6697 37.3489 43.8057C29.643 44.4865 20.6456 40.1753 16.2804 33.731L14.9439 31.7342L16.2804 29.7374C20.6899 23.2026 29.5985 18.9821 37.3489 19.6627C38.9524 19.7989 40.6006 20.0257 40.9569 20.2073C41.4024 20.3435 42.3822 19.0273 44.3421 15.6691C45.812 13.0371 47.0591 10.7679 47.0591 10.6319C47.0591 10.2232 43.7632 8.72584 41.714 8.22663C39.2643 7.63663 34.6762 7.22823 33.4738 7.50043Z" fill="#003BA3"/>
<path fill-rule="evenodd" clip-rule="evenodd" d="M32.3156 26.8784C31.3359 27.559 30.5786 28.603 30.133 29.8282C29.5541 31.5075 29.5541 31.9613 30.133 33.6405C31.9593 38.9499 39.4426 38.9499 41.2687 33.6405C41.8477 31.9613 41.8477 31.5075 41.2687 29.8282C40.4224 27.3776 38.2843 25.8346 35.7009 25.8346C34.4982 25.8346 33.2956 26.1978 32.3156 26.8784Z" fill="#003BA3"/>
<path d="M93.45 21.6694C94.2833 21.6694 95.0833 21.8111 95.85 22.0944C96.6333 22.3611 97.3333 22.7278 97.95 23.1944C98.5667 23.6611 99.075 24.2028 99.475 24.8194C99.875 25.4361 100.125 26.0944 100.225 26.7944C100.258 26.9444 100.258 27.0444 100.225 27.0944C100.208 27.1444 100.15 27.1694 100.05 27.1694L98.175 27.3194C98.0917 27.3361 98.0333 27.3194 98 27.2694C97.9667 27.2194 97.9417 27.1528 97.925 27.0694C97.6917 26.0028 97.1833 25.1444 96.4 24.4944C95.6333 23.8278 94.675 23.4944 93.525 23.4944C91.7917 23.4944 90.4583 24.1361 89.525 25.4194C88.5917 26.7028 88.125 28.6361 88.125 31.2194C88.125 33.7194 88.5833 35.6111 89.5 36.8944C90.4167 38.1778 91.8 38.8194 93.65 38.8194C94.8333 38.8194 95.8167 38.5361 96.6 37.9694C97.4 37.4028 98.0417 36.4944 98.525 35.2444C98.575 35.1444 98.675 35.1111 98.825 35.1444L100.3 35.4944C100.35 35.5111 100.392 35.5444 100.425 35.5944C100.458 35.6444 100.458 35.7278 100.425 35.8444C100.292 36.3278 100.083 36.8028 99.8 37.2694C99.5333 37.7361 99.2 38.1778 98.8 38.5944C98.4 38.9944 97.9333 39.3611 97.4 39.6944C96.8667 40.0111 96.275 40.2611 95.625 40.4444C94.9917 40.6278 94.3 40.7194 93.55 40.7194C91.9 40.7194 90.475 40.3361 89.275 39.5694C88.0917 38.8028 87.1833 37.7028 86.55 36.2694C85.9333 34.8361 85.625 33.1361 85.625 31.1694C85.625 29.2028 85.9333 27.5111 86.55 26.0944C87.1833 24.6611 88.0833 23.5694 89.25 22.8194C90.4333 22.0528 91.8333 21.6694 93.45 21.6694ZM106.701 31.7944C106.567 31.7944 106.501 31.8611 106.501 31.9944V40.0944C106.501 40.3444 106.359 40.4694 106.076 40.4694H104.451C104.317 40.4694 104.226 40.4444 104.176 40.3944C104.126 40.3278 104.101 40.2361 104.101 40.1194V22.2694C104.101 22.0361 104.201 21.9194 104.401 21.9194H106.201C106.401 21.9194 106.501 22.0278 106.501 22.2444V29.5944C106.501 29.7944 106.592 29.8944 106.776 29.8944H114.976C115.142 29.8944 115.226 29.7944 115.226 29.5944V22.2194C115.226 22.0194 115.317 21.9194 115.501 21.9194H117.326C117.526 21.9194 117.626 22.0361 117.626 22.2694V40.1194C117.626 40.2361 117.601 40.3278 117.551 40.3944C117.501 40.4444 117.409 40.4694 117.276 40.4694H115.651C115.367 40.4694 115.226 40.3444 115.226 40.0944V32.0194C115.226 31.8694 115.151 31.7944 115.001 31.7944H106.701ZM124.585 21.9194C124.785 21.9194 124.885 22.0278 124.885 22.2444V40.0444C124.885 40.2111 124.851 40.3278 124.785 40.3944C124.718 40.4444 124.601 40.4694 124.435 40.4694H122.86C122.71 40.4694 122.61 40.4444 122.56 40.3944C122.51 40.3444 122.485 40.2528 122.485 40.1194V22.2694C122.485 22.0361 122.585 21.9194 122.785 21.9194H124.585ZM129.736 22.2694C129.736 22.0361 129.836 21.9194 130.036 21.9194H141.036C141.202 21.9194 141.286 22.0111 141.286 22.1944V23.4694C141.286 23.6694 141.177 23.7694 140.961 23.7694H132.461C132.244 23.7694 132.136 23.8694 132.136 24.0694V30.2194C132.136 30.4028 132.227 30.4944 132.411 30.4944H139.086C139.269 30.4944 139.361 30.5778 139.361 30.7444V32.0694C139.361 32.2194 139.269 32.2944 139.086 32.2944H132.411C132.227 32.2944 132.136 32.3861 132.136 32.5694V40.1444C132.136 40.3611 132.019 40.4694 131.786 40.4694H130.086C129.952 40.4694 129.861 40.4444 129.811 40.3944C129.761 40.3444 129.736 40.2528 129.736 40.1194V22.2694ZM144.75 22.2694C144.75 22.0361 144.85 21.9194 145.05 21.9194H156.05C156.217 21.9194 156.3 22.0111 156.3 22.1944V23.4694C156.3 23.6694 156.192 23.7694 155.975 23.7694H147.475C147.259 23.7694 147.15 23.8694 147.15 24.0694V30.2194C147.15 30.4028 147.242 30.4944 147.425 30.4944H154.1C154.284 30.4944 154.375 30.5778 154.375 30.7444V32.0694C154.375 32.2194 154.284 32.2944 154.1 32.2944H147.425C147.242 32.2944 147.15 32.3861 147.15 32.5694V40.1444C147.15 40.3611 147.034 40.4694 146.8 40.4694H145.1C144.967 40.4694 144.875 40.4444 144.825 40.3944C144.775 40.3444 144.75 40.2528 144.75 40.1194V22.2694ZM173.015 39.9944C173.065 40.1111 173.057 40.2194 172.99 40.3194C172.94 40.4194 172.857 40.4694 172.74 40.4694H170.915C170.732 40.4694 170.598 40.3694 170.515 40.1694L167.29 32.2944C167.207 32.1111 167.007 32.0194 166.69 32.0194H162.465C162.348 32.0194 162.265 32.0444 162.215 32.0944C162.182 32.1444 162.165 32.2111 162.165 32.2944V40.0694C162.165 40.3361 162.023 40.4694 161.74 40.4694H160.115C159.982 40.4694 159.89 40.4444 159.84 40.3944C159.79 40.3278 159.765 40.2444 159.765 40.1444V22.2694C159.765 22.0361 159.865 21.9194 160.065 21.9194H167.04C169.007 21.9194 170.532 22.3278 171.615 23.1444C172.715 23.9444 173.265 25.1361 173.265 26.7194C173.265 27.6694 173.082 28.4778 172.715 29.1444C172.348 29.7944 171.882 30.3194 171.315 30.7194C170.765 31.1028 170.198 31.3861 169.615 31.5694C169.482 31.5861 169.448 31.6694 169.515 31.8194L173.015 39.9944ZM166.34 30.2694C167.807 30.2694 168.907 30.0028 169.64 29.4694C170.39 28.9361 170.765 28.0944 170.765 26.9444C170.765 25.8278 170.432 25.0028 169.765 24.4694C169.115 23.9361 168.165 23.6694 166.915 23.6694H162.515C162.282 23.6694 162.165 23.7611 162.165 23.9444V29.9444C162.165 30.1611 162.24 30.2694 162.39 30.2694H166.34ZM175.561 40.4694C175.461 40.4694 175.386 40.4361 175.336 40.3694C175.302 40.2861 175.302 40.1778 175.336 40.0444L181.811 22.2694C181.861 22.1528 181.919 22.0694 181.986 22.0194C182.052 21.9528 182.161 21.9194 182.311 21.9194H184.261C184.561 21.9194 184.752 22.0444 184.836 22.2944L191.236 40.0444C191.269 40.1444 191.261 40.2444 191.211 40.3444C191.177 40.4278 191.102 40.4694 190.986 40.4694H189.211C189.011 40.4694 188.877 40.3861 188.811 40.2194L187.086 35.3694C187.052 35.3028 187.019 35.2528 186.986 35.2194C186.952 35.1861 186.886 35.1694 186.786 35.1694H179.511C179.361 35.1694 179.261 35.2361 179.211 35.3694L177.436 40.2444C177.419 40.3111 177.377 40.3694 177.311 40.4194C177.261 40.4528 177.177 40.4694 177.061 40.4694H175.561ZM186.136 33.2694C186.336 33.2694 186.402 33.1611 186.336 32.9444L183.336 24.7194C183.269 24.5694 183.202 24.4944 183.136 24.4944C183.086 24.4944 183.036 24.5694 182.986 24.7194L179.936 32.9944C179.852 33.1778 179.902 33.2694 180.086 33.2694H186.136Z" fill="white"/>
</svg>
