<svg width="671" height="549" viewBox="0 0 671 549" fill="none" xmlns="http://www.w3.org/2000/svg">
<path d="M325.555 110.454C303.405 110.454 285.428 127.29 285.428 148.034C285.428 168.778 303.405 185.614 325.555 185.614C347.706 185.614 365.683 168.778 365.683 148.034C365.683 127.29 347.706 110.454 325.555 110.454ZM314.681 164.156L300.275 150.665C298.71 149.199 298.71 146.831 300.275 145.366C301.84 143.9 304.368 143.9 305.933 145.366L317.53 156.189L345.138 130.334C346.703 128.868 349.231 128.868 350.796 130.334C352.36 131.799 352.36 134.167 350.796 135.632L320.339 164.156C318.814 165.622 316.246 165.622 314.681 164.156Z" fill="#12D76E"/>
<path d="M212.206 226.435V252.463H209.722C209.338 252.463 209.014 252.403 208.75 252.283C208.498 252.151 208.252 251.935 208.012 251.635L194.422 234.283C194.494 235.075 194.53 235.807 194.53 236.479V252.463H190.264V226.435H192.802C193.006 226.435 193.18 226.447 193.324 226.471C193.48 226.483 193.612 226.519 193.72 226.579C193.84 226.627 193.954 226.705 194.062 226.813C194.17 226.909 194.29 227.041 194.422 227.209L208.066 244.633C208.03 244.213 208 243.799 207.976 243.391C207.952 242.983 207.94 242.605 207.94 242.257V226.435H212.206ZM232.86 233.995V252.463H230.142C229.554 252.463 229.182 252.193 229.026 251.653L228.72 250.177C227.964 250.945 227.13 251.569 226.218 252.049C225.306 252.517 224.232 252.751 222.996 252.751C221.988 252.751 221.094 252.583 220.314 252.247C219.546 251.899 218.898 251.413 218.37 250.789C217.842 250.165 217.44 249.427 217.164 248.575C216.9 247.711 216.768 246.763 216.768 245.731V233.995H221.214V245.731C221.214 246.859 221.472 247.735 221.988 248.359C222.516 248.971 223.302 249.277 224.346 249.277C225.114 249.277 225.834 249.109 226.506 248.773C227.178 248.425 227.814 247.951 228.414 247.351V233.995H232.86ZM237.269 252.463V233.995H239.987C240.563 233.995 240.941 234.265 241.121 234.805L241.409 236.173C241.733 235.813 242.069 235.483 242.417 235.183C242.777 234.883 243.155 234.625 243.551 234.409C243.959 234.193 244.391 234.025 244.847 233.905C245.315 233.773 245.825 233.707 246.377 233.707C247.541 233.707 248.495 234.025 249.239 234.661C249.995 235.285 250.559 236.119 250.931 237.163C251.219 236.551 251.579 236.029 252.011 235.597C252.443 235.153 252.917 234.793 253.433 234.517C253.949 234.241 254.495 234.037 255.071 233.905C255.659 233.773 256.247 233.707 256.835 233.707C257.855 233.707 258.761 233.863 259.553 234.175C260.345 234.487 261.011 234.943 261.551 235.543C262.091 236.143 262.499 236.875 262.775 237.739C263.063 238.603 263.207 239.593 263.207 240.709V252.463H258.761V240.709C258.761 239.533 258.503 238.651 257.987 238.063C257.471 237.463 256.715 237.163 255.719 237.163C255.263 237.163 254.837 237.241 254.441 237.397C254.057 237.553 253.715 237.781 253.415 238.081C253.127 238.369 252.899 238.735 252.731 239.179C252.563 239.623 252.479 240.133 252.479 240.709V252.463H248.015V240.709C248.015 239.473 247.763 238.573 247.259 238.009C246.767 237.445 246.041 237.163 245.081 237.163C244.433 237.163 243.827 237.325 243.263 237.649C242.711 237.961 242.195 238.393 241.715 238.945V252.463H237.269ZM271.879 247.675C272.383 248.287 272.929 248.719 273.517 248.971C274.117 249.223 274.747 249.349 275.407 249.349C276.091 249.349 276.703 249.229 277.243 248.989C277.795 248.737 278.263 248.353 278.647 247.837C279.031 247.309 279.325 246.643 279.529 245.839C279.733 245.023 279.835 244.051 279.835 242.923C279.835 240.895 279.499 239.431 278.827 238.531C278.155 237.619 277.189 237.163 275.929 237.163C275.077 237.163 274.333 237.361 273.697 237.757C273.061 238.141 272.455 238.687 271.879 239.395V247.675ZM271.879 236.263C272.623 235.483 273.445 234.865 274.345 234.409C275.257 233.941 276.295 233.707 277.459 233.707C278.527 233.707 279.487 233.917 280.339 234.337C281.203 234.757 281.935 235.363 282.535 236.155C283.147 236.935 283.615 237.883 283.939 238.999C284.263 240.115 284.425 241.369 284.425 242.761C284.425 244.261 284.239 245.623 283.867 246.847C283.495 248.071 282.961 249.121 282.265 249.997C281.581 250.861 280.753 251.533 279.781 252.013C278.809 252.493 277.729 252.733 276.541 252.733C275.965 252.733 275.443 252.673 274.975 252.553C274.507 252.445 274.075 252.289 273.679 252.085C273.283 251.881 272.917 251.635 272.581 251.347C272.257 251.047 271.945 250.717 271.645 250.357L271.447 251.599C271.375 251.911 271.249 252.133 271.069 252.265C270.901 252.397 270.667 252.463 270.367 252.463H267.433V225.715H271.879V236.263ZM299.756 241.105C299.756 240.529 299.672 239.989 299.504 239.485C299.348 238.969 299.108 238.519 298.784 238.135C298.46 237.751 298.046 237.451 297.542 237.235C297.05 237.007 296.474 236.893 295.814 236.893C294.53 236.893 293.516 237.259 292.772 237.991C292.04 238.723 291.572 239.761 291.368 241.105H299.756ZM291.278 243.787C291.35 244.735 291.518 245.557 291.782 246.253C292.046 246.937 292.394 247.507 292.826 247.963C293.258 248.407 293.768 248.743 294.356 248.971C294.956 249.187 295.616 249.295 296.336 249.295C297.056 249.295 297.674 249.211 298.19 249.043C298.718 248.875 299.174 248.689 299.558 248.485C299.954 248.281 300.296 248.095 300.584 247.927C300.884 247.759 301.172 247.675 301.448 247.675C301.82 247.675 302.096 247.813 302.276 248.089L303.554 249.709C303.062 250.285 302.51 250.771 301.898 251.167C301.286 251.551 300.644 251.863 299.972 252.103C299.312 252.331 298.634 252.493 297.938 252.589C297.254 252.685 296.588 252.733 295.94 252.733C294.656 252.733 293.462 252.523 292.358 252.103C291.254 251.671 290.294 251.041 289.478 250.213C288.662 249.373 288.02 248.341 287.552 247.117C287.084 245.881 286.85 244.453 286.85 242.833C286.85 241.573 287.054 240.391 287.462 239.287C287.87 238.171 288.452 237.205 289.208 236.389C289.976 235.561 290.906 234.907 291.998 234.427C293.102 233.947 294.344 233.707 295.724 233.707C296.888 233.707 297.962 233.893 298.946 234.265C299.93 234.637 300.776 235.183 301.484 235.903C302.192 236.611 302.744 237.487 303.14 238.531C303.548 239.563 303.752 240.745 303.752 242.077C303.752 242.749 303.68 243.205 303.536 243.445C303.392 243.673 303.116 243.787 302.708 243.787H291.278ZM311.283 237.199C311.859 236.095 312.543 235.231 313.335 234.607C314.127 233.971 315.063 233.653 316.143 233.653C316.995 233.653 317.679 233.839 318.195 234.211L317.907 237.541C317.847 237.757 317.757 237.913 317.637 238.009C317.529 238.093 317.379 238.135 317.187 238.135C317.007 238.135 316.737 238.105 316.377 238.045C316.029 237.985 315.687 237.955 315.351 237.955C314.859 237.955 314.421 238.027 314.037 238.171C313.653 238.315 313.305 238.525 312.993 238.801C312.693 239.065 312.423 239.389 312.183 239.773C311.955 240.157 311.739 240.595 311.535 241.087V252.463H307.089V233.995H309.699C310.155 233.995 310.473 234.079 310.653 234.247C310.833 234.403 310.953 234.691 311.013 235.111L311.283 237.199ZM352.313 239.449C352.313 241.357 351.995 243.109 351.359 244.705C350.723 246.301 349.829 247.675 348.677 248.827C347.525 249.979 346.139 250.873 344.519 251.509C342.899 252.145 341.099 252.463 339.119 252.463H329.201V226.435H339.119C341.099 226.435 342.899 226.759 344.519 227.407C346.139 228.043 347.525 228.937 348.677 230.089C349.829 231.229 350.723 232.597 351.359 234.193C351.995 235.789 352.313 237.541 352.313 239.449ZM347.345 239.449C347.345 238.021 347.153 236.743 346.769 235.615C346.397 234.475 345.851 233.515 345.131 232.735C344.423 231.943 343.559 231.337 342.539 230.917C341.531 230.497 340.391 230.287 339.119 230.287H334.061V248.611H339.119C340.391 248.611 341.531 248.401 342.539 247.981C343.559 247.561 344.423 246.961 345.131 246.181C345.851 245.389 346.397 244.429 346.769 243.301C347.153 242.161 347.345 240.877 347.345 239.449ZM367.538 241.105C367.538 240.529 367.454 239.989 367.286 239.485C367.13 238.969 366.89 238.519 366.566 238.135C366.242 237.751 365.828 237.451 365.324 237.235C364.832 237.007 364.256 236.893 363.596 236.893C362.312 236.893 361.298 237.259 360.554 237.991C359.822 238.723 359.354 239.761 359.15 241.105H367.538ZM359.06 243.787C359.132 244.735 359.3 245.557 359.564 246.253C359.828 246.937 360.176 247.507 360.608 247.963C361.04 248.407 361.55 248.743 362.138 248.971C362.738 249.187 363.398 249.295 364.118 249.295C364.838 249.295 365.456 249.211 365.972 249.043C366.5 248.875 366.956 248.689 367.34 248.485C367.736 248.281 368.078 248.095 368.366 247.927C368.666 247.759 368.954 247.675 369.23 247.675C369.602 247.675 369.878 247.813 370.058 248.089L371.336 249.709C370.844 250.285 370.292 250.771 369.68 251.167C369.068 251.551 368.426 251.863 367.754 252.103C367.094 252.331 366.416 252.493 365.72 252.589C365.036 252.685 364.37 252.733 363.722 252.733C362.438 252.733 361.244 252.523 360.14 252.103C359.036 251.671 358.076 251.041 357.26 250.213C356.444 249.373 355.802 248.341 355.334 247.117C354.866 245.881 354.632 244.453 354.632 242.833C354.632 241.573 354.836 240.391 355.244 239.287C355.652 238.171 356.234 237.205 356.99 236.389C357.758 235.561 358.688 234.907 359.78 234.427C360.884 233.947 362.126 233.707 363.506 233.707C364.67 233.707 365.744 233.893 366.728 234.265C367.712 234.637 368.558 235.183 369.266 235.903C369.974 236.611 370.526 237.487 370.922 238.531C371.33 239.563 371.534 240.745 371.534 242.077C371.534 242.749 371.462 243.205 371.318 243.445C371.174 243.673 370.898 243.787 370.49 243.787H359.06ZM380.85 252.751C379.242 252.751 378.006 252.301 377.142 251.401C376.29 250.489 375.864 249.235 375.864 247.639V237.325H373.974C373.734 237.325 373.53 237.247 373.362 237.091C373.194 236.935 373.11 236.701 373.11 236.389V234.625L376.08 234.139L377.016 229.099C377.076 228.859 377.19 228.673 377.358 228.541C377.526 228.409 377.742 228.343 378.006 228.343H380.31V234.157H385.242V237.325H380.31V247.333C380.31 247.909 380.448 248.359 380.724 248.683C381.012 249.007 381.402 249.169 381.894 249.169C382.17 249.169 382.398 249.139 382.578 249.079C382.77 249.007 382.932 248.935 383.064 248.863C383.208 248.791 383.334 248.725 383.442 248.665C383.55 248.593 383.658 248.557 383.766 248.557C383.898 248.557 384.006 248.593 384.09 248.665C384.174 248.725 384.264 248.821 384.36 248.953L385.692 251.113C385.044 251.653 384.3 252.061 383.46 252.337C382.62 252.613 381.75 252.751 380.85 252.751ZM399.846 241.105C399.846 240.529 399.762 239.989 399.594 239.485C399.438 238.969 399.198 238.519 398.874 238.135C398.55 237.751 398.136 237.451 397.632 237.235C397.14 237.007 396.564 236.893 395.904 236.893C394.62 236.893 393.606 237.259 392.862 237.991C392.13 238.723 391.662 239.761 391.458 241.105H399.846ZM391.368 243.787C391.44 244.735 391.608 245.557 391.872 246.253C392.136 246.937 392.484 247.507 392.916 247.963C393.348 248.407 393.858 248.743 394.446 248.971C395.046 249.187 395.706 249.295 396.426 249.295C397.146 249.295 397.764 249.211 398.28 249.043C398.808 248.875 399.264 248.689 399.648 248.485C400.044 248.281 400.386 248.095 400.674 247.927C400.974 247.759 401.262 247.675 401.538 247.675C401.91 247.675 402.186 247.813 402.366 248.089L403.644 249.709C403.152 250.285 402.6 250.771 401.988 251.167C401.376 251.551 400.734 251.863 400.062 252.103C399.402 252.331 398.724 252.493 398.028 252.589C397.344 252.685 396.678 252.733 396.03 252.733C394.746 252.733 393.552 252.523 392.448 252.103C391.344 251.671 390.384 251.041 389.568 250.213C388.752 249.373 388.11 248.341 387.642 247.117C387.174 245.881 386.94 244.453 386.94 242.833C386.94 241.573 387.144 240.391 387.552 239.287C387.96 238.171 388.542 237.205 389.298 236.389C390.066 235.561 390.996 234.907 392.088 234.427C393.192 233.947 394.434 233.707 395.814 233.707C396.978 233.707 398.052 233.893 399.036 234.265C400.02 234.637 400.866 235.183 401.574 235.903C402.282 236.611 402.834 237.487 403.23 238.531C403.638 239.563 403.842 240.745 403.842 242.077C403.842 242.749 403.77 243.205 403.626 243.445C403.482 243.673 403.206 243.787 402.798 243.787H391.368ZM420.409 237.901C420.277 238.069 420.145 238.201 420.013 238.297C419.893 238.393 419.713 238.441 419.473 238.441C419.245 238.441 419.023 238.375 418.807 238.243C418.591 238.099 418.333 237.943 418.033 237.775C417.733 237.595 417.373 237.439 416.953 237.307C416.545 237.163 416.035 237.091 415.423 237.091C414.643 237.091 413.959 237.235 413.371 237.523C412.783 237.799 412.291 238.201 411.895 238.729C411.511 239.257 411.223 239.899 411.031 240.655C410.839 241.399 410.743 242.245 410.743 243.193C410.743 244.177 410.845 245.053 411.049 245.821C411.265 246.589 411.571 247.237 411.967 247.765C412.363 248.281 412.843 248.677 413.407 248.953C413.971 249.217 414.607 249.349 415.315 249.349C416.023 249.349 416.593 249.265 417.025 249.097C417.469 248.917 417.841 248.725 418.141 248.521C418.441 248.305 418.699 248.113 418.915 247.945C419.143 247.765 419.395 247.675 419.671 247.675C420.031 247.675 420.301 247.813 420.481 248.089L421.759 249.709C421.267 250.285 420.733 250.771 420.157 251.167C419.581 251.551 418.981 251.863 418.357 252.103C417.745 252.331 417.109 252.493 416.449 252.589C415.801 252.685 415.153 252.733 414.505 252.733C413.365 252.733 412.291 252.523 411.283 252.103C410.275 251.671 409.393 251.047 408.637 250.231C407.881 249.415 407.281 248.419 406.837 247.243C406.405 246.055 406.189 244.705 406.189 243.193C406.189 241.837 406.381 240.583 406.765 239.431C407.161 238.267 407.737 237.265 408.493 236.425C409.249 235.573 410.185 234.907 411.301 234.427C412.417 233.947 413.701 233.707 415.153 233.707C416.533 233.707 417.739 233.929 418.771 234.373C419.815 234.817 420.751 235.453 421.579 236.281L420.409 237.901ZM430.702 252.751C429.094 252.751 427.858 252.301 426.994 251.401C426.142 250.489 425.716 249.235 425.716 247.639V237.325H423.826C423.586 237.325 423.382 237.247 423.214 237.091C423.046 236.935 422.962 236.701 422.962 236.389V234.625L425.932 234.139L426.868 229.099C426.928 228.859 427.042 228.673 427.21 228.541C427.378 228.409 427.594 228.343 427.858 228.343H430.162V234.157H435.094V237.325H430.162V247.333C430.162 247.909 430.3 248.359 430.576 248.683C430.864 249.007 431.254 249.169 431.746 249.169C432.022 249.169 432.25 249.139 432.43 249.079C432.622 249.007 432.784 248.935 432.916 248.863C433.06 248.791 433.186 248.725 433.294 248.665C433.402 248.593 433.51 248.557 433.618 248.557C433.75 248.557 433.858 248.593 433.942 248.665C434.026 248.725 434.116 248.821 434.212 248.953L435.544 251.113C434.896 251.653 434.152 252.061 433.312 252.337C432.472 252.613 431.602 252.751 430.702 252.751ZM449.698 241.105C449.698 240.529 449.614 239.989 449.446 239.485C449.29 238.969 449.05 238.519 448.726 238.135C448.402 237.751 447.988 237.451 447.484 237.235C446.992 237.007 446.416 236.893 445.756 236.893C444.472 236.893 443.458 237.259 442.714 237.991C441.982 238.723 441.514 239.761 441.31 241.105H449.698ZM441.22 243.787C441.292 244.735 441.46 245.557 441.724 246.253C441.988 246.937 442.336 247.507 442.768 247.963C443.2 248.407 443.71 248.743 444.298 248.971C444.898 249.187 445.558 249.295 446.278 249.295C446.998 249.295 447.616 249.211 448.132 249.043C448.66 248.875 449.116 248.689 449.5 248.485C449.896 248.281 450.238 248.095 450.526 247.927C450.826 247.759 451.114 247.675 451.39 247.675C451.762 247.675 452.038 247.813 452.218 248.089L453.496 249.709C453.004 250.285 452.452 250.771 451.84 251.167C451.228 251.551 450.586 251.863 449.914 252.103C449.254 252.331 448.576 252.493 447.88 252.589C447.196 252.685 446.53 252.733 445.882 252.733C444.598 252.733 443.404 252.523 442.3 252.103C441.196 251.671 440.236 251.041 439.42 250.213C438.604 249.373 437.962 248.341 437.494 247.117C437.026 245.881 436.792 244.453 436.792 242.833C436.792 241.573 436.996 240.391 437.404 239.287C437.812 238.171 438.394 237.205 439.15 236.389C439.918 235.561 440.848 234.907 441.94 234.427C443.044 233.947 444.286 233.707 445.666 233.707C446.83 233.707 447.904 233.893 448.888 234.265C449.872 234.637 450.718 235.183 451.426 235.903C452.134 236.611 452.686 237.487 453.082 238.531C453.49 239.563 453.694 240.745 453.694 242.077C453.694 242.749 453.622 243.205 453.478 243.445C453.334 243.673 453.058 243.787 452.65 243.787H441.22ZM468.622 238.711C468.118 238.099 467.566 237.667 466.966 237.415C466.378 237.163 465.742 237.037 465.058 237.037C464.386 237.037 463.78 237.163 463.24 237.415C462.7 237.667 462.238 238.051 461.854 238.567C461.47 239.071 461.176 239.719 460.972 240.511C460.768 241.291 460.666 242.215 460.666 243.283C460.666 244.363 460.75 245.281 460.918 246.037C461.098 246.781 461.35 247.393 461.674 247.873C461.998 248.341 462.394 248.683 462.862 248.899C463.33 249.103 463.852 249.205 464.428 249.205C465.352 249.205 466.138 249.013 466.786 248.629C467.434 248.245 468.046 247.699 468.622 246.991V238.711ZM473.068 225.715V252.463H470.35C469.762 252.463 469.39 252.193 469.234 251.653L468.856 249.871C468.112 250.723 467.254 251.413 466.282 251.941C465.322 252.469 464.2 252.733 462.916 252.733C461.908 252.733 460.984 252.523 460.144 252.103C459.304 251.683 458.578 251.077 457.966 250.285C457.366 249.481 456.898 248.491 456.562 247.315C456.238 246.139 456.076 244.795 456.076 243.283C456.076 241.915 456.262 240.643 456.634 239.467C457.006 238.291 457.54 237.271 458.236 236.407C458.932 235.543 459.766 234.871 460.738 234.391C461.71 233.899 462.802 233.653 464.014 233.653C465.046 233.653 465.928 233.815 466.66 234.139C467.392 234.463 468.046 234.901 468.622 235.453V225.715H473.068Z" fill="#12D76E"/>
<rect width="671" height="549" rx="16" fill="#C4C4C4" fill-opacity="0.16"/>
<path d="M44.512 327.684C44.512 327.564 44.536 327.468 44.584 327.396C44.656 327.324 44.776 327.288 44.944 327.288H64.312C64.456 327.288 64.564 327.324 64.636 327.396C64.708 327.468 64.744 327.564 64.744 327.684V329.556C64.744 329.796 64.6 329.916 64.312 329.916H57.004C56.74 329.916 56.608 330.036 56.608 330.276V353.532C56.608 353.844 56.464 354 56.176 354H53.584C53.296 354 53.152 353.844 53.152 353.532V330.312C53.152 330.048 53.032 329.916 52.792 329.916H44.944C44.656 329.916 44.512 329.796 44.512 329.556V327.684ZM69.4791 354C69.1671 354 69.0111 353.844 69.0111 353.532V327.756C69.0111 327.444 69.1431 327.288 69.4071 327.288H71.5311C71.7951 327.288 71.9271 327.432 71.9271 327.72V337.332C71.9271 337.452 71.9511 337.524 71.9991 337.548C72.0471 337.572 72.1311 337.536 72.2511 337.44C73.0911 336.792 73.8591 336.252 74.5551 335.82C75.2751 335.388 75.9711 335.076 76.6431 334.884C77.3391 334.668 78.0951 334.56 78.9111 334.56C80.7831 334.56 82.2111 335.064 83.1951 336.072C84.1791 337.056 84.6711 338.376 84.6711 340.032V353.424C84.6711 353.808 84.4911 354 84.1311 354H82.1151C81.9471 354 81.8271 353.964 81.7551 353.892C81.6831 353.796 81.6471 353.676 81.6471 353.532V340.68C81.6471 339.504 81.3471 338.592 80.7471 337.944C80.1471 337.272 79.1991 336.936 77.9031 336.936C77.2071 336.936 76.5471 337.056 75.9231 337.296C75.3231 337.512 74.7111 337.836 74.0871 338.268C73.4631 338.676 72.7791 339.204 72.0351 339.852V353.46C72.0351 353.82 71.8431 354 71.4591 354H69.4791ZM92.0146 345.648C92.0146 346.824 92.2906 347.904 92.8426 348.888C93.4186 349.848 94.1746 350.616 95.1106 351.192C96.0706 351.768 97.1386 352.056 98.3146 352.056C99.5146 352.056 100.583 351.816 101.519 351.336C102.455 350.832 103.259 350.076 103.931 349.068C104.027 348.972 104.099 348.924 104.147 348.924C104.219 348.9 104.315 348.912 104.435 348.96L105.947 349.716C106.163 349.836 106.187 350.004 106.019 350.22C105.371 351.18 104.651 351.972 103.859 352.596C103.091 353.196 102.227 353.64 101.267 353.928C100.307 354.216 99.2266 354.36 98.0266 354.36C96.2506 354.36 94.6786 353.952 93.3106 353.136C91.9426 352.32 90.8626 351.18 90.0706 349.716C89.2786 348.252 88.8826 346.56 88.8826 344.64C88.8826 342.552 89.2786 340.764 90.0706 339.276C90.8866 337.764 91.9786 336.6 93.3466 335.784C94.7386 334.968 96.2866 334.56 97.9906 334.56C99.7426 334.56 101.267 334.944 102.563 335.712C103.859 336.48 104.867 337.596 105.587 339.06C106.307 340.524 106.667 342.288 106.667 344.352C106.667 344.52 106.643 344.688 106.595 344.856C106.571 345.024 106.415 345.108 106.127 345.108H92.3386C92.2426 345.108 92.1586 345.168 92.0866 345.288C92.0386 345.384 92.0146 345.504 92.0146 345.648ZM103.031 343.128C103.295 343.128 103.463 343.104 103.535 343.056C103.607 342.984 103.643 342.84 103.643 342.624C103.643 341.592 103.415 340.632 102.959 339.744C102.527 338.832 101.891 338.1 101.051 337.548C100.235 336.996 99.2386 336.72 98.0626 336.72C96.7666 336.72 95.6746 337.032 94.7866 337.656C93.8986 338.256 93.2266 339.048 92.7706 340.032C92.3146 341.016 92.0866 342.048 92.0866 343.128H103.031ZM121.64 353.388C121.64 353.628 121.592 353.796 121.496 353.892C121.424 353.964 121.256 354 120.992 354H119.156C118.94 354 118.796 353.964 118.724 353.892C118.652 353.82 118.616 353.688 118.616 353.496V335.424C118.616 335.088 118.76 334.92 119.048 334.92H121.244C121.508 334.92 121.64 335.076 121.64 335.388V353.388ZM121.784 330.816C121.784 331.272 121.568 331.5 121.136 331.5H119.048C118.832 331.5 118.688 331.452 118.616 331.356C118.544 331.236 118.508 331.08 118.508 330.888V327.864C118.508 327.48 118.676 327.288 119.012 327.288H121.28C121.616 327.288 121.784 327.468 121.784 327.828V330.816ZM127.733 354C127.397 354 127.229 353.844 127.229 353.532V335.388C127.229 335.076 127.361 334.92 127.625 334.92H129.785C130.025 334.92 130.145 335.052 130.145 335.316V337.404C130.145 337.524 130.169 337.596 130.217 337.62C130.289 337.644 130.385 337.608 130.505 337.512C131.273 336.888 131.981 336.36 132.629 335.928C133.301 335.472 133.973 335.136 134.645 334.92C135.341 334.68 136.085 334.56 136.877 334.56C138.293 334.56 139.421 334.884 140.261 335.532C141.125 336.18 141.701 336.912 141.989 337.728C142.037 337.824 142.109 337.86 142.205 337.836C142.301 337.812 142.397 337.752 142.493 337.656C143.261 337.008 143.981 336.456 144.653 336C145.349 335.544 146.045 335.196 146.741 334.956C147.461 334.692 148.217 334.56 149.009 334.56C150.761 334.56 152.117 335.064 153.077 336.072C154.037 337.056 154.517 338.388 154.517 340.068V353.424C154.517 353.808 154.337 354 153.977 354H151.961C151.793 354 151.673 353.964 151.601 353.892C151.529 353.796 151.493 353.676 151.493 353.532V340.68C151.493 339.504 151.205 338.592 150.629 337.944C150.077 337.272 149.201 336.936 148.001 336.936C147.305 336.936 146.633 337.068 145.985 337.332C145.361 337.596 144.785 337.92 144.257 338.304C143.753 338.688 143.297 339.048 142.889 339.384C142.697 339.552 142.565 339.72 142.493 339.888C142.421 340.032 142.385 340.224 142.385 340.464V353.424C142.385 353.808 142.205 354 141.845 354H139.829C139.685 354 139.565 353.964 139.469 353.892C139.397 353.796 139.361 353.676 139.361 353.532V340.68C139.361 339.504 139.085 338.592 138.533 337.944C137.981 337.272 137.105 336.936 135.905 336.936C134.897 336.936 133.973 337.176 133.133 337.656C132.293 338.136 131.333 338.868 130.253 339.852V353.46C130.253 353.82 130.073 354 129.713 354H127.733ZM170.834 351.696C169.946 352.56 168.974 353.22 167.918 353.676C166.886 354.132 165.722 354.36 164.426 354.36C162.554 354.36 161.078 353.88 159.998 352.92C158.942 351.96 158.414 350.7 158.414 349.14C158.414 347.868 158.774 346.776 159.494 345.864C160.214 344.928 161.282 344.196 162.698 343.668C164.114 343.116 165.854 342.78 167.918 342.66L170.726 342.444C170.87 342.42 171.002 342.372 171.122 342.3C171.242 342.228 171.302 342.096 171.302 341.904V340.932C171.302 339.636 170.894 338.616 170.078 337.872C169.286 337.104 168.206 336.72 166.838 336.72C165.782 336.72 164.822 336.96 163.958 337.44C163.118 337.92 162.362 338.64 161.69 339.6C161.594 339.72 161.51 339.804 161.438 339.852C161.39 339.876 161.294 339.864 161.15 339.816L159.206 339.168C159.134 339.12 159.074 339.06 159.026 338.988C159.002 338.916 159.038 338.784 159.134 338.592C159.854 337.344 160.862 336.36 162.158 335.64C163.478 334.92 165.086 334.56 166.982 334.56C168.59 334.56 169.922 334.812 170.978 335.316C172.058 335.796 172.862 336.504 173.39 337.44C173.942 338.352 174.218 339.444 174.218 340.716V353.46C174.218 353.676 174.182 353.82 174.11 353.892C174.038 353.964 173.918 354 173.75 354H171.914C171.746 354 171.626 353.952 171.554 353.856C171.482 353.736 171.434 353.592 171.41 353.424L171.374 351.768C171.302 351.432 171.122 351.408 170.834 351.696ZM171.302 344.856C171.302 344.448 171.134 344.256 170.798 344.28L168.422 344.496C167.318 344.544 166.334 344.688 165.47 344.928C164.606 345.144 163.874 345.432 163.274 345.792C162.674 346.152 162.218 346.584 161.906 347.088C161.594 347.568 161.438 348.132 161.438 348.78C161.438 349.836 161.798 350.664 162.518 351.264C163.262 351.84 164.258 352.128 165.506 352.128C166.274 352.128 167.006 351.996 167.702 351.732C168.422 351.444 169.046 351.084 169.574 350.652C170.126 350.196 170.546 349.728 170.834 349.248C171.146 348.768 171.302 348.3 171.302 347.844V344.856ZM196.821 334.596C197.061 334.596 197.229 334.644 197.325 334.74C197.445 334.836 197.505 334.98 197.505 335.172V336.432C197.505 336.648 197.445 336.816 197.325 336.936C197.229 337.056 197.049 337.104 196.785 337.08C196.401 337.08 196.065 337.104 195.777 337.152C195.489 337.2 195.201 337.284 194.913 337.404C194.337 337.62 194.097 337.896 194.193 338.232C194.313 338.496 194.445 338.82 194.589 339.204C194.733 339.564 194.805 340.056 194.805 340.68C194.805 341.736 194.529 342.708 193.977 343.596C193.425 344.46 192.561 345.156 191.385 345.684C190.233 346.212 188.769 346.476 186.993 346.476C185.769 346.476 184.809 346.548 184.113 346.692C183.417 346.836 182.925 347.028 182.637 347.268C182.349 347.508 182.205 347.76 182.205 348.024C182.205 348.408 182.457 348.684 182.961 348.852C183.489 349.02 184.329 349.14 185.481 349.212L190.125 349.464C192.237 349.584 193.785 350.088 194.769 350.976C195.753 351.864 196.245 353.028 196.245 354.468C196.245 356.268 195.441 357.684 193.833 358.716C192.249 359.772 189.981 360.3 187.029 360.3C183.981 360.3 181.653 359.856 180.045 358.968C178.461 358.104 177.669 356.856 177.669 355.224C177.669 354.384 177.957 353.628 178.533 352.956C179.133 352.284 179.973 351.684 181.053 351.156C181.317 351.036 181.317 350.904 181.053 350.76C180.525 350.52 180.117 350.232 179.829 349.896C179.541 349.536 179.397 349.116 179.397 348.636C179.397 348.3 179.505 347.964 179.721 347.628C179.937 347.292 180.249 346.98 180.657 346.692C181.089 346.404 181.605 346.152 182.205 345.936C182.349 345.888 182.421 345.828 182.421 345.756C182.421 345.684 182.361 345.6 182.241 345.504C181.185 344.976 180.405 344.316 179.901 343.524C179.397 342.732 179.145 341.784 179.145 340.68C179.145 338.808 179.853 337.332 181.269 336.252C182.685 335.172 184.689 334.632 187.281 334.632C188.529 334.632 189.585 334.776 190.449 335.064C191.337 335.352 192.081 335.748 192.681 336.252C192.825 336.372 192.957 336.432 193.077 336.432C193.197 336.432 193.317 336.372 193.437 336.252C193.725 335.988 194.049 335.736 194.409 335.496C194.769 335.232 195.153 335.016 195.561 334.848C195.993 334.68 196.413 334.596 196.821 334.596ZM186.993 344.568C188.673 344.568 189.921 344.232 190.737 343.56C191.553 342.864 191.961 341.892 191.961 340.644C191.961 339.372 191.553 338.376 190.737 337.656C189.921 336.912 188.673 336.54 186.993 336.54C185.385 336.54 184.137 336.912 183.249 337.656C182.385 338.376 181.953 339.372 181.953 340.644C181.953 341.892 182.385 342.864 183.249 343.56C184.137 344.232 185.385 344.568 186.993 344.568ZM183.825 351.66C183.393 351.636 182.913 351.768 182.385 352.056C181.857 352.32 181.389 352.692 180.981 353.172C180.573 353.652 180.369 354.216 180.369 354.864C180.369 355.608 180.621 356.244 181.125 356.772C181.653 357.324 182.433 357.732 183.465 357.996C184.521 358.284 185.817 358.428 187.353 358.428C189.345 358.428 190.857 358.128 191.889 357.528C192.921 356.952 193.437 356.052 193.437 354.828C193.437 354.036 193.161 353.388 192.609 352.884C192.081 352.38 191.157 352.092 189.837 352.02L183.825 351.66ZM202.616 345.648C202.616 346.824 202.892 347.904 203.444 348.888C204.02 349.848 204.776 350.616 205.712 351.192C206.672 351.768 207.74 352.056 208.916 352.056C210.116 352.056 211.184 351.816 212.12 351.336C213.056 350.832 213.86 350.076 214.532 349.068C214.628 348.972 214.7 348.924 214.748 348.924C214.82 348.9 214.916 348.912 215.036 348.96L216.548 349.716C216.764 349.836 216.788 350.004 216.62 350.22C215.972 351.18 215.252 351.972 214.46 352.596C213.692 353.196 212.828 353.64 211.868 353.928C210.908 354.216 209.828 354.36 208.628 354.36C206.852 354.36 205.28 353.952 203.912 353.136C202.544 352.32 201.464 351.18 200.672 349.716C199.88 348.252 199.484 346.56 199.484 344.64C199.484 342.552 199.88 340.764 200.672 339.276C201.488 337.764 202.58 336.6 203.948 335.784C205.34 334.968 206.888 334.56 208.592 334.56C210.344 334.56 211.868 334.944 213.164 335.712C214.46 336.48 215.468 337.596 216.188 339.06C216.908 340.524 217.268 342.288 217.268 344.352C217.268 344.52 217.244 344.688 217.196 344.856C217.172 345.024 217.016 345.108 216.728 345.108H202.94C202.844 345.108 202.76 345.168 202.688 345.288C202.64 345.384 202.616 345.504 202.616 345.648ZM213.632 343.128C213.896 343.128 214.064 343.104 214.136 343.056C214.208 342.984 214.244 342.84 214.244 342.624C214.244 341.592 214.016 340.632 213.56 339.744C213.128 338.832 212.492 338.1 211.652 337.548C210.836 336.996 209.84 336.72 208.664 336.72C207.368 336.72 206.276 337.032 205.388 337.656C204.5 338.256 203.828 339.048 203.372 340.032C202.916 341.016 202.688 342.048 202.688 343.128H213.632ZM237.137 334.56C238.385 334.56 239.477 334.764 240.413 335.172C241.373 335.556 242.189 336.096 242.861 336.792C243.557 337.464 244.133 338.208 244.589 339.024C244.733 339.312 244.673 339.492 244.409 339.564L242.429 340.032C242.261 340.104 242.105 340.032 241.961 339.816C241.481 339.12 241.001 338.556 240.521 338.124C240.065 337.692 239.573 337.368 239.045 337.152C238.517 336.912 237.941 336.792 237.317 336.792C236.093 336.792 235.013 337.104 234.077 337.728C233.165 338.328 232.457 339.204 231.953 340.356C231.449 341.508 231.197 342.876 231.197 344.46C231.197 346.068 231.449 347.448 231.953 348.6C232.481 349.752 233.201 350.628 234.113 351.228C235.049 351.828 236.141 352.128 237.389 352.128C238.541 352.128 239.537 351.84 240.377 351.264C241.217 350.688 241.985 349.848 242.681 348.744C242.753 348.624 242.813 348.564 242.861 348.564C242.933 348.54 243.029 348.552 243.149 348.6L244.697 349.176C244.865 349.248 244.913 349.404 244.841 349.644C244.481 350.268 244.061 350.868 243.581 351.444C243.101 352.02 242.537 352.524 241.889 352.956C241.265 353.388 240.557 353.736 239.765 354C238.973 354.24 238.097 354.36 237.137 354.36C235.361 354.36 233.789 353.952 232.421 353.136C231.077 352.296 230.021 351.144 229.253 349.68C228.485 348.192 228.101 346.476 228.101 344.532C228.101 342.564 228.485 340.836 229.253 339.348C230.045 337.86 231.113 336.696 232.457 335.856C233.825 334.992 235.385 334.56 237.137 334.56ZM256.475 354.36C254.675 354.36 253.079 353.952 251.687 353.136C250.319 352.296 249.251 351.144 248.483 349.68C247.739 348.192 247.367 346.488 247.367 344.568C247.367 342.576 247.751 340.836 248.519 339.348C249.311 337.836 250.391 336.66 251.759 335.82C253.127 334.98 254.711 334.56 256.511 334.56C258.335 334.56 259.919 334.992 261.263 335.856C262.631 336.696 263.687 337.872 264.431 339.384C265.199 340.872 265.583 342.588 265.583 344.532C265.583 346.452 265.199 348.156 264.431 349.644C263.663 351.108 262.595 352.26 261.227 353.1C259.883 353.94 258.299 354.36 256.475 354.36ZM256.547 352.092C257.795 352.092 258.863 351.792 259.751 351.192C260.639 350.568 261.311 349.692 261.767 348.564C262.247 347.412 262.487 346.044 262.487 344.46C262.487 342.876 262.247 341.52 261.767 340.392C261.287 339.24 260.603 338.352 259.715 337.728C258.827 337.104 257.759 336.792 256.511 336.792C255.287 336.792 254.219 337.104 253.307 337.728C252.395 338.352 251.687 339.24 251.183 340.392C250.703 341.52 250.463 342.876 250.463 344.46C250.463 346.02 250.703 347.376 251.183 348.528C251.687 349.68 252.395 350.568 253.307 351.192C254.219 351.792 255.299 352.092 256.547 352.092ZM270.538 354C270.202 354 270.034 353.844 270.034 353.532V335.388C270.034 335.076 270.166 334.92 270.43 334.92H272.59C272.854 334.92 272.986 335.052 272.986 335.316V337.404C272.986 337.524 273.01 337.596 273.058 337.62C273.106 337.644 273.19 337.608 273.31 337.512C274.102 336.888 274.834 336.36 275.506 335.928C276.202 335.472 276.91 335.136 277.63 334.92C278.35 334.68 279.118 334.56 279.934 334.56C281.806 334.56 283.234 335.064 284.218 336.072C285.226 337.08 285.73 338.388 285.73 339.996V353.424C285.73 353.808 285.55 354 285.19 354H283.174C283.006 354 282.886 353.964 282.814 353.892C282.742 353.796 282.706 353.676 282.706 353.532V340.68C282.706 339.504 282.406 338.592 281.806 337.944C281.206 337.272 280.258 336.936 278.962 336.936C278.266 336.936 277.606 337.056 276.982 337.296C276.382 337.512 275.77 337.836 275.146 338.268C274.522 338.676 273.826 339.204 273.058 339.852V353.46C273.058 353.82 272.878 354 272.518 354H270.538ZM295.64 337.188C295.448 337.188 295.352 337.284 295.352 337.476V348.888C295.352 350.016 295.544 350.772 295.928 351.156C296.312 351.54 296.888 351.732 297.656 351.732H300.14C300.26 351.732 300.356 351.768 300.428 351.84C300.5 351.888 300.536 351.984 300.536 352.128L300.5 353.352C300.5 353.592 300.356 353.748 300.068 353.82C299.828 353.868 299.48 353.904 299.024 353.928C298.592 353.952 298.16 353.976 297.728 354C297.32 354 296.972 354 296.684 354C295.172 354 294.068 353.652 293.372 352.956C292.676 352.236 292.328 351.108 292.328 349.572V337.548C292.328 337.308 292.208 337.188 291.968 337.188H289.088C288.824 337.188 288.692 337.056 288.692 336.792V335.28C288.692 335.04 288.812 334.92 289.052 334.92H292.112C292.28 334.92 292.364 334.824 292.364 334.632L292.76 328.908C292.784 328.596 292.916 328.44 293.156 328.44H294.956C295.244 328.44 295.388 328.608 295.388 328.944V334.632C295.388 334.824 295.484 334.92 295.676 334.92H300.212C300.476 334.92 300.608 335.028 300.608 335.244V336.792C300.608 337.056 300.476 337.188 300.212 337.188H295.64ZM315.502 351.696C314.614 352.56 313.642 353.22 312.586 353.676C311.554 354.132 310.39 354.36 309.094 354.36C307.222 354.36 305.746 353.88 304.666 352.92C303.61 351.96 303.082 350.7 303.082 349.14C303.082 347.868 303.442 346.776 304.162 345.864C304.882 344.928 305.95 344.196 307.366 343.668C308.782 343.116 310.522 342.78 312.586 342.66L315.394 342.444C315.538 342.42 315.67 342.372 315.79 342.3C315.91 342.228 315.97 342.096 315.97 341.904V340.932C315.97 339.636 315.562 338.616 314.746 337.872C313.954 337.104 312.874 336.72 311.506 336.72C310.45 336.72 309.49 336.96 308.626 337.44C307.786 337.92 307.03 338.64 306.358 339.6C306.262 339.72 306.178 339.804 306.106 339.852C306.058 339.876 305.962 339.864 305.818 339.816L303.874 339.168C303.802 339.12 303.742 339.06 303.694 338.988C303.67 338.916 303.706 338.784 303.802 338.592C304.522 337.344 305.53 336.36 306.826 335.64C308.146 334.92 309.754 334.56 311.65 334.56C313.258 334.56 314.59 334.812 315.646 335.316C316.726 335.796 317.53 336.504 318.058 337.44C318.61 338.352 318.886 339.444 318.886 340.716V353.46C318.886 353.676 318.85 353.82 318.778 353.892C318.706 353.964 318.586 354 318.418 354H316.582C316.414 354 316.294 353.952 316.222 353.856C316.15 353.736 316.102 353.592 316.078 353.424L316.042 351.768C315.97 351.432 315.79 351.408 315.502 351.696ZM315.97 344.856C315.97 344.448 315.802 344.256 315.466 344.28L313.09 344.496C311.986 344.544 311.002 344.688 310.138 344.928C309.274 345.144 308.542 345.432 307.942 345.792C307.342 346.152 306.886 346.584 306.574 347.088C306.262 347.568 306.106 348.132 306.106 348.78C306.106 349.836 306.466 350.664 307.186 351.264C307.93 351.84 308.926 352.128 310.174 352.128C310.942 352.128 311.674 351.996 312.37 351.732C313.09 351.444 313.714 351.084 314.242 350.652C314.794 350.196 315.214 349.728 315.502 349.248C315.814 348.768 315.97 348.3 315.97 347.844V344.856ZM327.269 353.388C327.269 353.628 327.221 353.796 327.125 353.892C327.053 353.964 326.885 354 326.621 354H324.785C324.569 354 324.425 353.964 324.353 353.892C324.281 353.82 324.245 353.688 324.245 353.496V335.424C324.245 335.088 324.389 334.92 324.677 334.92H326.873C327.137 334.92 327.269 335.076 327.269 335.388V353.388ZM327.413 330.816C327.413 331.272 327.197 331.5 326.765 331.5H324.677C324.461 331.5 324.317 331.452 324.245 331.356C324.173 331.236 324.137 331.08 324.137 330.888V327.864C324.137 327.48 324.305 327.288 324.641 327.288H326.909C327.245 327.288 327.413 327.468 327.413 327.828V330.816ZM333.362 354C333.026 354 332.858 353.844 332.858 353.532V335.388C332.858 335.076 332.99 334.92 333.254 334.92H335.414C335.678 334.92 335.81 335.052 335.81 335.316V337.404C335.81 337.524 335.834 337.596 335.882 337.62C335.93 337.644 336.014 337.608 336.134 337.512C336.926 336.888 337.658 336.36 338.33 335.928C339.026 335.472 339.734 335.136 340.454 334.92C341.174 334.68 341.942 334.56 342.758 334.56C344.63 334.56 346.058 335.064 347.042 336.072C348.05 337.08 348.554 338.388 348.554 339.996V353.424C348.554 353.808 348.374 354 348.014 354H345.998C345.83 354 345.71 353.964 345.638 353.892C345.566 353.796 345.53 353.676 345.53 353.532V340.68C345.53 339.504 345.23 338.592 344.63 337.944C344.03 337.272 343.082 336.936 341.786 336.936C341.09 336.936 340.43 337.056 339.806 337.296C339.206 337.512 338.594 337.836 337.97 338.268C337.346 338.676 336.65 339.204 335.882 339.852V353.46C335.882 353.82 335.702 354 335.342 354H333.362ZM365.329 339.132C364.849 338.412 364.177 337.824 363.313 337.368C362.449 336.912 361.417 336.684 360.217 336.684C358.921 336.684 357.841 336.96 356.977 337.512C356.137 338.064 355.717 338.808 355.717 339.744C355.717 340.248 355.909 340.728 356.293 341.184C356.677 341.616 357.457 342.024 358.633 342.408L363.205 343.776C364.861 344.232 366.049 344.892 366.769 345.756C367.513 346.62 367.885 347.616 367.885 348.744C367.885 349.872 367.549 350.856 366.877 351.696C366.205 352.536 365.281 353.196 364.105 353.676C362.929 354.132 361.597 354.36 360.109 354.36C358.213 354.36 356.557 353.988 355.141 353.244C353.725 352.476 352.717 351.528 352.117 350.4C352.045 350.28 352.009 350.172 352.009 350.076C352.009 349.98 352.069 349.896 352.189 349.824L353.593 349.032C353.713 348.96 353.821 348.936 353.917 348.96C354.013 348.96 354.085 348.996 354.133 349.068C354.541 349.692 355.009 350.232 355.537 350.688C356.089 351.144 356.737 351.504 357.481 351.768C358.249 352.032 359.137 352.164 360.145 352.164C361.057 352.14 361.885 352.008 362.629 351.768C363.373 351.528 363.961 351.18 364.393 350.724C364.825 350.244 365.041 349.692 365.041 349.068C365.041 348.42 364.777 347.868 364.249 347.412C363.721 346.932 362.809 346.512 361.513 346.152L357.805 345.108C356.005 344.628 354.733 343.98 353.989 343.164C353.269 342.348 352.897 341.388 352.873 340.284C352.873 339.132 353.185 338.136 353.809 337.296C354.433 336.432 355.297 335.76 356.401 335.28C357.529 334.8 358.813 334.56 360.253 334.56C361.861 334.56 363.289 334.872 364.537 335.496C365.809 336.096 366.769 336.9 367.417 337.908C367.489 338.004 367.525 338.1 367.525 338.196C367.525 338.268 367.477 338.34 367.381 338.412L365.869 339.24C365.773 339.288 365.677 339.312 365.581 339.312C365.509 339.288 365.425 339.228 365.329 339.132ZM385.042 337.188C384.85 337.188 384.754 337.284 384.754 337.476V348.888C384.754 350.016 384.946 350.772 385.33 351.156C385.714 351.54 386.29 351.732 387.058 351.732H389.542C389.662 351.732 389.758 351.768 389.83 351.84C389.902 351.888 389.938 351.984 389.938 352.128L389.902 353.352C389.902 353.592 389.758 353.748 389.47 353.82C389.23 353.868 388.882 353.904 388.426 353.928C387.994 353.952 387.562 353.976 387.13 354C386.722 354 386.374 354 386.086 354C384.574 354 383.47 353.652 382.774 352.956C382.078 352.236 381.73 351.108 381.73 349.572V337.548C381.73 337.308 381.61 337.188 381.37 337.188H378.49C378.226 337.188 378.094 337.056 378.094 336.792V335.28C378.094 335.04 378.214 334.92 378.454 334.92H381.514C381.682 334.92 381.766 334.824 381.766 334.632L382.162 328.908C382.186 328.596 382.318 328.44 382.558 328.44H384.358C384.646 328.44 384.79 328.608 384.79 328.944V334.632C384.79 334.824 384.886 334.92 385.078 334.92H389.614C389.878 334.92 390.01 335.028 390.01 335.244V336.792C390.01 337.056 389.878 337.188 389.614 337.188H385.042ZM394.428 354C394.116 354 393.96 353.844 393.96 353.532V327.756C393.96 327.444 394.092 327.288 394.356 327.288H396.48C396.744 327.288 396.876 327.432 396.876 327.72V337.332C396.876 337.452 396.9 337.524 396.948 337.548C396.996 337.572 397.08 337.536 397.2 337.44C398.04 336.792 398.808 336.252 399.504 335.82C400.224 335.388 400.92 335.076 401.592 334.884C402.288 334.668 403.044 334.56 403.86 334.56C405.732 334.56 407.16 335.064 408.144 336.072C409.128 337.056 409.62 338.376 409.62 340.032V353.424C409.62 353.808 409.44 354 409.08 354H407.064C406.896 354 406.776 353.964 406.704 353.892C406.632 353.796 406.596 353.676 406.596 353.532V340.68C406.596 339.504 406.296 338.592 405.696 337.944C405.096 337.272 404.148 336.936 402.852 336.936C402.156 336.936 401.496 337.056 400.872 337.296C400.272 337.512 399.66 337.836 399.036 338.268C398.412 338.676 397.728 339.204 396.984 339.852V353.46C396.984 353.82 396.792 354 396.408 354H394.428ZM416.964 345.648C416.964 346.824 417.24 347.904 417.792 348.888C418.368 349.848 419.124 350.616 420.06 351.192C421.02 351.768 422.088 352.056 423.264 352.056C424.464 352.056 425.532 351.816 426.468 351.336C427.404 350.832 428.208 350.076 428.88 349.068C428.976 348.972 429.048 348.924 429.096 348.924C429.168 348.9 429.264 348.912 429.384 348.96L430.896 349.716C431.112 349.836 431.136 350.004 430.968 350.22C430.32 351.18 429.6 351.972 428.808 352.596C428.04 353.196 427.176 353.64 426.216 353.928C425.256 354.216 424.176 354.36 422.976 354.36C421.2 354.36 419.628 353.952 418.26 353.136C416.892 352.32 415.812 351.18 415.02 349.716C414.228 348.252 413.832 346.56 413.832 344.64C413.832 342.552 414.228 340.764 415.02 339.276C415.836 337.764 416.928 336.6 418.296 335.784C419.688 334.968 421.236 334.56 422.94 334.56C424.692 334.56 426.216 334.944 427.512 335.712C428.808 336.48 429.816 337.596 430.536 339.06C431.256 340.524 431.616 342.288 431.616 344.352C431.616 344.52 431.592 344.688 431.544 344.856C431.52 345.024 431.364 345.108 431.076 345.108H417.288C417.192 345.108 417.108 345.168 417.036 345.288C416.988 345.384 416.964 345.504 416.964 345.648ZM427.98 343.128C428.244 343.128 428.412 343.104 428.484 343.056C428.556 342.984 428.592 342.84 428.592 342.624C428.592 341.592 428.364 340.632 427.908 339.744C427.476 338.832 426.84 338.1 426 337.548C425.184 336.996 424.188 336.72 423.012 336.72C421.716 336.72 420.624 337.032 419.736 337.656C418.848 338.256 418.176 339.048 417.72 340.032C417.264 341.016 417.036 342.048 417.036 343.128H427.98ZM444.069 354C443.733 354 443.565 353.844 443.565 353.532V335.388C443.565 335.076 443.697 334.92 443.961 334.92H446.121C446.385 334.92 446.517 335.052 446.517 335.316V337.404C446.517 337.524 446.541 337.596 446.589 337.62C446.637 337.644 446.721 337.608 446.841 337.512C447.633 336.888 448.365 336.36 449.037 335.928C449.733 335.472 450.441 335.136 451.161 334.92C451.881 334.68 452.649 334.56 453.465 334.56C455.337 334.56 456.765 335.064 457.749 336.072C458.757 337.08 459.261 338.388 459.261 339.996V353.424C459.261 353.808 459.081 354 458.721 354H456.705C456.537 354 456.417 353.964 456.345 353.892C456.273 353.796 456.237 353.676 456.237 353.532V340.68C456.237 339.504 455.937 338.592 455.337 337.944C454.737 337.272 453.789 336.936 452.493 336.936C451.797 336.936 451.137 337.056 450.513 337.296C449.913 337.512 449.301 337.836 448.677 338.268C448.053 338.676 447.357 339.204 446.589 339.852V353.46C446.589 353.82 446.409 354 446.049 354H444.069ZM471.068 351.984C472.1 351.984 473.084 351.708 474.02 351.156C474.98 350.58 475.928 349.812 476.864 348.852V335.46C476.864 335.1 477.056 334.92 477.44 334.92H479.42C479.756 334.92 479.924 335.088 479.924 335.424L479.852 353.532C479.852 353.844 479.72 354 479.456 354H477.368C477.104 354 476.972 353.868 476.972 353.604V351.48C476.972 351.36 476.948 351.288 476.9 351.264C476.852 351.24 476.768 351.276 476.648 351.372C475.328 352.5 474.152 353.28 473.12 353.712C472.112 354.144 471.104 354.36 470.096 354.36C468.992 354.36 468.008 354.132 467.144 353.676C466.28 353.22 465.596 352.584 465.092 351.768C464.588 350.928 464.336 349.956 464.336 348.852V335.496C464.336 335.112 464.516 334.92 464.876 334.92H466.892C467.204 334.92 467.36 335.088 467.36 335.424V348.06C467.36 349.236 467.684 350.184 468.332 350.904C469.004 351.624 469.916 351.984 471.068 351.984ZM485.94 354C485.604 354 485.436 353.844 485.436 353.532V335.388C485.436 335.076 485.568 334.92 485.832 334.92H487.992C488.232 334.92 488.352 335.052 488.352 335.316V337.404C488.352 337.524 488.376 337.596 488.424 337.62C488.496 337.644 488.592 337.608 488.712 337.512C489.48 336.888 490.188 336.36 490.836 335.928C491.508 335.472 492.18 335.136 492.852 334.92C493.548 334.68 494.292 334.56 495.084 334.56C496.5 334.56 497.628 334.884 498.468 335.532C499.332 336.18 499.908 336.912 500.196 337.728C500.244 337.824 500.316 337.86 500.412 337.836C500.508 337.812 500.604 337.752 500.7 337.656C501.468 337.008 502.188 336.456 502.86 336C503.556 335.544 504.252 335.196 504.948 334.956C505.668 334.692 506.424 334.56 507.216 334.56C508.968 334.56 510.324 335.064 511.284 336.072C512.244 337.056 512.724 338.388 512.724 340.068V353.424C512.724 353.808 512.544 354 512.184 354H510.168C510 354 509.88 353.964 509.808 353.892C509.736 353.796 509.7 353.676 509.7 353.532V340.68C509.7 339.504 509.412 338.592 508.836 337.944C508.284 337.272 507.408 336.936 506.208 336.936C505.512 336.936 504.84 337.068 504.192 337.332C503.568 337.596 502.992 337.92 502.464 338.304C501.96 338.688 501.504 339.048 501.096 339.384C500.904 339.552 500.772 339.72 500.7 339.888C500.628 340.032 500.592 340.224 500.592 340.464V353.424C500.592 353.808 500.412 354 500.052 354H498.036C497.892 354 497.772 353.964 497.676 353.892C497.604 353.796 497.568 353.676 497.568 353.532V340.68C497.568 339.504 497.292 338.592 496.74 337.944C496.188 337.272 495.312 336.936 494.112 336.936C493.104 336.936 492.18 337.176 491.34 337.656C490.5 338.136 489.54 338.868 488.46 339.852V353.46C488.46 353.82 488.28 354 487.92 354H485.94ZM518.637 354C518.421 354 518.265 353.952 518.169 353.856C518.097 353.76 518.061 353.616 518.061 353.424V327.792C518.061 327.456 518.205 327.288 518.493 327.288H520.725C520.965 327.288 521.085 327.456 521.085 327.792V336.612C521.085 336.876 521.133 337.02 521.229 337.044C521.325 337.044 521.457 336.972 521.625 336.828C521.841 336.612 522.189 336.324 522.669 335.964C523.173 335.604 523.809 335.28 524.577 334.992C525.369 334.704 526.305 334.56 527.385 334.56C529.137 334.56 530.577 334.992 531.705 335.856C532.833 336.72 533.673 337.896 534.225 339.384C534.801 340.848 535.089 342.504 535.089 344.352C535.089 347.424 534.369 349.86 532.929 351.66C531.489 353.46 529.473 354.36 526.881 354.36C525.777 354.36 524.829 354.192 524.037 353.856C523.269 353.52 522.633 353.124 522.129 352.668C521.625 352.212 521.253 351.828 521.013 351.516C520.917 351.396 520.833 351.348 520.761 351.372C520.689 351.396 520.641 351.48 520.617 351.624L520.437 353.424C520.389 353.808 520.173 354 519.789 354H518.637ZM521.085 347.556C521.085 348.42 521.325 349.212 521.805 349.932C522.309 350.628 522.957 351.18 523.749 351.588C524.541 351.996 525.369 352.2 526.233 352.2C527.313 352.2 528.285 351.936 529.149 351.408C530.013 350.856 530.697 350.004 531.201 348.852C531.705 347.7 531.957 346.224 531.957 344.424C531.957 341.976 531.489 340.092 530.553 338.772C529.617 337.428 528.261 336.756 526.485 336.756C525.357 336.756 524.325 337.02 523.389 337.548C522.477 338.052 521.709 338.676 521.085 339.42V347.556ZM541.628 345.648C541.628 346.824 541.904 347.904 542.456 348.888C543.032 349.848 543.788 350.616 544.724 351.192C545.684 351.768 546.752 352.056 547.928 352.056C549.128 352.056 550.196 351.816 551.132 351.336C552.068 350.832 552.872 350.076 553.544 349.068C553.64 348.972 553.712 348.924 553.76 348.924C553.832 348.9 553.928 348.912 554.048 348.96L555.56 349.716C555.776 349.836 555.8 350.004 555.632 350.22C554.984 351.18 554.264 351.972 553.472 352.596C552.704 353.196 551.84 353.64 550.88 353.928C549.92 354.216 548.84 354.36 547.64 354.36C545.864 354.36 544.292 353.952 542.924 353.136C541.556 352.32 540.476 351.18 539.684 349.716C538.892 348.252 538.496 346.56 538.496 344.64C538.496 342.552 538.892 340.764 539.684 339.276C540.5 337.764 541.592 336.6 542.96 335.784C544.352 334.968 545.9 334.56 547.604 334.56C549.356 334.56 550.88 334.944 552.176 335.712C553.472 336.48 554.48 337.596 555.2 339.06C555.92 340.524 556.28 342.288 556.28 344.352C556.28 344.52 556.256 344.688 556.208 344.856C556.184 345.024 556.028 345.108 555.74 345.108H541.952C541.856 345.108 541.772 345.168 541.7 345.288C541.652 345.384 541.628 345.504 541.628 345.648ZM552.644 343.128C552.908 343.128 553.076 343.104 553.148 343.056C553.22 342.984 553.256 342.84 553.256 342.624C553.256 341.592 553.028 340.632 552.572 339.744C552.14 338.832 551.504 338.1 550.664 337.548C549.848 336.996 548.852 336.72 547.676 336.72C546.38 336.72 545.288 337.032 544.4 337.656C543.512 338.256 542.84 339.048 542.384 340.032C541.928 341.016 541.7 342.048 541.7 343.128H552.644ZM561.034 354C560.866 354 560.734 353.964 560.638 353.892C560.566 353.796 560.53 353.676 560.53 353.532V335.388C560.53 335.076 560.662 334.92 560.926 334.92H563.014C563.278 334.92 563.41 335.052 563.41 335.316V337.656C563.41 337.8 563.446 337.884 563.518 337.908C563.59 337.932 563.686 337.884 563.806 337.764C564.43 337.02 565.042 336.42 565.642 335.964C566.266 335.484 566.89 335.136 567.514 334.92C568.138 334.68 568.762 334.56 569.386 334.56C570.226 334.56 570.646 334.716 570.646 335.028V337.188C570.646 337.428 570.538 337.524 570.322 337.476C570.106 337.452 569.854 337.428 569.566 337.404C569.302 337.38 569.014 337.368 568.702 337.368C568.174 337.368 567.61 337.488 567.01 337.728C566.41 337.944 565.846 338.256 565.318 338.664C564.814 339.072 564.394 339.528 564.058 340.032C563.722 340.536 563.554 341.04 563.554 341.544V353.46C563.554 353.82 563.374 354 563.014 354H561.034ZM584.818 339.204C584.818 339.588 584.602 339.78 584.17 339.78H581.65C581.29 339.78 581.11 339.6 581.11 339.24V336.216C581.11 335.904 581.242 335.748 581.506 335.748H584.458C584.698 335.748 584.818 335.88 584.818 336.144V339.204ZM584.818 353.316C584.818 353.7 584.602 353.892 584.17 353.892H581.65C581.29 353.892 581.11 353.724 581.11 353.388V350.328C581.11 350.04 581.242 349.896 581.506 349.896H584.458C584.698 349.896 584.818 350.028 584.818 350.292V353.316ZM46.492 377.792C46.492 377.456 46.636 377.288 46.924 377.288H63.088C63.328 377.288 63.448 377.42 63.448 377.684V379.52C63.448 379.808 63.292 379.952 62.98 379.952H50.416C50.104 379.952 49.948 380.096 49.948 380.384V388.808C49.948 389.072 50.08 389.204 50.344 389.204H59.668C59.932 389.204 60.064 389.336 60.064 389.6V391.508C60.064 391.604 60.04 391.688 59.992 391.76C59.944 391.808 59.836 391.832 59.668 391.832H50.344C50.08 391.832 49.948 391.964 49.948 392.228V400.976C49.948 401.216 50.068 401.336 50.308 401.336H63.52C63.784 401.336 63.916 401.456 63.916 401.696V403.604C63.916 403.724 63.88 403.82 63.808 403.892C63.76 403.964 63.664 404 63.52 404H46.996C46.66 404 46.492 403.832 46.492 403.496V377.792ZM83.0866 403.244C83.2786 403.532 83.3626 403.736 83.3386 403.856C83.3146 403.952 83.1826 404 82.9426 404H80.4226C80.0626 404 79.8106 403.892 79.6666 403.676L74.5906 396.692C74.4706 396.524 74.3626 396.44 74.2666 396.44C74.1946 396.416 74.0986 396.5 73.9786 396.692L68.6866 403.676C68.5426 403.892 68.2906 404 67.9306 404H66.2386C65.9986 404 65.8306 403.94 65.7346 403.82C65.6386 403.676 65.7226 403.448 65.9866 403.136L72.5386 394.784C72.6586 394.616 72.7066 394.484 72.6826 394.388C72.6826 394.268 72.6346 394.136 72.5386 393.992L66.2386 385.496C66.1666 385.376 66.1546 385.256 66.2026 385.136C66.2746 384.992 66.3946 384.92 66.5626 384.92H68.9746C69.1666 384.92 69.2986 384.944 69.3706 384.992C69.4666 385.04 69.5626 385.124 69.6586 385.244L74.5186 391.832C74.7106 392.096 74.8906 392.096 75.0586 391.832L79.7746 385.244C79.8706 385.124 79.9666 385.04 80.0626 384.992C80.1586 384.944 80.3026 384.92 80.4946 384.92H82.3666C82.5826 384.92 82.6906 384.98 82.6906 385.1C82.7146 385.196 82.6786 385.304 82.5826 385.424L76.4986 393.56C76.3786 393.704 76.3186 393.836 76.3186 393.956C76.3426 394.076 76.4026 394.208 76.4986 394.352L83.0866 403.244ZM87.7255 395.648C87.7255 396.824 88.0015 397.904 88.5535 398.888C89.1295 399.848 89.8855 400.616 90.8215 401.192C91.7815 401.768 92.8495 402.056 94.0255 402.056C95.2255 402.056 96.2935 401.816 97.2295 401.336C98.1655 400.832 98.9695 400.076 99.6415 399.068C99.7375 398.972 99.8095 398.924 99.8575 398.924C99.9295 398.9 100.026 398.912 100.146 398.96L101.658 399.716C101.874 399.836 101.898 400.004 101.73 400.22C101.082 401.18 100.362 401.972 99.5695 402.596C98.8015 403.196 97.9375 403.64 96.9775 403.928C96.0175 404.216 94.9375 404.36 93.7375 404.36C91.9615 404.36 90.3895 403.952 89.0215 403.136C87.6535 402.32 86.5735 401.18 85.7815 399.716C84.9895 398.252 84.5935 396.56 84.5935 394.64C84.5935 392.552 84.9895 390.764 85.7815 389.276C86.5975 387.764 87.6895 386.6 89.0575 385.784C90.4495 384.968 91.9975 384.56 93.7015 384.56C95.4535 384.56 96.9775 384.944 98.2735 385.712C99.5695 386.48 100.578 387.596 101.298 389.06C102.018 390.524 102.378 392.288 102.378 394.352C102.378 394.52 102.354 394.688 102.306 394.856C102.282 395.024 102.126 395.108 101.838 395.108H88.0495C87.9535 395.108 87.8695 395.168 87.7975 395.288C87.7495 395.384 87.7255 395.504 87.7255 395.648ZM98.7415 393.128C99.0055 393.128 99.1735 393.104 99.2455 393.056C99.3175 392.984 99.3535 392.84 99.3535 392.624C99.3535 391.592 99.1255 390.632 98.6695 389.744C98.2375 388.832 97.6015 388.1 96.7615 387.548C95.9455 386.996 94.9495 386.72 93.7735 386.72C92.4775 386.72 91.3855 387.032 90.4975 387.656C89.6095 388.256 88.9375 389.048 88.4815 390.032C88.0255 391.016 87.7975 392.048 87.7975 393.128H98.7415ZM114.547 384.56C115.795 384.56 116.887 384.764 117.823 385.172C118.783 385.556 119.599 386.096 120.271 386.792C120.967 387.464 121.543 388.208 121.999 389.024C122.143 389.312 122.083 389.492 121.819 389.564L119.839 390.032C119.671 390.104 119.515 390.032 119.371 389.816C118.891 389.12 118.411 388.556 117.931 388.124C117.475 387.692 116.983 387.368 116.455 387.152C115.927 386.912 115.351 386.792 114.727 386.792C113.503 386.792 112.423 387.104 111.487 387.728C110.575 388.328 109.867 389.204 109.363 390.356C108.859 391.508 108.607 392.876 108.607 394.46C108.607 396.068 108.859 397.448 109.363 398.6C109.891 399.752 110.611 400.628 111.523 401.228C112.459 401.828 113.551 402.128 114.799 402.128C115.951 402.128 116.947 401.84 117.787 401.264C118.627 400.688 119.395 399.848 120.091 398.744C120.163 398.624 120.223 398.564 120.271 398.564C120.343 398.54 120.439 398.552 120.559 398.6L122.107 399.176C122.275 399.248 122.323 399.404 122.251 399.644C121.891 400.268 121.471 400.868 120.991 401.444C120.511 402.02 119.947 402.524 119.299 402.956C118.675 403.388 117.967 403.736 117.175 404C116.383 404.24 115.507 404.36 114.547 404.36C112.771 404.36 111.199 403.952 109.831 403.136C108.487 402.296 107.431 401.144 106.663 399.68C105.895 398.192 105.511 396.476 105.511 394.532C105.511 392.564 105.895 390.836 106.663 389.348C107.455 387.86 108.523 386.696 109.867 385.856C111.235 384.992 112.795 384.56 114.547 384.56ZM132.619 401.984C133.651 401.984 134.635 401.708 135.571 401.156C136.531 400.58 137.479 399.812 138.415 398.852V385.46C138.415 385.1 138.607 384.92 138.991 384.92H140.971C141.307 384.92 141.475 385.088 141.475 385.424L141.403 403.532C141.403 403.844 141.271 404 141.007 404H138.919C138.655 404 138.523 403.868 138.523 403.604V401.48C138.523 401.36 138.499 401.288 138.451 401.264C138.403 401.24 138.319 401.276 138.199 401.372C136.879 402.5 135.703 403.28 134.671 403.712C133.663 404.144 132.655 404.36 131.647 404.36C130.543 404.36 129.559 404.132 128.695 403.676C127.831 403.22 127.147 402.584 126.643 401.768C126.139 400.928 125.887 399.956 125.887 398.852V385.496C125.887 385.112 126.067 384.92 126.427 384.92H128.443C128.755 384.92 128.911 385.088 128.911 385.424V398.06C128.911 399.236 129.235 400.184 129.883 400.904C130.555 401.624 131.467 401.984 132.619 401.984ZM152.027 387.188C151.835 387.188 151.739 387.284 151.739 387.476V398.888C151.739 400.016 151.931 400.772 152.315 401.156C152.699 401.54 153.275 401.732 154.043 401.732H156.527C156.647 401.732 156.743 401.768 156.815 401.84C156.887 401.888 156.923 401.984 156.923 402.128L156.887 403.352C156.887 403.592 156.743 403.748 156.455 403.82C156.215 403.868 155.867 403.904 155.411 403.928C154.979 403.952 154.547 403.976 154.115 404C153.707 404 153.359 404 153.071 404C151.559 404 150.455 403.652 149.759 402.956C149.063 402.236 148.715 401.108 148.715 399.572V387.548C148.715 387.308 148.595 387.188 148.355 387.188H145.475C145.211 387.188 145.079 387.056 145.079 386.792V385.28C145.079 385.04 145.199 384.92 145.439 384.92H148.499C148.667 384.92 148.751 384.824 148.751 384.632L149.147 378.908C149.171 378.596 149.303 378.44 149.543 378.44H151.343C151.631 378.44 151.775 378.608 151.775 378.944V384.632C151.775 384.824 151.871 384.92 152.063 384.92H156.599C156.863 384.92 156.995 385.028 156.995 385.244V386.792C156.995 387.056 156.863 387.188 156.599 387.188H152.027ZM163.933 403.388C163.933 403.628 163.885 403.796 163.789 403.892C163.717 403.964 163.549 404 163.285 404H161.449C161.233 404 161.089 403.964 161.017 403.892C160.945 403.82 160.909 403.688 160.909 403.496V385.424C160.909 385.088 161.053 384.92 161.341 384.92H163.537C163.801 384.92 163.933 385.076 163.933 385.388V403.388ZM164.077 380.816C164.077 381.272 163.861 381.5 163.429 381.5H161.341C161.125 381.5 160.981 381.452 160.909 381.356C160.837 381.236 160.801 381.08 160.801 380.888V377.864C160.801 377.48 160.969 377.288 161.305 377.288H163.573C163.909 377.288 164.077 377.468 164.077 377.828V380.816ZM177.514 404.36C175.714 404.36 174.118 403.952 172.726 403.136C171.358 402.296 170.29 401.144 169.522 399.68C168.778 398.192 168.406 396.488 168.406 394.568C168.406 392.576 168.79 390.836 169.558 389.348C170.35 387.836 171.43 386.66 172.798 385.82C174.166 384.98 175.75 384.56 177.55 384.56C179.374 384.56 180.958 384.992 182.302 385.856C183.67 386.696 184.726 387.872 185.47 389.384C186.238 390.872 186.622 392.588 186.622 394.532C186.622 396.452 186.238 398.156 185.47 399.644C184.702 401.108 183.634 402.26 182.266 403.1C180.922 403.94 179.338 404.36 177.514 404.36ZM177.586 402.092C178.834 402.092 179.902 401.792 180.79 401.192C181.678 400.568 182.35 399.692 182.806 398.564C183.286 397.412 183.526 396.044 183.526 394.46C183.526 392.876 183.286 391.52 182.806 390.392C182.326 389.24 181.642 388.352 180.754 387.728C179.866 387.104 178.798 386.792 177.55 386.792C176.326 386.792 175.258 387.104 174.346 387.728C173.434 388.352 172.726 389.24 172.222 390.392C171.742 391.52 171.502 392.876 171.502 394.46C171.502 396.02 171.742 397.376 172.222 398.528C172.726 399.68 173.434 400.568 174.346 401.192C175.258 401.792 176.338 402.092 177.586 402.092ZM191.577 404C191.241 404 191.073 403.844 191.073 403.532V385.388C191.073 385.076 191.205 384.92 191.469 384.92H193.629C193.893 384.92 194.025 385.052 194.025 385.316V387.404C194.025 387.524 194.049 387.596 194.097 387.62C194.145 387.644 194.229 387.608 194.349 387.512C195.141 386.888 195.873 386.36 196.545 385.928C197.241 385.472 197.949 385.136 198.669 384.92C199.389 384.68 200.157 384.56 200.973 384.56C202.845 384.56 204.273 385.064 205.257 386.072C206.265 387.08 206.769 388.388 206.769 389.996V403.424C206.769 403.808 206.589 404 206.229 404H204.213C204.045 404 203.925 403.964 203.853 403.892C203.781 403.796 203.745 403.676 203.745 403.532V390.68C203.745 389.504 203.445 388.592 202.845 387.944C202.245 387.272 201.297 386.936 200.001 386.936C199.305 386.936 198.645 387.056 198.021 387.296C197.421 387.512 196.809 387.836 196.185 388.268C195.561 388.676 194.865 389.204 194.097 389.852V403.46C194.097 403.82 193.917 404 193.557 404H191.577ZM224.835 387.188C224.643 387.188 224.547 387.284 224.547 387.476V398.888C224.547 400.016 224.739 400.772 225.123 401.156C225.507 401.54 226.083 401.732 226.851 401.732H229.335C229.455 401.732 229.551 401.768 229.623 401.84C229.695 401.888 229.731 401.984 229.731 402.128L229.695 403.352C229.695 403.592 229.551 403.748 229.263 403.82C229.023 403.868 228.675 403.904 228.219 403.928C227.787 403.952 227.355 403.976 226.923 404C226.515 404 226.167 404 225.879 404C224.367 404 223.263 403.652 222.567 402.956C221.871 402.236 221.523 401.108 221.523 399.572V387.548C221.523 387.308 221.403 387.188 221.163 387.188H218.283C218.019 387.188 217.887 387.056 217.887 386.792V385.28C217.887 385.04 218.007 384.92 218.247 384.92H221.307C221.475 384.92 221.559 384.824 221.559 384.632L221.955 378.908C221.979 378.596 222.111 378.44 222.351 378.44H224.151C224.439 378.44 224.583 378.608 224.583 378.944V384.632C224.583 384.824 224.679 384.92 224.871 384.92H229.407C229.671 384.92 229.803 385.028 229.803 385.244V386.792C229.803 387.056 229.671 387.188 229.407 387.188H224.835ZM236.741 403.388C236.741 403.628 236.693 403.796 236.597 403.892C236.525 403.964 236.357 404 236.093 404H234.257C234.041 404 233.897 403.964 233.825 403.892C233.753 403.82 233.717 403.688 233.717 403.496V385.424C233.717 385.088 233.861 384.92 234.149 384.92H236.345C236.609 384.92 236.741 385.076 236.741 385.388V403.388ZM236.885 380.816C236.885 381.272 236.669 381.5 236.237 381.5H234.149C233.933 381.5 233.789 381.452 233.717 381.356C233.645 381.236 233.609 381.08 233.609 380.888V377.864C233.609 377.48 233.777 377.288 234.113 377.288H236.381C236.717 377.288 236.885 377.468 236.885 377.828V380.816ZM242.835 404C242.499 404 242.331 403.844 242.331 403.532V385.388C242.331 385.076 242.463 384.92 242.727 384.92H244.887C245.127 384.92 245.247 385.052 245.247 385.316V387.404C245.247 387.524 245.271 387.596 245.319 387.62C245.391 387.644 245.487 387.608 245.607 387.512C246.375 386.888 247.083 386.36 247.731 385.928C248.403 385.472 249.075 385.136 249.747 384.92C250.443 384.68 251.187 384.56 251.979 384.56C253.395 384.56 254.523 384.884 255.363 385.532C256.227 386.18 256.803 386.912 257.091 387.728C257.139 387.824 257.211 387.86 257.307 387.836C257.403 387.812 257.499 387.752 257.595 387.656C258.363 387.008 259.083 386.456 259.755 386C260.451 385.544 261.147 385.196 261.843 384.956C262.563 384.692 263.319 384.56 264.111 384.56C265.863 384.56 267.219 385.064 268.179 386.072C269.139 387.056 269.619 388.388 269.619 390.068V403.424C269.619 403.808 269.439 404 269.079 404H267.063C266.895 404 266.775 403.964 266.703 403.892C266.631 403.796 266.595 403.676 266.595 403.532V390.68C266.595 389.504 266.307 388.592 265.731 387.944C265.179 387.272 264.303 386.936 263.103 386.936C262.407 386.936 261.735 387.068 261.087 387.332C260.463 387.596 259.887 387.92 259.359 388.304C258.855 388.688 258.399 389.048 257.991 389.384C257.799 389.552 257.667 389.72 257.595 389.888C257.523 390.032 257.487 390.224 257.487 390.464V403.424C257.487 403.808 257.307 404 256.947 404H254.931C254.787 404 254.667 403.964 254.571 403.892C254.499 403.796 254.463 403.676 254.463 403.532V390.68C254.463 389.504 254.187 388.592 253.635 387.944C253.083 387.272 252.207 386.936 251.007 386.936C249.999 386.936 249.075 387.176 248.235 387.656C247.395 388.136 246.435 388.868 245.355 389.852V403.46C245.355 403.82 245.175 404 244.815 404H242.835ZM276.972 395.648C276.972 396.824 277.248 397.904 277.8 398.888C278.376 399.848 279.132 400.616 280.068 401.192C281.028 401.768 282.096 402.056 283.272 402.056C284.472 402.056 285.54 401.816 286.476 401.336C287.412 400.832 288.216 400.076 288.888 399.068C288.984 398.972 289.056 398.924 289.104 398.924C289.176 398.9 289.272 398.912 289.392 398.96L290.904 399.716C291.12 399.836 291.144 400.004 290.976 400.22C290.328 401.18 289.608 401.972 288.816 402.596C288.048 403.196 287.184 403.64 286.224 403.928C285.264 404.216 284.184 404.36 282.984 404.36C281.208 404.36 279.636 403.952 278.268 403.136C276.9 402.32 275.82 401.18 275.028 399.716C274.236 398.252 273.84 396.56 273.84 394.64C273.84 392.552 274.236 390.764 275.028 389.276C275.844 387.764 276.936 386.6 278.304 385.784C279.696 384.968 281.244 384.56 282.948 384.56C284.7 384.56 286.224 384.944 287.52 385.712C288.816 386.48 289.824 387.596 290.544 389.06C291.264 390.524 291.624 392.288 291.624 394.352C291.624 394.52 291.6 394.688 291.552 394.856C291.528 395.024 291.372 395.108 291.084 395.108H277.296C277.2 395.108 277.116 395.168 277.044 395.288C276.996 395.384 276.972 395.504 276.972 395.648ZM287.988 393.128C288.252 393.128 288.42 393.104 288.492 393.056C288.564 392.984 288.6 392.84 288.6 392.624C288.6 391.592 288.372 390.632 287.916 389.744C287.484 388.832 286.848 388.1 286.008 387.548C285.192 386.996 284.196 386.72 283.02 386.72C281.724 386.72 280.632 387.032 279.744 387.656C278.856 388.256 278.184 389.048 277.728 390.032C277.272 391.016 277.044 392.048 277.044 393.128H287.988ZM298.682 389.204C298.682 389.588 298.466 389.78 298.034 389.78H295.514C295.154 389.78 294.974 389.6 294.974 389.24V386.216C294.974 385.904 295.106 385.748 295.37 385.748H298.322C298.562 385.748 298.682 385.88 298.682 386.144V389.204ZM298.682 403.316C298.682 403.7 298.466 403.892 298.034 403.892H295.514C295.154 403.892 294.974 403.724 294.974 403.388V400.328C294.974 400.04 295.106 399.896 295.37 399.896H298.322C298.562 399.896 298.682 400.028 298.682 400.292V403.316ZM44.512 427.684C44.512 427.564 44.536 427.468 44.584 427.396C44.656 427.324 44.776 427.288 44.944 427.288H64.312C64.456 427.288 64.564 427.324 64.636 427.396C64.708 427.468 64.744 427.564 64.744 427.684V429.556C64.744 429.796 64.6 429.916 64.312 429.916H57.004C56.74 429.916 56.608 430.036 56.608 430.276V453.532C56.608 453.844 56.464 454 56.176 454H53.584C53.296 454 53.152 453.844 53.152 453.532V430.312C53.152 430.048 53.032 429.916 52.792 429.916H44.944C44.656 429.916 44.512 429.796 44.512 429.556V427.684ZM76.9317 451.696C76.0437 452.56 75.0717 453.22 74.0157 453.676C72.9837 454.132 71.8197 454.36 70.5237 454.36C68.6517 454.36 67.1757 453.88 66.0957 452.92C65.0397 451.96 64.5117 450.7 64.5117 449.14C64.5117 447.868 64.8717 446.776 65.5917 445.864C66.3117 444.928 67.3797 444.196 68.7957 443.668C70.2117 443.116 71.9517 442.78 74.0157 442.66L76.8237 442.444C76.9677 442.42 77.0997 442.372 77.2197 442.3C77.3397 442.228 77.3997 442.096 77.3997 441.904V440.932C77.3997 439.636 76.9917 438.616 76.1757 437.872C75.3837 437.104 74.3037 436.72 72.9357 436.72C71.8797 436.72 70.9197 436.96 70.0557 437.44C69.2157 437.92 68.4597 438.64 67.7877 439.6C67.6917 439.72 67.6077 439.804 67.5357 439.852C67.4877 439.876 67.3917 439.864 67.2477 439.816L65.3037 439.168C65.2317 439.12 65.1717 439.06 65.1237 438.988C65.0997 438.916 65.1357 438.784 65.2317 438.592C65.9517 437.344 66.9597 436.36 68.2557 435.64C69.5757 434.92 71.1837 434.56 73.0797 434.56C74.6877 434.56 76.0197 434.812 77.0757 435.316C78.1557 435.796 78.9597 436.504 79.4877 437.44C80.0397 438.352 80.3157 439.444 80.3157 440.716V453.46C80.3157 453.676 80.2797 453.82 80.2077 453.892C80.1357 453.964 80.0157 454 79.8477 454H78.0117C77.8437 454 77.7237 453.952 77.6517 453.856C77.5797 453.736 77.5317 453.592 77.5077 453.424L77.4717 451.768C77.3997 451.432 77.2197 451.408 76.9317 451.696ZM77.3997 444.856C77.3997 444.448 77.2317 444.256 76.8957 444.28L74.5197 444.496C73.4157 444.544 72.4317 444.688 71.5677 444.928C70.7037 445.144 69.9717 445.432 69.3717 445.792C68.7717 446.152 68.3157 446.584 68.0037 447.088C67.6917 447.568 67.5357 448.132 67.5357 448.78C67.5357 449.836 67.8957 450.664 68.6157 451.264C69.3597 451.84 70.3557 452.128 71.6037 452.128C72.3717 452.128 73.1037 451.996 73.7997 451.732C74.5197 451.444 75.1437 451.084 75.6717 450.652C76.2237 450.196 76.6437 449.728 76.9317 449.248C77.2437 448.768 77.3997 448.3 77.3997 447.844V444.856ZM92.1543 451.984C93.1863 451.984 94.1703 451.708 95.1063 451.156C96.0663 450.58 97.0143 449.812 97.9503 448.852V435.46C97.9503 435.1 98.1423 434.92 98.5263 434.92H100.506C100.842 434.92 101.01 435.088 101.01 435.424L100.938 453.532C100.938 453.844 100.806 454 100.542 454H98.4543C98.1903 454 98.0583 453.868 98.0583 453.604V451.48C98.0583 451.36 98.0343 451.288 97.9863 451.264C97.9383 451.24 97.8543 451.276 97.7343 451.372C96.4143 452.5 95.2383 453.28 94.2063 453.712C93.1983 454.144 92.1903 454.36 91.1823 454.36C90.0783 454.36 89.0943 454.132 88.2303 453.676C87.3663 453.22 86.6823 452.584 86.1783 451.768C85.6743 450.928 85.4223 449.956 85.4223 448.852V435.496C85.4223 435.112 85.6023 434.92 85.9623 434.92H87.9783C88.2903 434.92 88.4463 435.088 88.4463 435.424V448.06C88.4463 449.236 88.7703 450.184 89.4183 450.904C90.0903 451.624 91.0023 451.984 92.1543 451.984ZM122.11 453.244C122.302 453.532 122.386 453.736 122.362 453.856C122.338 453.952 122.206 454 121.966 454H119.446C119.086 454 118.834 453.892 118.69 453.676L113.614 446.692C113.494 446.524 113.386 446.44 113.29 446.44C113.218 446.416 113.122 446.5 113.002 446.692L107.71 453.676C107.566 453.892 107.314 454 106.954 454H105.262C105.022 454 104.854 453.94 104.758 453.82C104.662 453.676 104.746 453.448 105.01 453.136L111.562 444.784C111.682 444.616 111.73 444.484 111.706 444.388C111.706 444.268 111.658 444.136 111.562 443.992L105.262 435.496C105.19 435.376 105.178 435.256 105.226 435.136C105.298 434.992 105.418 434.92 105.586 434.92H107.998C108.19 434.92 108.322 434.944 108.394 434.992C108.49 435.04 108.586 435.124 108.682 435.244L113.542 441.832C113.734 442.096 113.914 442.096 114.082 441.832L118.798 435.244C118.894 435.124 118.99 435.04 119.086 434.992C119.182 434.944 119.326 434.92 119.518 434.92H121.39C121.606 434.92 121.714 434.98 121.714 435.1C121.738 435.196 121.702 435.304 121.606 435.424L115.522 443.56C115.402 443.704 115.342 443.836 115.342 443.956C115.366 444.076 115.426 444.208 115.522 444.352L122.11 453.244ZM147.375 454C147.207 454 147.075 453.964 146.979 453.892C146.907 453.796 146.871 453.664 146.871 453.496V451.984C146.871 451.792 146.823 451.684 146.727 451.66C146.655 451.636 146.547 451.696 146.403 451.84C146.139 452.08 145.755 452.404 145.251 452.812C144.771 453.22 144.159 453.58 143.415 453.892C142.671 454.204 141.783 454.36 140.751 454.36C139.239 454.36 137.883 454 136.683 453.28C135.483 452.56 134.523 451.492 133.803 450.076C133.107 448.636 132.759 446.86 132.759 444.748C132.759 442.708 133.107 440.932 133.803 439.42C134.523 437.884 135.519 436.696 136.791 435.856C138.087 434.992 139.551 434.56 141.183 434.56C142.359 434.56 143.343 434.752 144.135 435.136C144.927 435.52 145.623 435.964 146.223 436.468C146.439 436.636 146.583 436.708 146.655 436.684C146.751 436.636 146.799 436.48 146.799 436.216V427.756C146.799 427.444 146.931 427.288 147.195 427.288H149.391C149.655 427.288 149.787 427.444 149.787 427.756V453.424C149.787 453.64 149.751 453.796 149.679 453.892C149.607 453.964 149.451 454 149.211 454H147.375ZM146.763 439.132C146.019 438.388 145.263 437.812 144.495 437.404C143.727 436.996 142.863 436.792 141.903 436.792C140.751 436.792 139.707 437.092 138.771 437.692C137.859 438.268 137.139 439.144 136.611 440.32C136.107 441.496 135.855 442.936 135.855 444.64C135.855 446.392 136.119 447.832 136.647 448.96C137.175 450.064 137.883 450.88 138.771 451.408C139.659 451.912 140.631 452.164 141.687 452.164C142.671 452.164 143.535 451.936 144.279 451.48C145.047 451.024 145.647 450.46 146.079 449.788C146.535 449.116 146.763 448.456 146.763 447.808V439.132ZM157.37 445.648C157.37 446.824 157.646 447.904 158.198 448.888C158.774 449.848 159.53 450.616 160.466 451.192C161.426 451.768 162.494 452.056 163.67 452.056C164.87 452.056 165.938 451.816 166.874 451.336C167.81 450.832 168.614 450.076 169.286 449.068C169.382 448.972 169.454 448.924 169.502 448.924C169.574 448.9 169.67 448.912 169.79 448.96L171.302 449.716C171.518 449.836 171.542 450.004 171.374 450.22C170.726 451.18 170.006 451.972 169.214 452.596C168.446 453.196 167.582 453.64 166.622 453.928C165.662 454.216 164.582 454.36 163.382 454.36C161.606 454.36 160.034 453.952 158.666 453.136C157.298 452.32 156.218 451.18 155.426 449.716C154.634 448.252 154.238 446.56 154.238 444.64C154.238 442.552 154.634 440.764 155.426 439.276C156.242 437.764 157.334 436.6 158.702 435.784C160.094 434.968 161.642 434.56 163.346 434.56C165.098 434.56 166.622 434.944 167.918 435.712C169.214 436.48 170.222 437.596 170.942 439.06C171.662 440.524 172.022 442.288 172.022 444.352C172.022 444.52 171.998 444.688 171.95 444.856C171.926 445.024 171.77 445.108 171.482 445.108H157.694C157.598 445.108 157.514 445.168 157.442 445.288C157.394 445.384 157.37 445.504 157.37 445.648ZM168.386 443.128C168.65 443.128 168.818 443.104 168.89 443.056C168.962 442.984 168.998 442.84 168.998 442.624C168.998 441.592 168.77 440.632 168.314 439.744C167.882 438.832 167.246 438.1 166.406 437.548C165.59 436.996 164.594 436.72 163.418 436.72C162.122 436.72 161.03 437.032 160.142 437.656C159.254 438.256 158.582 439.048 158.126 440.032C157.67 441.016 157.442 442.048 157.442 443.128H168.386ZM184.475 454C184.307 454 184.175 453.964 184.079 453.892C184.007 453.796 183.971 453.676 183.971 453.532V435.388C183.971 435.076 184.103 434.92 184.367 434.92H186.455C186.719 434.92 186.851 435.052 186.851 435.316V437.656C186.851 437.8 186.887 437.884 186.959 437.908C187.031 437.932 187.127 437.884 187.247 437.764C187.871 437.02 188.483 436.42 189.083 435.964C189.707 435.484 190.331 435.136 190.955 434.92C191.579 434.68 192.203 434.56 192.827 434.56C193.667 434.56 194.087 434.716 194.087 435.028V437.188C194.087 437.428 193.979 437.524 193.763 437.476C193.547 437.452 193.295 437.428 193.007 437.404C192.743 437.38 192.455 437.368 192.143 437.368C191.615 437.368 191.051 437.488 190.451 437.728C189.851 437.944 189.287 438.256 188.759 438.664C188.255 439.072 187.835 439.528 187.499 440.032C187.163 440.536 186.995 441.04 186.995 441.544V453.46C186.995 453.82 186.815 454 186.455 454H184.475ZM199.311 445.648C199.311 446.824 199.587 447.904 200.139 448.888C200.715 449.848 201.471 450.616 202.407 451.192C203.367 451.768 204.435 452.056 205.611 452.056C206.811 452.056 207.879 451.816 208.815 451.336C209.751 450.832 210.555 450.076 211.227 449.068C211.323 448.972 211.395 448.924 211.443 448.924C211.515 448.9 211.611 448.912 211.731 448.96L213.243 449.716C213.459 449.836 213.483 450.004 213.315 450.22C212.667 451.18 211.947 451.972 211.155 452.596C210.387 453.196 209.523 453.64 208.563 453.928C207.603 454.216 206.523 454.36 205.323 454.36C203.547 454.36 201.975 453.952 200.607 453.136C199.239 452.32 198.159 451.18 197.367 449.716C196.575 448.252 196.179 446.56 196.179 444.64C196.179 442.552 196.575 440.764 197.367 439.276C198.183 437.764 199.275 436.6 200.643 435.784C202.035 434.968 203.583 434.56 205.287 434.56C207.039 434.56 208.563 434.944 209.859 435.712C211.155 436.48 212.163 437.596 212.883 439.06C213.603 440.524 213.963 442.288 213.963 444.352C213.963 444.52 213.939 444.688 213.891 444.856C213.867 445.024 213.711 445.108 213.423 445.108H199.635C199.539 445.108 199.455 445.168 199.383 445.288C199.335 445.384 199.311 445.504 199.311 445.648ZM210.327 443.128C210.591 443.128 210.759 443.104 210.831 443.056C210.903 442.984 210.939 442.84 210.939 442.624C210.939 441.592 210.711 440.632 210.255 439.744C209.823 438.832 209.187 438.1 208.347 437.548C207.531 436.996 206.535 436.72 205.359 436.72C204.063 436.72 202.971 437.032 202.083 437.656C201.195 438.256 200.523 439.048 200.067 440.032C199.611 441.016 199.383 442.048 199.383 443.128H210.327ZM229.661 439.132C229.181 438.412 228.509 437.824 227.645 437.368C226.781 436.912 225.749 436.684 224.549 436.684C223.253 436.684 222.173 436.96 221.309 437.512C220.469 438.064 220.049 438.808 220.049 439.744C220.049 440.248 220.241 440.728 220.625 441.184C221.009 441.616 221.789 442.024 222.965 442.408L227.537 443.776C229.193 444.232 230.381 444.892 231.101 445.756C231.845 446.62 232.217 447.616 232.217 448.744C232.217 449.872 231.881 450.856 231.209 451.696C230.537 452.536 229.613 453.196 228.437 453.676C227.261 454.132 225.929 454.36 224.441 454.36C222.545 454.36 220.889 453.988 219.473 453.244C218.057 452.476 217.049 451.528 216.449 450.4C216.377 450.28 216.341 450.172 216.341 450.076C216.341 449.98 216.401 449.896 216.521 449.824L217.925 449.032C218.045 448.96 218.153 448.936 218.249 448.96C218.345 448.96 218.417 448.996 218.465 449.068C218.873 449.692 219.341 450.232 219.869 450.688C220.421 451.144 221.069 451.504 221.813 451.768C222.581 452.032 223.469 452.164 224.477 452.164C225.389 452.14 226.217 452.008 226.961 451.768C227.705 451.528 228.293 451.18 228.725 450.724C229.157 450.244 229.373 449.692 229.373 449.068C229.373 448.42 229.109 447.868 228.581 447.412C228.053 446.932 227.141 446.512 225.845 446.152L222.137 445.108C220.337 444.628 219.065 443.98 218.321 443.164C217.601 442.348 217.229 441.388 217.205 440.284C217.205 439.132 217.517 438.136 218.141 437.296C218.765 436.432 219.629 435.76 220.733 435.28C221.861 434.8 223.145 434.56 224.585 434.56C226.193 434.56 227.621 434.872 228.869 435.496C230.141 436.096 231.101 436.9 231.749 437.908C231.821 438.004 231.857 438.1 231.857 438.196C231.857 438.268 231.809 438.34 231.713 438.412L230.201 439.24C230.105 439.288 230.009 439.312 229.913 439.312C229.841 439.288 229.757 439.228 229.661 439.132ZM248.083 439.132C247.603 438.412 246.931 437.824 246.067 437.368C245.203 436.912 244.171 436.684 242.971 436.684C241.675 436.684 240.595 436.96 239.731 437.512C238.891 438.064 238.471 438.808 238.471 439.744C238.471 440.248 238.663 440.728 239.047 441.184C239.431 441.616 240.211 442.024 241.387 442.408L245.959 443.776C247.615 444.232 248.803 444.892 249.523 445.756C250.267 446.62 250.639 447.616 250.639 448.744C250.639 449.872 250.303 450.856 249.631 451.696C248.959 452.536 248.035 453.196 246.859 453.676C245.683 454.132 244.351 454.36 242.863 454.36C240.967 454.36 239.311 453.988 237.895 453.244C236.479 452.476 235.471 451.528 234.871 450.4C234.799 450.28 234.763 450.172 234.763 450.076C234.763 449.98 234.823 449.896 234.943 449.824L236.347 449.032C236.467 448.96 236.575 448.936 236.671 448.96C236.767 448.96 236.839 448.996 236.887 449.068C237.295 449.692 237.763 450.232 238.291 450.688C238.843 451.144 239.491 451.504 240.235 451.768C241.003 452.032 241.891 452.164 242.899 452.164C243.811 452.14 244.639 452.008 245.383 451.768C246.127 451.528 246.715 451.18 247.147 450.724C247.579 450.244 247.795 449.692 247.795 449.068C247.795 448.42 247.531 447.868 247.003 447.412C246.475 446.932 245.563 446.512 244.267 446.152L240.559 445.108C238.759 444.628 237.487 443.98 236.743 443.164C236.023 442.348 235.651 441.388 235.627 440.284C235.627 439.132 235.939 438.136 236.563 437.296C237.187 436.432 238.051 435.76 239.155 435.28C240.283 434.8 241.567 434.56 243.007 434.56C244.615 434.56 246.043 434.872 247.291 435.496C248.563 436.096 249.523 436.9 250.171 437.908C250.243 438.004 250.279 438.1 250.279 438.196C250.279 438.268 250.231 438.34 250.135 438.412L248.623 439.24C248.527 439.288 248.431 439.312 248.335 439.312C248.263 439.288 248.179 439.228 248.083 439.132ZM257.073 445.648C257.073 446.824 257.349 447.904 257.901 448.888C258.477 449.848 259.233 450.616 260.169 451.192C261.129 451.768 262.197 452.056 263.373 452.056C264.573 452.056 265.641 451.816 266.577 451.336C267.513 450.832 268.317 450.076 268.989 449.068C269.085 448.972 269.157 448.924 269.205 448.924C269.277 448.9 269.373 448.912 269.493 448.96L271.005 449.716C271.221 449.836 271.245 450.004 271.077 450.22C270.429 451.18 269.709 451.972 268.917 452.596C268.149 453.196 267.285 453.64 266.325 453.928C265.365 454.216 264.285 454.36 263.085 454.36C261.309 454.36 259.737 453.952 258.369 453.136C257.001 452.32 255.921 451.18 255.129 449.716C254.337 448.252 253.941 446.56 253.941 444.64C253.941 442.552 254.337 440.764 255.129 439.276C255.945 437.764 257.037 436.6 258.405 435.784C259.797 434.968 261.345 434.56 263.049 434.56C264.801 434.56 266.325 434.944 267.621 435.712C268.917 436.48 269.925 437.596 270.645 439.06C271.365 440.524 271.725 442.288 271.725 444.352C271.725 444.52 271.701 444.688 271.653 444.856C271.629 445.024 271.473 445.108 271.185 445.108H257.397C257.301 445.108 257.217 445.168 257.145 445.288C257.097 445.384 257.073 445.504 257.073 445.648ZM268.089 443.128C268.353 443.128 268.521 443.104 268.593 443.056C268.665 442.984 268.701 442.84 268.701 442.624C268.701 441.592 268.473 440.632 268.017 439.744C267.585 438.832 266.949 438.1 266.109 437.548C265.293 436.996 264.297 436.72 263.121 436.72C261.825 436.72 260.733 437.032 259.845 437.656C258.957 438.256 258.285 439.048 257.829 440.032C257.373 441.016 257.145 442.048 257.145 443.128H268.089ZM276.479 454C276.143 454 275.975 453.844 275.975 453.532V435.388C275.975 435.076 276.107 434.92 276.371 434.92H278.531C278.771 434.92 278.891 435.052 278.891 435.316V437.404C278.891 437.524 278.915 437.596 278.963 437.62C279.035 437.644 279.131 437.608 279.251 437.512C280.019 436.888 280.727 436.36 281.375 435.928C282.047 435.472 282.719 435.136 283.391 434.92C284.087 434.68 284.831 434.56 285.623 434.56C287.039 434.56 288.167 434.884 289.007 435.532C289.871 436.18 290.447 436.912 290.735 437.728C290.783 437.824 290.855 437.86 290.951 437.836C291.047 437.812 291.143 437.752 291.239 437.656C292.007 437.008 292.727 436.456 293.399 436C294.095 435.544 294.791 435.196 295.487 434.956C296.207 434.692 296.963 434.56 297.755 434.56C299.507 434.56 300.863 435.064 301.823 436.072C302.783 437.056 303.263 438.388 303.263 440.068V453.424C303.263 453.808 303.083 454 302.723 454H300.707C300.539 454 300.419 453.964 300.347 453.892C300.275 453.796 300.239 453.676 300.239 453.532V440.68C300.239 439.504 299.951 438.592 299.375 437.944C298.823 437.272 297.947 436.936 296.747 436.936C296.051 436.936 295.379 437.068 294.731 437.332C294.107 437.596 293.531 437.92 293.003 438.304C292.499 438.688 292.043 439.048 291.635 439.384C291.443 439.552 291.311 439.72 291.239 439.888C291.167 440.032 291.131 440.224 291.131 440.464V453.424C291.131 453.808 290.951 454 290.591 454H288.575C288.431 454 288.311 453.964 288.215 453.892C288.143 453.796 288.107 453.676 288.107 453.532V440.68C288.107 439.504 287.831 438.592 287.279 437.944C286.727 437.272 285.851 436.936 284.651 436.936C283.643 436.936 282.719 437.176 281.879 437.656C281.039 438.136 280.079 438.868 278.999 439.852V453.46C278.999 453.82 278.819 454 278.459 454H276.479ZM309.176 454C308.96 454 308.804 453.952 308.708 453.856C308.636 453.76 308.6 453.616 308.6 453.424V427.792C308.6 427.456 308.744 427.288 309.032 427.288H311.264C311.504 427.288 311.624 427.456 311.624 427.792V436.612C311.624 436.876 311.672 437.02 311.768 437.044C311.864 437.044 311.996 436.972 312.164 436.828C312.38 436.612 312.728 436.324 313.208 435.964C313.712 435.604 314.348 435.28 315.116 434.992C315.908 434.704 316.844 434.56 317.924 434.56C319.676 434.56 321.116 434.992 322.244 435.856C323.372 436.72 324.212 437.896 324.764 439.384C325.34 440.848 325.628 442.504 325.628 444.352C325.628 447.424 324.908 449.86 323.468 451.66C322.028 453.46 320.012 454.36 317.42 454.36C316.316 454.36 315.368 454.192 314.576 453.856C313.808 453.52 313.172 453.124 312.668 452.668C312.164 452.212 311.792 451.828 311.552 451.516C311.456 451.396 311.372 451.348 311.3 451.372C311.228 451.396 311.18 451.48 311.156 451.624L310.976 453.424C310.928 453.808 310.712 454 310.328 454H309.176ZM311.624 447.556C311.624 448.42 311.864 449.212 312.344 449.932C312.848 450.628 313.496 451.18 314.288 451.588C315.08 451.996 315.908 452.2 316.772 452.2C317.852 452.2 318.824 451.936 319.688 451.408C320.552 450.856 321.236 450.004 321.74 448.852C322.244 447.7 322.496 446.224 322.496 444.424C322.496 441.976 322.028 440.092 321.092 438.772C320.156 437.428 318.8 436.756 317.024 436.756C315.896 436.756 314.864 437.02 313.928 437.548C313.016 438.052 312.248 438.676 311.624 439.42V447.556ZM333.211 453.388C333.211 453.628 333.163 453.796 333.067 453.892C332.971 453.964 332.803 454 332.563 454H330.691C330.331 454 330.151 453.832 330.151 453.496L330.187 427.792C330.187 427.456 330.331 427.288 330.619 427.288H332.779C333.067 427.288 333.211 427.444 333.211 427.756V453.388ZM349.744 451.696C348.856 452.56 347.884 453.22 346.828 453.676C345.796 454.132 344.632 454.36 343.336 454.36C341.464 454.36 339.988 453.88 338.908 452.92C337.852 451.96 337.324 450.7 337.324 449.14C337.324 447.868 337.684 446.776 338.404 445.864C339.124 444.928 340.192 444.196 341.608 443.668C343.024 443.116 344.764 442.78 346.828 442.66L349.636 442.444C349.78 442.42 349.912 442.372 350.032 442.3C350.152 442.228 350.212 442.096 350.212 441.904V440.932C350.212 439.636 349.804 438.616 348.988 437.872C348.196 437.104 347.116 436.72 345.748 436.72C344.692 436.72 343.732 436.96 342.868 437.44C342.028 437.92 341.272 438.64 340.6 439.6C340.504 439.72 340.42 439.804 340.348 439.852C340.3 439.876 340.204 439.864 340.06 439.816L338.116 439.168C338.044 439.12 337.984 439.06 337.936 438.988C337.912 438.916 337.948 438.784 338.044 438.592C338.764 437.344 339.772 436.36 341.068 435.64C342.388 434.92 343.996 434.56 345.892 434.56C347.5 434.56 348.832 434.812 349.888 435.316C350.968 435.796 351.772 436.504 352.3 437.44C352.852 438.352 353.128 439.444 353.128 440.716V453.46C353.128 453.676 353.092 453.82 353.02 453.892C352.948 453.964 352.828 454 352.66 454H350.824C350.656 454 350.536 453.952 350.464 453.856C350.392 453.736 350.344 453.592 350.32 453.424L350.284 451.768C350.212 451.432 350.032 451.408 349.744 451.696ZM350.212 444.856C350.212 444.448 350.044 444.256 349.708 444.28L347.332 444.496C346.228 444.544 345.244 444.688 344.38 444.928C343.516 445.144 342.784 445.432 342.184 445.792C341.584 446.152 341.128 446.584 340.816 447.088C340.504 447.568 340.348 448.132 340.348 448.78C340.348 449.836 340.708 450.664 341.428 451.264C342.172 451.84 343.168 452.128 344.416 452.128C345.184 452.128 345.916 451.996 346.612 451.732C347.332 451.444 347.956 451.084 348.484 450.652C349.036 450.196 349.456 449.728 349.744 449.248C350.056 448.768 350.212 448.3 350.212 447.844V444.856ZM358.991 454C358.655 454 358.487 453.844 358.487 453.532V435.388C358.487 435.076 358.619 434.92 358.883 434.92H361.043C361.307 434.92 361.439 435.052 361.439 435.316V437.404C361.439 437.524 361.463 437.596 361.511 437.62C361.559 437.644 361.643 437.608 361.763 437.512C362.555 436.888 363.287 436.36 363.959 435.928C364.655 435.472 365.363 435.136 366.083 434.92C366.803 434.68 367.571 434.56 368.387 434.56C370.259 434.56 371.687 435.064 372.671 436.072C373.679 437.08 374.183 438.388 374.183 439.996V453.424C374.183 453.808 374.003 454 373.643 454H371.627C371.459 454 371.339 453.964 371.267 453.892C371.195 453.796 371.159 453.676 371.159 453.532V440.68C371.159 439.504 370.859 438.592 370.259 437.944C369.659 437.272 368.711 436.936 367.415 436.936C366.719 436.936 366.059 437.056 365.435 437.296C364.835 437.512 364.223 437.836 363.599 438.268C362.975 438.676 362.279 439.204 361.511 439.852V453.46C361.511 453.82 361.331 454 360.971 454H358.991ZM387.43 434.56C388.678 434.56 389.77 434.764 390.706 435.172C391.666 435.556 392.482 436.096 393.154 436.792C393.85 437.464 394.426 438.208 394.882 439.024C395.026 439.312 394.966 439.492 394.702 439.564L392.722 440.032C392.554 440.104 392.398 440.032 392.254 439.816C391.774 439.12 391.294 438.556 390.814 438.124C390.358 437.692 389.866 437.368 389.338 437.152C388.81 436.912 388.234 436.792 387.61 436.792C386.386 436.792 385.306 437.104 384.37 437.728C383.458 438.328 382.75 439.204 382.246 440.356C381.742 441.508 381.49 442.876 381.49 444.46C381.49 446.068 381.742 447.448 382.246 448.6C382.774 449.752 383.494 450.628 384.406 451.228C385.342 451.828 386.434 452.128 387.682 452.128C388.834 452.128 389.83 451.84 390.67 451.264C391.51 450.688 392.278 449.848 392.974 448.744C393.046 448.624 393.106 448.564 393.154 448.564C393.226 448.54 393.322 448.552 393.442 448.6L394.99 449.176C395.158 449.248 395.206 449.404 395.134 449.644C394.774 450.268 394.354 450.868 393.874 451.444C393.394 452.02 392.83 452.524 392.182 452.956C391.558 453.388 390.85 453.736 390.058 454C389.266 454.24 388.39 454.36 387.43 454.36C385.654 454.36 384.082 453.952 382.714 453.136C381.37 452.296 380.314 451.144 379.546 449.68C378.778 448.192 378.394 446.476 378.394 444.532C378.394 442.564 378.778 440.836 379.546 439.348C380.338 437.86 381.406 436.696 382.75 435.856C384.118 434.992 385.678 434.56 387.43 434.56ZM400.792 445.648C400.792 446.824 401.068 447.904 401.62 448.888C402.196 449.848 402.952 450.616 403.888 451.192C404.848 451.768 405.916 452.056 407.092 452.056C408.292 452.056 409.36 451.816 410.296 451.336C411.232 450.832 412.036 450.076 412.708 449.068C412.804 448.972 412.876 448.924 412.924 448.924C412.996 448.9 413.092 448.912 413.212 448.96L414.724 449.716C414.94 449.836 414.964 450.004 414.796 450.22C414.148 451.18 413.428 451.972 412.636 452.596C411.868 453.196 411.004 453.64 410.044 453.928C409.084 454.216 408.004 454.36 406.804 454.36C405.028 454.36 403.456 453.952 402.088 453.136C400.72 452.32 399.64 451.18 398.848 449.716C398.056 448.252 397.66 446.56 397.66 444.64C397.66 442.552 398.056 440.764 398.848 439.276C399.664 437.764 400.756 436.6 402.124 435.784C403.516 434.968 405.064 434.56 406.768 434.56C408.52 434.56 410.044 434.944 411.34 435.712C412.636 436.48 413.644 437.596 414.364 439.06C415.084 440.524 415.444 442.288 415.444 444.352C415.444 444.52 415.42 444.688 415.372 444.856C415.348 445.024 415.192 445.108 414.904 445.108H401.116C401.02 445.108 400.936 445.168 400.864 445.288C400.816 445.384 400.792 445.504 400.792 445.648ZM411.808 443.128C412.072 443.128 412.24 443.104 412.312 443.056C412.384 442.984 412.42 442.84 412.42 442.624C412.42 441.592 412.192 440.632 411.736 439.744C411.304 438.832 410.668 438.1 409.828 437.548C409.012 436.996 408.016 436.72 406.84 436.72C405.544 436.72 404.452 437.032 403.564 437.656C402.676 438.256 402.004 439.048 401.548 440.032C401.092 441.016 400.864 442.048 400.864 443.128H411.808ZM422.502 439.204C422.502 439.588 422.286 439.78 421.854 439.78H419.334C418.974 439.78 418.794 439.6 418.794 439.24V436.216C418.794 435.904 418.926 435.748 419.19 435.748H422.142C422.382 435.748 422.502 435.88 422.502 436.144V439.204ZM422.502 453.316C422.502 453.7 422.286 453.892 421.854 453.892H419.334C418.974 453.892 418.794 453.724 418.794 453.388V450.328C418.794 450.04 418.926 449.896 419.19 449.896H422.142C422.382 449.896 422.502 450.028 422.502 450.292V453.316Z" fill="black"/>
</svg>
