<svg width="1008" height="83" viewBox="0 0 1008 83" fill="none" xmlns="http://www.w3.org/2000/svg">
<path d="M30.3013 24.715L35.7613 9.525C36.088 8.615 36.3213 7.89167 36.4613 7.355C36.6013 6.81833 36.6713 6.35167 36.6713 5.955C36.6713 5.34833 36.473 4.94 36.0763 4.73C35.703 4.49666 35.0263 4.38 34.0463 4.38V3.05H42.5513V4.38C41.478 4.38 40.6613 4.60166 40.1013 5.045C39.5647 5.48833 39.1097 6.21167 38.7363 7.215L29.9513 30.35H28.7263L22.0063 10.435L14.5513 30.35H13.3263L6.04633 10.26C5.62633 9.14 5.24133 8.20666 4.89133 7.46C4.56466 6.69 4.20299 6.08333 3.80633 5.64C3.43299 5.19667 3.00133 4.88167 2.51133 4.695C2.02133 4.50833 1.42633 4.415 0.726328 4.415V3.05H12.1363V4.415C10.9463 4.415 10.1063 4.52 9.61633 4.73C9.14966 4.94 8.91633 5.34833 8.91633 5.955C8.91633 6.25833 8.963 6.60833 9.05633 7.005C9.14966 7.40167 9.28966 7.86833 9.47633 8.405L14.7963 24.61L19.1013 12.5C19.428 11.59 19.743 10.75 20.0463 9.98C20.373 9.18667 20.6297 8.475 20.8163 7.845C20.4897 7.16833 20.1863 6.60833 19.9063 6.165C19.6497 5.72166 19.3813 5.37167 19.1013 5.115C18.8447 4.85833 18.5647 4.68333 18.2613 4.59C17.9813 4.47333 17.678 4.415 17.3513 4.415V3.05H28.0613V4.415C27.3847 4.415 26.8363 4.43833 26.4163 4.485C25.9963 4.53166 25.6697 4.61333 25.4363 4.73C25.2263 4.82333 25.0747 4.96333 24.9813 5.15C24.9113 5.33667 24.8763 5.55833 24.8763 5.815C24.8763 6.165 24.9347 6.59666 25.0513 7.11C25.1913 7.6 25.378 8.23 25.6113 9L30.3013 24.715ZM57.8335 26.745C55.8501 29.1483 53.3885 30.35 50.4485 30.35C49.0718 30.35 47.8235 30.1283 46.7035 29.685C45.5835 29.2183 44.6151 28.5767 43.7985 27.76C43.0051 26.92 42.3868 25.9283 41.9435 24.785C41.5001 23.6183 41.2785 22.335 41.2785 20.935C41.2785 19.5117 41.5118 18.1933 41.9785 16.98C42.4451 15.7667 43.0985 14.7283 43.9385 13.865C44.8018 13.0017 45.8168 12.325 46.9835 11.835C48.1735 11.345 49.4685 11.1 50.8685 11.1C53.1318 11.1 54.8818 11.7183 56.1185 12.955C57.3551 14.1683 57.9735 15.9183 57.9735 18.205C57.9735 18.5317 57.9035 18.73 57.7635 18.8C57.6468 18.87 57.3551 18.905 56.8885 18.905H45.3735C45.3268 19.0917 45.2918 19.325 45.2685 19.605C45.2451 19.8617 45.2335 20.1533 45.2335 20.48C45.2335 21.6933 45.3735 22.8017 45.6535 23.805C45.9568 24.785 46.3768 25.625 46.9135 26.325C47.4735 27.025 48.1268 27.5733 48.8735 27.97C49.6435 28.3433 50.4951 28.53 51.4285 28.53C52.4085 28.53 53.3185 28.32 54.1585 27.9C54.9985 27.4567 55.8618 26.745 56.7485 25.765L57.8335 26.745ZM52.0585 17.295C52.5251 17.295 52.8985 17.2833 53.1785 17.26C53.4585 17.2367 53.6685 17.19 53.8085 17.12C53.9485 17.05 54.0418 16.9567 54.0885 16.84C54.1351 16.7 54.1585 16.525 54.1585 16.315C54.1585 15.2417 53.8085 14.39 53.1085 13.76C52.4318 13.1067 51.4985 12.78 50.3085 12.78C47.7885 12.78 46.2251 14.285 45.6185 17.295H52.0585ZM81.8908 19.64C80.5608 20.1533 79.4291 20.655 78.4958 21.145C77.5858 21.635 76.8508 22.125 76.2908 22.615C75.7308 23.105 75.3224 23.595 75.0658 24.085C74.8324 24.575 74.7158 25.0767 74.7158 25.59C74.7158 26.36 74.9724 26.99 75.4858 27.48C75.9991 27.97 76.6758 28.215 77.5158 28.215C78.1224 28.215 78.6824 28.0633 79.1958 27.76C79.7324 27.4567 80.1991 27.0483 80.5958 26.535C80.9924 25.9983 81.3074 25.38 81.5408 24.68C81.7741 23.9567 81.8908 23.1983 81.8908 22.405V19.64ZM81.8908 18.135V16.7C81.8908 13.8533 80.6774 12.43 78.2508 12.43C77.8541 12.43 77.5158 12.465 77.2358 12.535C76.9558 12.605 76.7224 12.7217 76.5358 12.885C76.3491 13.0483 76.1741 13.2817 76.0108 13.585C75.8708 13.8883 75.7308 14.2617 75.5908 14.705C75.3341 15.3817 75.0774 15.8367 74.8208 16.07C74.5874 16.28 74.2374 16.385 73.7708 16.385C72.6041 16.385 72.0208 15.8017 72.0208 14.635C72.0208 13.515 72.6158 12.6517 73.8058 12.045C74.9958 11.415 76.6874 11.1 78.8808 11.1C81.2141 11.1 82.8708 11.52 83.8508 12.36C84.8308 13.1767 85.3208 14.5767 85.3208 16.56V24.4C85.3208 27.06 85.8458 28.39 86.8958 28.39C87.2224 28.39 87.5374 28.355 87.8408 28.285C88.1441 28.1917 88.4008 27.97 88.6108 27.62L89.1008 28.46C88.8208 28.9967 88.3074 29.4517 87.5608 29.825C86.8141 30.175 86.0324 30.35 85.2158 30.35C84.1891 30.35 83.4191 30.0233 82.9058 29.37C82.4158 28.7167 82.1708 27.795 82.1708 26.605H81.9958C81.3891 27.7483 80.5491 28.6583 79.4758 29.335C78.4024 29.9883 77.2124 30.315 75.9058 30.315C74.4358 30.315 73.2808 29.9417 72.4408 29.195C71.6008 28.4483 71.1808 27.445 71.1808 26.185C71.1808 25.625 71.2741 25.0883 71.4608 24.575C71.6708 24.0617 71.9974 23.5717 72.4408 23.105C72.8841 22.6383 73.4674 22.1833 74.1908 21.74C74.9141 21.2733 75.8008 20.8067 76.8508 20.34L81.8908 18.135ZM96.8257 24.435C96.8257 25.3917 96.849 26.15 96.8957 26.71C96.9423 27.27 97.059 27.7017 97.2457 28.005C97.4557 28.285 97.7473 28.4717 98.1207 28.565C98.494 28.6583 99.019 28.7283 99.6957 28.775V30H90.3857V28.775C91.0623 28.7517 91.599 28.6933 91.9957 28.6C92.3923 28.4833 92.6957 28.285 92.9057 28.005C93.1157 27.725 93.244 27.3283 93.2907 26.815C93.3607 26.2783 93.3957 25.5667 93.3957 24.68V20.585C93.3957 18.9983 93.3723 17.7617 93.3257 16.875C93.3023 15.9883 93.1857 15.335 92.9757 14.915C92.789 14.495 92.4857 14.25 92.0657 14.18C91.6457 14.0867 91.0623 14.04 90.3157 14.04V12.815L96.4407 11.485L96.9307 15.825H97.0707C97.374 15.125 97.7473 14.4833 98.1907 13.9C98.6573 13.3167 99.159 12.8267 99.6957 12.43C100.232 12.01 100.792 11.6833 101.376 11.45C101.959 11.2167 102.554 11.1 103.161 11.1C103.907 11.1 104.491 11.2867 104.911 11.66C105.354 12.01 105.576 12.4883 105.576 13.095C105.576 13.655 105.401 14.0983 105.051 14.425C104.701 14.7283 104.199 14.88 103.546 14.88C103.172 14.88 102.857 14.8333 102.601 14.74C102.344 14.6467 102.111 14.5533 101.901 14.46C101.714 14.3433 101.527 14.2383 101.341 14.145C101.177 14.0517 100.991 14.005 100.781 14.005C100.151 14.005 99.5207 14.4133 98.8907 15.23C98.2607 16.0233 97.7707 17.0383 97.4207 18.275C97.234 18.9517 97.0823 19.7217 96.9657 20.585C96.8723 21.425 96.8257 22.3117 96.8257 23.245V24.435ZM123.629 26.745C121.646 29.1483 119.184 30.35 116.244 30.35C114.868 30.35 113.619 30.1283 112.499 29.685C111.379 29.2183 110.411 28.5767 109.594 27.76C108.801 26.92 108.183 25.9283 107.739 24.785C107.296 23.6183 107.074 22.335 107.074 20.935C107.074 19.5117 107.308 18.1933 107.774 16.98C108.241 15.7667 108.894 14.7283 109.734 13.865C110.598 13.0017 111.613 12.325 112.779 11.835C113.969 11.345 115.264 11.1 116.664 11.1C118.928 11.1 120.678 11.7183 121.914 12.955C123.151 14.1683 123.769 15.9183 123.769 18.205C123.769 18.5317 123.699 18.73 123.559 18.8C123.443 18.87 123.151 18.905 122.684 18.905H111.169C111.123 19.0917 111.088 19.325 111.064 19.605C111.041 19.8617 111.029 20.1533 111.029 20.48C111.029 21.6933 111.169 22.8017 111.449 23.805C111.753 24.785 112.173 25.625 112.709 26.325C113.269 27.025 113.923 27.5733 114.669 27.97C115.439 28.3433 116.291 28.53 117.224 28.53C118.204 28.53 119.114 28.32 119.954 27.9C120.794 27.4567 121.658 26.745 122.544 25.765L123.629 26.745ZM117.854 17.295C118.321 17.295 118.694 17.2833 118.974 17.26C119.254 17.2367 119.464 17.19 119.604 17.12C119.744 17.05 119.838 16.9567 119.884 16.84C119.931 16.7 119.954 16.525 119.954 16.315C119.954 15.2417 119.604 14.39 118.904 13.76C118.228 13.1067 117.294 12.78 116.104 12.78C113.584 12.78 112.021 14.285 111.414 17.295H117.854ZM136.872 13.655V12.36C138.108 11.6367 139.077 10.9133 139.777 10.19C140.477 9.46667 141.013 8.60333 141.387 7.6H142.402V12.01H147.092V13.655H142.402V24.295C142.402 25.1117 142.437 25.8 142.507 26.36C142.6 26.92 142.74 27.375 142.927 27.725C143.113 28.0517 143.358 28.285 143.662 28.425C143.965 28.565 144.35 28.635 144.817 28.635C145.4 28.635 145.89 28.5183 146.287 28.285C146.707 28.0283 147.115 27.6083 147.512 27.025L148.387 27.69C148.06 28.5533 147.488 29.2183 146.672 29.685C145.878 30.1283 144.887 30.35 143.697 30.35C142.157 30.35 140.978 29.9883 140.162 29.265C139.368 28.5183 138.972 27.4567 138.972 26.08V13.655H136.872ZM166.969 26.745C164.986 29.1483 162.524 30.35 159.584 30.35C158.208 30.35 156.959 30.1283 155.839 29.685C154.719 29.2183 153.751 28.5767 152.934 27.76C152.141 26.92 151.523 25.9283 151.079 24.785C150.636 23.6183 150.414 22.335 150.414 20.935C150.414 19.5117 150.648 18.1933 151.114 16.98C151.581 15.7667 152.234 14.7283 153.074 13.865C153.938 13.0017 154.953 12.325 156.119 11.835C157.309 11.345 158.604 11.1 160.004 11.1C162.268 11.1 164.018 11.7183 165.254 12.955C166.491 14.1683 167.109 15.9183 167.109 18.205C167.109 18.5317 167.039 18.73 166.899 18.8C166.783 18.87 166.491 18.905 166.024 18.905H154.509C154.463 19.0917 154.428 19.325 154.404 19.605C154.381 19.8617 154.369 20.1533 154.369 20.48C154.369 21.6933 154.509 22.8017 154.789 23.805C155.093 24.785 155.513 25.625 156.049 26.325C156.609 27.025 157.263 27.5733 158.009 27.97C158.779 28.3433 159.631 28.53 160.564 28.53C161.544 28.53 162.454 28.32 163.294 27.9C164.134 27.4567 164.998 26.745 165.884 25.765L166.969 26.745ZM161.194 17.295C161.661 17.295 162.034 17.2833 162.314 17.26C162.594 17.2367 162.804 17.19 162.944 17.12C163.084 17.05 163.178 16.9567 163.224 16.84C163.271 16.7 163.294 16.525 163.294 16.315C163.294 15.2417 162.944 14.39 162.244 13.76C161.568 13.1067 160.634 12.78 159.444 12.78C156.924 12.78 155.361 14.285 154.754 17.295H161.194ZM180.978 19.64C179.648 20.1533 178.516 20.655 177.583 21.145C176.673 21.635 175.938 22.125 175.378 22.615C174.818 23.105 174.409 23.595 174.153 24.085C173.919 24.575 173.803 25.0767 173.803 25.59C173.803 26.36 174.059 26.99 174.573 27.48C175.086 27.97 175.763 28.215 176.603 28.215C177.209 28.215 177.769 28.0633 178.283 27.76C178.819 27.4567 179.286 27.0483 179.683 26.535C180.079 25.9983 180.394 25.38 180.628 24.68C180.861 23.9567 180.978 23.1983 180.978 22.405V19.64ZM180.978 18.135V16.7C180.978 13.8533 179.764 12.43 177.338 12.43C176.941 12.43 176.603 12.465 176.323 12.535C176.043 12.605 175.809 12.7217 175.623 12.885C175.436 13.0483 175.261 13.2817 175.098 13.585C174.958 13.8883 174.818 14.2617 174.678 14.705C174.421 15.3817 174.164 15.8367 173.908 16.07C173.674 16.28 173.324 16.385 172.858 16.385C171.691 16.385 171.108 15.8017 171.108 14.635C171.108 13.515 171.703 12.6517 172.893 12.045C174.083 11.415 175.774 11.1 177.968 11.1C180.301 11.1 181.958 11.52 182.938 12.36C183.918 13.1767 184.408 14.5767 184.408 16.56V24.4C184.408 27.06 184.933 28.39 185.983 28.39C186.309 28.39 186.624 28.355 186.928 28.285C187.231 28.1917 187.488 27.97 187.698 27.62L188.188 28.46C187.908 28.9967 187.394 29.4517 186.648 29.825C185.901 30.175 185.119 30.35 184.303 30.35C183.276 30.35 182.506 30.0233 181.993 29.37C181.503 28.7167 181.258 27.795 181.258 26.605H181.083C180.476 27.7483 179.636 28.6583 178.563 29.335C177.489 29.9883 176.299 30.315 174.993 30.315C173.523 30.315 172.368 29.9417 171.528 29.195C170.688 28.4483 170.268 27.445 170.268 26.185C170.268 25.625 170.361 25.0883 170.548 24.575C170.758 24.0617 171.084 23.5717 171.528 23.105C171.971 22.6383 172.554 22.1833 173.278 21.74C174.001 21.2733 174.888 20.8067 175.938 20.34L180.978 18.135ZM195.878 24.4C195.878 25.38 195.901 26.15 195.948 26.71C195.994 27.27 196.111 27.7017 196.298 28.005C196.508 28.285 196.799 28.4717 197.173 28.565C197.546 28.6583 198.071 28.7283 198.748 28.775V30H189.438V28.775C190.114 28.7283 190.651 28.6583 191.048 28.565C191.444 28.4717 191.748 28.285 191.958 28.005C192.168 27.725 192.296 27.3283 192.343 26.815C192.413 26.2783 192.448 25.5667 192.448 24.68V20.2C192.448 18.87 192.424 17.7617 192.378 16.875C192.354 15.9883 192.296 15.3817 192.203 15.055C192.133 14.7517 192.051 14.5183 191.958 14.355C191.864 14.1683 191.713 14.0283 191.503 13.935C191.293 13.8183 191.013 13.7483 190.663 13.725C190.336 13.6783 189.904 13.655 189.368 13.655V12.43L195.073 11.1L195.528 14.6H195.703C196.753 13.41 197.849 12.535 198.993 11.975C200.159 11.3917 201.443 11.1 202.843 11.1C204.313 11.1 205.549 11.4033 206.553 12.01C207.556 12.5933 208.256 13.445 208.653 14.565H208.793C209.656 13.4683 210.706 12.6167 211.943 12.01C213.179 11.4033 214.498 11.1 215.898 11.1C216.994 11.1 217.986 11.2867 218.873 11.66C219.783 12.01 220.471 12.5 220.938 13.13C221.358 13.6667 221.649 14.3783 221.813 15.265C221.999 16.1283 222.093 17.3183 222.093 18.835V24.4C222.093 25.3567 222.116 26.115 222.163 26.675C222.233 27.235 222.361 27.6667 222.548 27.97C222.734 28.2733 223.014 28.4717 223.388 28.565C223.784 28.6583 224.321 28.7283 224.998 28.775V30H215.688V28.775C216.341 28.7517 216.866 28.6933 217.263 28.6C217.659 28.4833 217.963 28.285 218.173 28.005C218.383 27.7017 218.511 27.2933 218.558 26.78C218.628 26.2667 218.663 25.5667 218.663 24.68V20.27C218.663 18.94 218.593 17.82 218.453 16.91C218.313 15.9767 218.079 15.23 217.753 14.67C217.426 14.0867 216.994 13.6667 216.458 13.41C215.944 13.1533 215.314 13.025 214.568 13.025C213.541 13.025 212.573 13.3167 211.663 13.9C210.776 14.46 210.076 15.2183 209.563 16.175C209.446 16.4083 209.341 16.6417 209.248 16.875C209.178 17.085 209.119 17.33 209.073 17.61C209.026 17.8667 208.991 18.1817 208.968 18.555C208.968 18.9283 208.968 19.395 208.968 19.955V24.4C208.968 25.3567 208.991 26.115 209.038 26.675C209.084 27.235 209.201 27.6667 209.388 27.97C209.598 28.2733 209.901 28.4717 210.298 28.565C210.694 28.6583 211.231 28.7283 211.908 28.775V30H202.598V28.775C203.251 28.7283 203.776 28.6583 204.173 28.565C204.569 28.4717 204.861 28.285 205.048 28.005C205.258 27.725 205.386 27.3283 205.433 26.815C205.503 26.2783 205.538 25.5667 205.538 24.68V20.27C205.538 18.9167 205.468 17.785 205.328 16.875C205.188 15.9417 204.954 15.195 204.628 14.635C204.324 14.0517 203.916 13.6433 203.403 13.41C202.889 13.1533 202.259 13.025 201.513 13.025C200.463 13.025 199.471 13.3167 198.538 13.9C197.628 14.46 196.939 15.2183 196.473 16.175C196.356 16.4083 196.251 16.6417 196.158 16.875C196.088 17.085 196.029 17.33 195.983 17.61C195.936 17.8667 195.901 18.1817 195.878 18.555C195.878 18.9283 195.878 19.395 195.878 19.955V24.4ZM243.315 24.505C243.315 25.4617 243.338 26.22 243.385 26.78C243.432 27.3167 243.548 27.7367 243.735 28.04C243.945 28.32 244.237 28.5067 244.61 28.6C245.007 28.6933 245.543 28.7633 246.22 28.81V30H237.05V28.81C237.703 28.7633 238.217 28.6933 238.59 28.6C238.987 28.5067 239.29 28.32 239.5 28.04C239.71 27.76 239.838 27.3633 239.885 26.85C239.955 26.3367 239.99 25.6367 239.99 24.75V20.095C239.99 17.3183 239.92 15.6267 239.78 15.02C239.71 14.7167 239.617 14.4717 239.5 14.285C239.407 14.075 239.255 13.9233 239.045 13.83C238.835 13.7133 238.567 13.6433 238.24 13.62C237.913 13.5733 237.493 13.55 236.98 13.55V12.43L242.58 11.1L243 14.565H243.14C244.027 13.4683 245.065 12.6167 246.255 12.01C247.445 11.4033 248.74 11.1 250.14 11.1C251.213 11.1 252.193 11.275 253.08 11.625C253.967 11.975 254.643 12.4533 255.11 13.06C255.507 13.5967 255.787 14.2967 255.95 15.16C256.113 16 256.195 17.1667 256.195 18.66V24.505C256.195 25.4617 256.218 26.22 256.265 26.78C256.335 27.3167 256.463 27.7367 256.65 28.04C256.837 28.32 257.117 28.5067 257.49 28.6C257.887 28.6933 258.4 28.7633 259.03 28.81V30H249.965V28.81C250.618 28.7867 251.132 28.7283 251.505 28.635C251.902 28.5183 252.193 28.32 252.38 28.04C252.59 27.76 252.718 27.3633 252.765 26.85C252.835 26.3133 252.87 25.6133 252.87 24.75V20.13C252.87 18.8 252.8 17.68 252.66 16.77C252.52 15.86 252.287 15.125 251.96 14.565C251.657 14.005 251.248 13.6083 250.735 13.375C250.222 13.1183 249.603 12.99 248.88 12.99C247.83 12.99 246.862 13.27 245.975 13.83C245.112 14.3667 244.435 15.1133 243.945 16.07C243.828 16.3033 243.723 16.525 243.63 16.735C243.56 16.945 243.502 17.19 243.455 17.47C243.408 17.75 243.373 18.0767 243.35 18.45C243.327 18.8 243.315 19.255 243.315 19.815V24.505ZM276.091 17.05C276.091 16.0933 276.067 15.3467 276.021 14.81C275.974 14.25 275.846 13.83 275.636 13.55C275.449 13.2467 275.157 13.0483 274.761 12.955C274.387 12.8383 273.862 12.745 273.186 12.675V11.45H279.521V22.195C279.521 23.525 279.532 24.61 279.556 25.45C279.602 26.29 279.661 26.92 279.731 27.34C279.777 27.6433 279.847 27.8883 279.941 28.075C280.057 28.2383 280.221 28.3783 280.431 28.495C280.641 28.5883 280.909 28.6583 281.236 28.705C281.586 28.7283 282.029 28.74 282.566 28.74V29.965L276.791 30.385L276.406 26.185H276.266C275.379 27.6317 274.352 28.6933 273.186 29.37C272.042 30.0233 270.841 30.35 269.581 30.35C268.601 30.35 267.644 30.1633 266.711 29.79C265.801 29.4167 265.112 28.915 264.646 28.285C264.249 27.7717 263.957 27.06 263.771 26.15C263.607 25.24 263.526 24.0617 263.526 22.615V17.05C263.526 16.0933 263.502 15.3467 263.456 14.81C263.409 14.25 263.281 13.83 263.071 13.55C262.884 13.2467 262.592 13.0483 262.196 12.955C261.822 12.8383 261.297 12.745 260.621 12.675V11.45H266.956V21.005C266.956 23.5483 267.247 25.3917 267.831 26.535C268.437 27.6783 269.394 28.25 270.701 28.25C272.754 28.25 274.352 26.9083 275.496 24.225C275.612 23.945 275.706 23.6883 275.776 23.455C275.846 23.2217 275.904 22.965 275.951 22.685C275.997 22.405 276.032 22.09 276.056 21.74C276.079 21.39 276.091 20.97 276.091 20.48V17.05ZM291.068 24.4C291.068 25.38 291.091 26.15 291.138 26.71C291.185 27.27 291.301 27.7017 291.488 28.005C291.698 28.285 291.99 28.4717 292.363 28.565C292.736 28.6583 293.261 28.7283 293.938 28.775V30H284.628V28.775C285.305 28.7283 285.841 28.6583 286.238 28.565C286.635 28.4717 286.938 28.285 287.148 28.005C287.358 27.725 287.486 27.3283 287.533 26.815C287.603 26.2783 287.638 25.5667 287.638 24.68V20.2C287.638 18.87 287.615 17.7617 287.568 16.875C287.545 15.9883 287.486 15.3817 287.393 15.055C287.323 14.7517 287.241 14.5183 287.148 14.355C287.055 14.1683 286.903 14.0283 286.693 13.935C286.483 13.8183 286.203 13.7483 285.853 13.725C285.526 13.6783 285.095 13.655 284.558 13.655V12.43L290.263 11.1L290.718 14.6H290.893C291.943 13.41 293.04 12.535 294.183 11.975C295.35 11.3917 296.633 11.1 298.033 11.1C299.503 11.1 300.74 11.4033 301.743 12.01C302.746 12.5933 303.446 13.445 303.843 14.565H303.983C304.846 13.4683 305.896 12.6167 307.133 12.01C308.37 11.4033 309.688 11.1 311.088 11.1C312.185 11.1 313.176 11.2867 314.063 11.66C314.973 12.01 315.661 12.5 316.128 13.13C316.548 13.6667 316.84 14.3783 317.003 15.265C317.19 16.1283 317.283 17.3183 317.283 18.835V24.4C317.283 25.3567 317.306 26.115 317.353 26.675C317.423 27.235 317.551 27.6667 317.738 27.97C317.925 28.2733 318.205 28.4717 318.578 28.565C318.975 28.6583 319.511 28.7283 320.188 28.775V30H310.878V28.775C311.531 28.7517 312.056 28.6933 312.453 28.6C312.85 28.4833 313.153 28.285 313.363 28.005C313.573 27.7017 313.701 27.2933 313.748 26.78C313.818 26.2667 313.853 25.5667 313.853 24.68V20.27C313.853 18.94 313.783 17.82 313.643 16.91C313.503 15.9767 313.27 15.23 312.943 14.67C312.616 14.0867 312.185 13.6667 311.648 13.41C311.135 13.1533 310.505 13.025 309.758 13.025C308.731 13.025 307.763 13.3167 306.853 13.9C305.966 14.46 305.266 15.2183 304.753 16.175C304.636 16.4083 304.531 16.6417 304.438 16.875C304.368 17.085 304.31 17.33 304.263 17.61C304.216 17.8667 304.181 18.1817 304.158 18.555C304.158 18.9283 304.158 19.395 304.158 19.955V24.4C304.158 25.3567 304.181 26.115 304.228 26.675C304.275 27.235 304.391 27.6667 304.578 27.97C304.788 28.2733 305.091 28.4717 305.488 28.565C305.885 28.6583 306.421 28.7283 307.098 28.775V30H297.788V28.775C298.441 28.7283 298.966 28.6583 299.363 28.565C299.76 28.4717 300.051 28.285 300.238 28.005C300.448 27.725 300.576 27.3283 300.623 26.815C300.693 26.2783 300.728 25.5667 300.728 24.68V20.27C300.728 18.9167 300.658 17.785 300.518 16.875C300.378 15.9417 300.145 15.195 299.818 14.635C299.515 14.0517 299.106 13.6433 298.593 13.41C298.08 13.1533 297.45 13.025 296.703 13.025C295.653 13.025 294.661 13.3167 293.728 13.9C292.818 14.46 292.13 15.2183 291.663 16.175C291.546 16.4083 291.441 16.6417 291.348 16.875C291.278 17.085 291.22 17.33 291.173 17.61C291.126 17.8667 291.091 18.1817 291.068 18.555C291.068 18.9283 291.068 19.395 291.068 19.955V24.4ZM327.511 22.685C327.511 23.5717 327.64 24.3883 327.896 25.135C328.153 25.8583 328.503 26.4883 328.946 27.025C329.413 27.5383 329.961 27.9467 330.591 28.25C331.245 28.5533 331.945 28.705 332.691 28.705C333.508 28.705 334.243 28.5183 334.896 28.145C335.573 27.7717 336.145 27.2467 336.611 26.57C337.101 25.87 337.475 25.0417 337.731 24.085C338.011 23.105 338.151 22.02 338.151 20.83C338.151 19.64 338.011 18.555 337.731 17.575C337.451 16.5717 337.066 15.72 336.576 15.02C336.086 14.2967 335.491 13.7367 334.791 13.34C334.115 12.9433 333.368 12.745 332.551 12.745C331.595 12.745 330.743 12.9783 329.996 13.445C329.25 13.8883 328.678 14.5183 328.281 15.335C327.768 16.3617 327.511 17.7733 327.511 19.57V22.685ZM327.441 13.935H327.581C328.328 12.955 329.145 12.2433 330.031 11.8C330.941 11.3333 331.991 11.1 333.181 11.1C334.441 11.1 335.608 11.345 336.681 11.835C337.778 12.325 338.723 13.0017 339.516 13.865C340.333 14.7283 340.963 15.755 341.406 16.945C341.873 18.1117 342.106 19.3717 342.106 20.725C342.106 22.1017 341.873 23.385 341.406 24.575C340.94 25.7417 340.298 26.7567 339.481 27.62C338.688 28.4833 337.743 29.16 336.646 29.65C335.55 30.14 334.36 30.385 333.076 30.385C331.746 30.385 330.498 30.14 329.331 29.65C328.188 29.16 327.243 28.495 326.496 27.655L324.851 30H324.081V8.86C324.081 6.50333 323.93 4.99833 323.626 4.345C323.556 4.18167 323.475 4.05333 323.381 3.96C323.288 3.84333 323.148 3.75 322.961 3.68C322.775 3.58667 322.518 3.505 322.191 3.435C321.865 3.365 321.421 3.295 320.861 3.225V2.35L327.441 0.949998V13.935ZM362.067 26.745C360.084 29.1483 357.622 30.35 354.682 30.35C353.305 30.35 352.057 30.1283 350.937 29.685C349.817 29.2183 348.849 28.5767 348.032 27.76C347.239 26.92 346.62 25.9283 346.177 24.785C345.734 23.6183 345.512 22.335 345.512 20.935C345.512 19.5117 345.745 18.1933 346.212 16.98C346.679 15.7667 347.332 14.7283 348.172 13.865C349.035 13.0017 350.05 12.325 351.217 11.835C352.407 11.345 353.702 11.1 355.102 11.1C357.365 11.1 359.115 11.7183 360.352 12.955C361.589 14.1683 362.207 15.9183 362.207 18.205C362.207 18.5317 362.137 18.73 361.997 18.8C361.88 18.87 361.589 18.905 361.122 18.905H349.607C349.56 19.0917 349.525 19.325 349.502 19.605C349.479 19.8617 349.467 20.1533 349.467 20.48C349.467 21.6933 349.607 22.8017 349.887 23.805C350.19 24.785 350.61 25.625 351.147 26.325C351.707 27.025 352.36 27.5733 353.107 27.97C353.877 28.3433 354.729 28.53 355.662 28.53C356.642 28.53 357.552 28.32 358.392 27.9C359.232 27.4567 360.095 26.745 360.982 25.765L362.067 26.745ZM356.292 17.295C356.759 17.295 357.132 17.2833 357.412 17.26C357.692 17.2367 357.902 17.19 358.042 17.12C358.182 17.05 358.275 16.9567 358.322 16.84C358.369 16.7 358.392 16.525 358.392 16.315C358.392 15.2417 358.042 14.39 357.342 13.76C356.665 13.1067 355.732 12.78 354.542 12.78C352.022 12.78 350.459 14.285 349.852 17.295H356.292ZM371.63 24.435C371.63 25.3917 371.654 26.15 371.7 26.71C371.747 27.27 371.864 27.7017 372.05 28.005C372.26 28.285 372.552 28.4717 372.925 28.565C373.299 28.6583 373.824 28.7283 374.5 28.775V30H365.19V28.775C365.867 28.7517 366.404 28.6933 366.8 28.6C367.197 28.4833 367.5 28.285 367.71 28.005C367.92 27.725 368.049 27.3283 368.095 26.815C368.165 26.2783 368.2 25.5667 368.2 24.68V20.585C368.2 18.9983 368.177 17.7617 368.13 16.875C368.107 15.9883 367.99 15.335 367.78 14.915C367.594 14.495 367.29 14.25 366.87 14.18C366.45 14.0867 365.867 14.04 365.12 14.04V12.815L371.245 11.485L371.735 15.825H371.875C372.179 15.125 372.552 14.4833 372.995 13.9C373.462 13.3167 373.964 12.8267 374.5 12.43C375.037 12.01 375.597 11.6833 376.18 11.45C376.764 11.2167 377.359 11.1 377.965 11.1C378.712 11.1 379.295 11.2867 379.715 11.66C380.159 12.01 380.38 12.4883 380.38 13.095C380.38 13.655 380.205 14.0983 379.855 14.425C379.505 14.7283 379.004 14.88 378.35 14.88C377.977 14.88 377.662 14.8333 377.405 14.74C377.149 14.6467 376.915 14.5533 376.705 14.46C376.519 14.3433 376.332 14.2383 376.145 14.145C375.982 14.0517 375.795 14.005 375.585 14.005C374.955 14.005 374.325 14.4133 373.695 15.23C373.065 16.0233 372.575 17.0383 372.225 18.275C372.039 18.9517 371.887 19.7217 371.77 20.585C371.677 21.425 371.63 22.3117 371.63 23.245V24.435ZM441.386 35.005C442.646 34.1183 443.544 33.2667 444.081 32.45C444.618 31.6333 444.886 30.7233 444.886 29.72C444.583 29.9067 444.233 30 443.836 30C443.299 30 442.856 29.8133 442.506 29.44C442.179 29.0433 442.016 28.5417 442.016 27.935C442.016 27.2817 442.226 26.7567 442.646 26.36C443.089 25.9633 443.661 25.765 444.361 25.765C446.041 25.765 446.881 26.9317 446.881 29.265C446.881 29.9183 446.799 30.525 446.636 31.085C446.473 31.645 446.204 32.1933 445.831 32.73C445.481 33.2667 445.003 33.8033 444.396 34.34C443.789 34.9 443.054 35.495 442.191 36.125L441.386 35.005ZM462.3 30H461.53V23.98H462.405C463.315 27.27 464.972 28.915 467.375 28.915C468.308 28.915 469.043 28.6933 469.58 28.25C470.14 27.7833 470.42 27.0833 470.42 26.15C470.42 25.8 470.362 25.5083 470.245 25.275C470.152 25.0183 469.953 24.7617 469.65 24.505C469.37 24.225 468.962 23.91 468.425 23.56C467.912 23.21 467.223 22.7667 466.36 22.23C465.567 21.74 464.878 21.285 464.295 20.865C463.712 20.445 463.222 20.025 462.825 19.605C462.428 19.1617 462.125 18.695 461.915 18.205C461.728 17.715 461.635 17.1433 461.635 16.49C461.635 15.6967 461.763 14.9733 462.02 14.32C462.3 13.6433 462.673 13.0717 463.14 12.605C463.607 12.1383 464.155 11.7767 464.785 11.52C465.415 11.24 466.103 11.1 466.85 11.1C467.48 11.1 468.133 11.205 468.81 11.415C469.487 11.6017 470.082 11.8583 470.595 12.185L471.295 11.45H471.96V16.49H471.05C470.537 15.0667 469.977 14.0517 469.37 13.445C468.763 12.8383 468.017 12.535 467.13 12.535C466.337 12.535 465.695 12.745 465.205 13.165C464.738 13.585 464.505 14.1683 464.505 14.915C464.505 15.3117 464.563 15.6617 464.68 15.965C464.82 16.245 465.03 16.525 465.31 16.805C465.59 17.085 465.94 17.3767 466.36 17.68C466.803 17.96 467.328 18.2867 467.935 18.66C468.938 19.29 469.79 19.85 470.49 20.34C471.213 20.83 471.797 21.32 472.24 21.81C472.683 22.2767 473.01 22.7667 473.22 23.28C473.43 23.7933 473.535 24.3767 473.535 25.03C473.535 26.6867 472.998 27.9933 471.925 28.95C470.852 29.8833 469.44 30.35 467.69 30.35C465.87 30.35 464.307 29.825 463 28.775L462.3 30ZM491.389 17.05C491.389 16.0933 491.365 15.3467 491.319 14.81C491.272 14.25 491.144 13.83 490.934 13.55C490.747 13.2467 490.455 13.0483 490.059 12.955C489.685 12.8383 489.16 12.745 488.484 12.675V11.45H494.819V22.195C494.819 23.525 494.83 24.61 494.854 25.45C494.9 26.29 494.959 26.92 495.029 27.34C495.075 27.6433 495.145 27.8883 495.239 28.075C495.355 28.2383 495.519 28.3783 495.729 28.495C495.939 28.5883 496.207 28.6583 496.534 28.705C496.884 28.7283 497.327 28.74 497.864 28.74V29.965L492.089 30.385L491.704 26.185H491.564C490.677 27.6317 489.65 28.6933 488.484 29.37C487.34 30.0233 486.139 30.35 484.879 30.35C483.899 30.35 482.942 30.1633 482.009 29.79C481.099 29.4167 480.41 28.915 479.944 28.285C479.547 27.7717 479.255 27.06 479.069 26.15C478.905 25.24 478.824 24.0617 478.824 22.615V17.05C478.824 16.0933 478.8 15.3467 478.754 14.81C478.707 14.25 478.579 13.83 478.369 13.55C478.182 13.2467 477.89 13.0483 477.494 12.955C477.12 12.8383 476.595 12.745 475.919 12.675V11.45H482.254V21.005C482.254 23.5483 482.545 25.3917 483.129 26.535C483.735 27.6783 484.692 28.25 485.999 28.25C488.052 28.25 489.65 26.9083 490.794 24.225C490.91 23.945 491.004 23.6883 491.074 23.455C491.144 23.2217 491.202 22.965 491.249 22.685C491.295 22.405 491.33 22.09 491.354 21.74C491.377 21.39 491.389 20.97 491.389 20.48V17.05ZM505.981 13.97H506.121C506.868 13.0833 507.673 12.3833 508.536 11.87C509.399 11.3567 510.403 11.1 511.546 11.1C512.876 11.1 514.089 11.345 515.186 11.835C516.306 12.3017 517.274 12.9667 518.091 13.83C518.908 14.6933 519.538 15.72 519.981 16.91C520.448 18.0767 520.681 19.36 520.681 20.76C520.681 22.1833 520.448 23.49 519.981 24.68C519.514 25.8467 518.873 26.85 518.056 27.69C517.239 28.53 516.271 29.1833 515.151 29.65C514.031 30.1167 512.818 30.35 511.511 30.35C510.438 30.35 509.458 30.175 508.571 29.825C507.708 29.4517 506.891 28.8567 506.121 28.04V33.15C506.121 34.0833 506.168 34.83 506.261 35.39C506.354 35.95 506.541 36.3817 506.821 36.685C507.101 36.9883 507.498 37.1983 508.011 37.315C508.548 37.4317 509.248 37.5017 510.111 37.525V38.75H499.331V37.525C500.031 37.5017 500.591 37.4317 501.011 37.315C501.454 37.1983 501.793 36.9883 502.026 36.685C502.283 36.3817 502.458 35.9617 502.551 35.425C502.644 34.9117 502.691 34.235 502.691 33.395V20.305C502.691 18.9517 502.668 17.8433 502.621 16.98C502.598 16.1167 502.539 15.5217 502.446 15.195C502.329 14.635 502.061 14.2617 501.641 14.075C501.221 13.865 500.428 13.76 499.261 13.76V12.57L505.981 11.24V13.97ZM507.031 14.985C506.728 15.4517 506.494 16.0117 506.331 16.665C506.191 17.295 506.121 18.1233 506.121 19.15V21.88C506.121 22.51 506.133 23.0583 506.156 23.525C506.203 23.9683 506.261 24.3533 506.331 24.68C506.401 25.0067 506.494 25.2983 506.611 25.555C506.728 25.8117 506.879 26.0567 507.066 26.29C507.603 27.0367 508.244 27.62 508.991 28.04C509.738 28.4367 510.519 28.635 511.336 28.635C512.946 28.635 514.241 27.9583 515.221 26.605C516.224 25.2517 516.726 23.35 516.726 20.9C516.726 19.6867 516.586 18.59 516.306 17.61C516.049 16.6067 515.676 15.755 515.186 15.055C514.696 14.3317 514.101 13.7717 513.401 13.375C512.724 12.9783 511.966 12.78 511.126 12.78C510.286 12.78 509.504 12.9783 508.781 13.375C508.081 13.7483 507.498 14.285 507.031 14.985ZM540.656 26.745C538.672 29.1483 536.211 30.35 533.271 30.35C531.894 30.35 530.646 30.1283 529.526 29.685C528.406 29.2183 527.437 28.5767 526.621 27.76C525.827 26.92 525.209 25.9283 524.766 24.785C524.322 23.6183 524.101 22.335 524.101 20.935C524.101 19.5117 524.334 18.1933 524.801 16.98C525.267 15.7667 525.921 14.7283 526.761 13.865C527.624 13.0017 528.639 12.325 529.806 11.835C530.996 11.345 532.291 11.1 533.691 11.1C535.954 11.1 537.704 11.7183 538.941 12.955C540.177 14.1683 540.796 15.9183 540.796 18.205C540.796 18.5317 540.726 18.73 540.586 18.8C540.469 18.87 540.177 18.905 539.711 18.905H528.196C528.149 19.0917 528.114 19.325 528.091 19.605C528.067 19.8617 528.056 20.1533 528.056 20.48C528.056 21.6933 528.196 22.8017 528.476 23.805C528.779 24.785 529.199 25.625 529.736 26.325C530.296 27.025 530.949 27.5733 531.696 27.97C532.466 28.3433 533.317 28.53 534.251 28.53C535.231 28.53 536.141 28.32 536.981 27.9C537.821 27.4567 538.684 26.745 539.571 25.765L540.656 26.745ZM534.881 17.295C535.347 17.295 535.721 17.2833 536.001 17.26C536.281 17.2367 536.491 17.19 536.631 17.12C536.771 17.05 536.864 16.9567 536.911 16.84C536.957 16.7 536.981 16.525 536.981 16.315C536.981 15.2417 536.631 14.39 535.931 13.76C535.254 13.1067 534.321 12.78 533.131 12.78C530.611 12.78 529.047 14.285 528.441 17.295H534.881ZM550.219 24.435C550.219 25.3917 550.243 26.15 550.289 26.71C550.336 27.27 550.453 27.7017 550.639 28.005C550.849 28.285 551.141 28.4717 551.514 28.565C551.888 28.6583 552.413 28.7283 553.089 28.775V30H543.779V28.775C544.456 28.7517 544.993 28.6933 545.389 28.6C545.786 28.4833 546.089 28.285 546.299 28.005C546.509 27.725 546.638 27.3283 546.684 26.815C546.754 26.2783 546.789 25.5667 546.789 24.68V20.585C546.789 18.9983 546.766 17.7617 546.719 16.875C546.696 15.9883 546.579 15.335 546.369 14.915C546.183 14.495 545.879 14.25 545.459 14.18C545.039 14.0867 544.456 14.04 543.709 14.04V12.815L549.834 11.485L550.324 15.825H550.464C550.768 15.125 551.141 14.4833 551.584 13.9C552.051 13.3167 552.553 12.8267 553.089 12.43C553.626 12.01 554.186 11.6833 554.769 11.45C555.353 11.2167 555.948 11.1 556.554 11.1C557.301 11.1 557.884 11.2867 558.304 11.66C558.748 12.01 558.969 12.4883 558.969 13.095C558.969 13.655 558.794 14.0983 558.444 14.425C558.094 14.7283 557.593 14.88 556.939 14.88C556.566 14.88 556.251 14.8333 555.994 14.74C555.738 14.6467 555.504 14.5533 555.294 14.46C555.108 14.3433 554.921 14.2383 554.734 14.145C554.571 14.0517 554.384 14.005 554.174 14.005C553.544 14.005 552.914 14.4133 552.284 15.23C551.654 16.0233 551.164 17.0383 550.814 18.275C550.628 18.9517 550.476 19.7217 550.359 20.585C550.266 21.425 550.219 22.3117 550.219 23.245V24.435ZM562.769 15.79C562.489 15.09 562.232 14.5417 561.999 14.145C561.789 13.725 561.556 13.41 561.299 13.2C561.042 12.99 560.751 12.8617 560.424 12.815C560.121 12.745 559.747 12.6983 559.304 12.675V11.45H568.579V12.675C568.112 12.6983 567.727 12.7217 567.424 12.745C567.121 12.7683 566.876 12.8267 566.689 12.92C566.526 12.99 566.409 13.1067 566.339 13.27C566.269 13.41 566.234 13.62 566.234 13.9C566.234 14.2967 566.281 14.67 566.374 15.02C566.491 15.37 566.607 15.72 566.724 16.07L570.434 26.22H570.574L573.759 18.695C574.249 17.5283 574.599 16.595 574.809 15.895C575.019 15.195 575.124 14.5767 575.124 14.04C575.124 13.5033 574.984 13.1417 574.704 12.955C574.424 12.7683 573.817 12.675 572.884 12.675V11.45H579.849V12.675C579.476 12.675 579.137 12.7683 578.834 12.955C578.531 13.1417 578.262 13.375 578.029 13.655C577.842 13.9117 577.644 14.2617 577.434 14.705C577.247 15.125 577.049 15.5683 576.839 16.035C576.652 16.5017 576.477 16.9683 576.314 17.435C576.151 17.8783 575.999 18.24 575.859 18.52L570.714 30.385H568.684L562.769 15.79ZM588.471 24.435C588.471 25.345 588.506 26.08 588.576 26.64C588.67 27.1767 588.833 27.6083 589.066 27.935C589.3 28.2383 589.626 28.4483 590.046 28.565C590.466 28.6817 591.026 28.7517 591.726 28.775V30H581.681V28.775C582.381 28.7517 582.953 28.6817 583.396 28.565C583.84 28.425 584.178 28.215 584.411 27.935C584.668 27.6317 584.831 27.2233 584.901 26.71C584.995 26.1733 585.041 25.4967 585.041 24.68V20.2C585.041 18.8467 585.018 17.7383 584.971 16.875C584.948 15.9883 584.89 15.3817 584.796 15.055C584.68 14.5183 584.411 14.1567 583.991 13.97C583.571 13.76 582.778 13.655 581.611 13.655V12.43L588.471 11.1V24.435ZM584.446 3.995C584.446 3.38833 584.656 2.875 585.076 2.455C585.496 2.035 586.01 1.825 586.616 1.825C587.223 1.825 587.736 2.035 588.156 2.455C588.576 2.875 588.786 3.38833 588.786 3.995C588.786 4.60167 588.576 5.115 588.156 5.535C587.736 5.955 587.223 6.165 586.616 6.165C586.01 6.165 585.496 5.955 585.076 5.535C584.656 5.115 584.446 4.60167 584.446 3.995ZM595.43 30H594.66V23.98H595.535C596.445 27.27 598.102 28.915 600.505 28.915C601.438 28.915 602.173 28.6933 602.71 28.25C603.27 27.7833 603.55 27.0833 603.55 26.15C603.55 25.8 603.492 25.5083 603.375 25.275C603.282 25.0183 603.083 24.7617 602.78 24.505C602.5 24.225 602.092 23.91 601.555 23.56C601.042 23.21 600.353 22.7667 599.49 22.23C598.697 21.74 598.008 21.285 597.425 20.865C596.842 20.445 596.352 20.025 595.955 19.605C595.558 19.1617 595.255 18.695 595.045 18.205C594.858 17.715 594.765 17.1433 594.765 16.49C594.765 15.6967 594.893 14.9733 595.15 14.32C595.43 13.6433 595.803 13.0717 596.27 12.605C596.737 12.1383 597.285 11.7767 597.915 11.52C598.545 11.24 599.233 11.1 599.98 11.1C600.61 11.1 601.263 11.205 601.94 11.415C602.617 11.6017 603.212 11.8583 603.725 12.185L604.425 11.45H605.09V16.49H604.18C603.667 15.0667 603.107 14.0517 602.5 13.445C601.893 12.8383 601.147 12.535 600.26 12.535C599.467 12.535 598.825 12.745 598.335 13.165C597.868 13.585 597.635 14.1683 597.635 14.915C597.635 15.3117 597.693 15.6617 597.81 15.965C597.95 16.245 598.16 16.525 598.44 16.805C598.72 17.085 599.07 17.3767 599.49 17.68C599.933 17.96 600.458 18.2867 601.065 18.66C602.068 19.29 602.92 19.85 603.62 20.34C604.343 20.83 604.927 21.32 605.37 21.81C605.813 22.2767 606.14 22.7667 606.35 23.28C606.56 23.7933 606.665 24.3767 606.665 25.03C606.665 26.6867 606.128 27.9933 605.055 28.95C603.982 29.8833 602.57 30.35 600.82 30.35C599 30.35 597.437 29.825 596.13 28.775L595.43 30ZM626.583 26.745C624.6 29.1483 622.138 30.35 619.198 30.35C617.822 30.35 616.573 30.1283 615.453 29.685C614.333 29.2183 613.365 28.5767 612.548 27.76C611.755 26.92 611.137 25.9283 610.693 24.785C610.25 23.6183 610.028 22.335 610.028 20.935C610.028 19.5117 610.262 18.1933 610.728 16.98C611.195 15.7667 611.848 14.7283 612.688 13.865C613.552 13.0017 614.567 12.325 615.733 11.835C616.923 11.345 618.218 11.1 619.618 11.1C621.882 11.1 623.632 11.7183 624.868 12.955C626.105 14.1683 626.723 15.9183 626.723 18.205C626.723 18.5317 626.653 18.73 626.513 18.8C626.397 18.87 626.105 18.905 625.638 18.905H614.123C614.077 19.0917 614.042 19.325 614.018 19.605C613.995 19.8617 613.983 20.1533 613.983 20.48C613.983 21.6933 614.123 22.8017 614.403 23.805C614.707 24.785 615.127 25.625 615.663 26.325C616.223 27.025 616.877 27.5733 617.623 27.97C618.393 28.3433 619.245 28.53 620.178 28.53C621.158 28.53 622.068 28.32 622.908 27.9C623.748 27.4567 624.612 26.745 625.498 25.765L626.583 26.745ZM620.808 17.295C621.275 17.295 621.648 17.2833 621.928 17.26C622.208 17.2367 622.418 17.19 622.558 17.12C622.698 17.05 622.792 16.9567 622.838 16.84C622.885 16.7 622.908 16.525 622.908 16.315C622.908 15.2417 622.558 14.39 621.858 13.76C621.182 13.1067 620.248 12.78 619.058 12.78C616.538 12.78 614.975 14.285 614.368 17.295H620.808ZM645.317 27.06H645.177C644.337 28.25 643.439 29.1017 642.482 29.615C641.549 30.105 640.44 30.35 639.157 30.35C637.827 30.35 636.602 30.1167 635.482 29.65C634.385 29.16 633.429 28.495 632.612 27.655C631.819 26.7917 631.189 25.765 630.722 24.575C630.279 23.385 630.057 22.09 630.057 20.69C630.057 19.3133 630.279 18.0417 630.722 16.875C631.189 15.685 631.819 14.67 632.612 13.83C633.429 12.9667 634.397 12.3017 635.517 11.835C636.637 11.345 637.85 11.1 639.157 11.1C640.277 11.1 641.269 11.2867 642.132 11.66C643.019 12.0333 643.87 12.6283 644.687 13.445V9.875C644.687 8.545 644.664 7.43667 644.617 6.55C644.594 5.66333 644.547 5.05667 644.477 4.73C644.36 4.21667 644.034 3.855 643.497 3.645C642.96 3.435 642.085 3.33 640.872 3.33V2.28L648.047 0.949998V21.145C648.047 22.755 648.059 24.085 648.082 25.135C648.105 26.1617 648.175 26.8967 648.292 27.34C648.362 27.62 648.444 27.8533 648.537 28.04C648.654 28.2267 648.805 28.3783 648.992 28.495C649.202 28.5883 649.47 28.6583 649.797 28.705C650.147 28.7517 650.59 28.775 651.127 28.775V29.965L645.317 30.35V27.06ZM644.617 19.325C644.617 18.1117 644.547 17.19 644.407 16.56C644.29 15.93 644.045 15.3817 643.672 14.915C643.135 14.215 642.447 13.69 641.607 13.34C640.79 12.9667 639.974 12.78 639.157 12.78C637.477 12.78 636.194 13.48 635.307 14.88C634.444 16.2567 634.012 18.135 634.012 20.515C634.012 21.7517 634.117 22.8717 634.327 23.875C634.56 24.8783 634.887 25.7417 635.307 26.465C635.75 27.165 636.287 27.7133 636.917 28.11C637.57 28.4833 638.317 28.67 639.157 28.67C639.577 28.67 639.997 28.6233 640.417 28.53C640.86 28.4367 641.28 28.2967 641.677 28.11C642.097 27.9 642.482 27.6667 642.832 27.41C643.182 27.13 643.474 26.815 643.707 26.465C644.034 25.9517 644.267 25.3333 644.407 24.61C644.547 23.8867 644.617 22.895 644.617 21.635V19.325ZM668.659 22.685C668.659 23.5717 668.787 24.3883 669.044 25.135C669.301 25.8583 669.651 26.4883 670.094 27.025C670.561 27.5383 671.109 27.9467 671.739 28.25C672.392 28.5533 673.092 28.705 673.839 28.705C674.656 28.705 675.391 28.5183 676.044 28.145C676.721 27.7717 677.292 27.2467 677.759 26.57C678.249 25.87 678.622 25.0417 678.879 24.085C679.159 23.105 679.299 22.02 679.299 20.83C679.299 19.64 679.159 18.555 678.879 17.575C678.599 16.5717 678.214 15.72 677.724 15.02C677.234 14.2967 676.639 13.7367 675.939 13.34C675.262 12.9433 674.516 12.745 673.699 12.745C672.742 12.745 671.891 12.9783 671.144 13.445C670.397 13.8883 669.826 14.5183 669.429 15.335C668.916 16.3617 668.659 17.7733 668.659 19.57V22.685ZM668.589 13.935H668.729C669.476 12.955 670.292 12.2433 671.179 11.8C672.089 11.3333 673.139 11.1 674.329 11.1C675.589 11.1 676.756 11.345 677.829 11.835C678.926 12.325 679.871 13.0017 680.664 13.865C681.481 14.7283 682.111 15.755 682.554 16.945C683.021 18.1117 683.254 19.3717 683.254 20.725C683.254 22.1017 683.021 23.385 682.554 24.575C682.087 25.7417 681.446 26.7567 680.629 27.62C679.836 28.4833 678.891 29.16 677.794 29.65C676.697 30.14 675.507 30.385 674.224 30.385C672.894 30.385 671.646 30.14 670.479 29.65C669.336 29.16 668.391 28.495 667.644 27.655L665.999 30H665.229V8.86C665.229 6.50333 665.077 4.99833 664.774 4.345C664.704 4.18167 664.622 4.05333 664.529 3.96C664.436 3.84333 664.296 3.75 664.109 3.68C663.922 3.58667 663.666 3.505 663.339 3.435C663.012 3.365 662.569 3.295 662.009 3.225V2.35L668.589 0.949998V13.935ZM694.164 35.495C693.091 37.8983 691.422 39.1 689.159 39.1C687.689 39.1 686.954 38.5517 686.954 37.455C686.954 36.8717 687.152 36.44 687.549 36.16C687.969 35.9033 688.727 35.6817 689.824 35.495C690.314 35.425 690.734 35.32 691.084 35.18C691.434 35.0633 691.749 34.9 692.029 34.69C692.309 34.5033 692.554 34.2583 692.764 33.955C692.997 33.6517 693.219 33.2783 693.429 32.835L694.654 30.385L687.934 15.79C687.631 15.1367 687.362 14.6233 687.129 14.25C686.919 13.8533 686.686 13.55 686.429 13.34C686.196 13.1067 685.927 12.955 685.624 12.885C685.321 12.7917 684.936 12.7217 684.469 12.675V11.45H693.744V12.675C692.181 12.675 691.399 13.06 691.399 13.83C691.399 14.1333 691.492 14.6117 691.679 15.265C691.866 15.9183 692.099 16.5833 692.379 17.26L696.229 26.57H696.404L699.589 18.695C699.892 17.925 700.137 17.295 700.324 16.805C700.534 16.315 700.686 15.9183 700.779 15.615C700.896 15.2883 700.966 15.02 700.989 14.81C701.036 14.6 701.059 14.4017 701.059 14.215C701.059 13.6083 700.884 13.2 700.534 12.99C700.207 12.78 699.566 12.675 698.609 12.675V11.45H706.309V12.675C705.866 12.675 705.492 12.7333 705.189 12.85C704.886 12.9667 704.571 13.235 704.244 13.655C703.941 14.0517 703.591 14.635 703.194 15.405C702.821 16.175 702.354 17.2133 701.794 18.52L694.164 35.495ZM734.922 23.735L744.022 3.05H751.862V4.38C751.115 4.40333 750.509 4.49667 750.042 4.66C749.599 4.82333 749.249 5.10333 748.992 5.5C748.759 5.87333 748.595 6.39833 748.502 7.075C748.432 7.75167 748.397 8.615 748.397 9.665V23.385C748.397 24.5517 748.444 25.4733 748.537 26.15C748.63 26.8267 748.805 27.3517 749.062 27.725C749.342 28.0983 749.727 28.3433 750.217 28.46C750.73 28.5767 751.395 28.6467 752.212 28.67V30H740.872V28.67C741.689 28.6467 742.342 28.5767 742.832 28.46C743.345 28.32 743.742 28.075 744.022 27.725C744.302 27.375 744.489 26.885 744.582 26.255C744.675 25.6017 744.722 24.7267 744.722 23.63V7.39H744.372L734.152 30.35H733.382L723.337 7.39H723.197V23.385C723.197 24.5517 723.244 25.4733 723.337 26.15C723.43 26.8267 723.605 27.3517 723.862 27.725C724.142 28.0983 724.527 28.3433 725.017 28.46C725.53 28.5767 726.195 28.6467 727.012 28.67V30H717.247V28.67C718.064 28.6467 718.717 28.5767 719.207 28.46C719.72 28.32 720.117 28.075 720.397 27.725C720.677 27.375 720.864 26.885 720.957 26.255C721.05 25.6017 721.097 24.7267 721.097 23.63V9.42C721.097 8.44 721.05 7.635 720.957 7.005C720.887 6.35167 720.724 5.83833 720.467 5.465C720.234 5.09167 719.884 4.835 719.417 4.695C718.95 4.53167 718.344 4.42667 717.597 4.38V3.05H725.962L734.782 23.735H734.922ZM761.551 24.4C761.551 25.38 761.575 26.15 761.621 26.71C761.668 27.27 761.785 27.7017 761.971 28.005C762.181 28.285 762.473 28.4717 762.846 28.565C763.22 28.6583 763.745 28.7283 764.421 28.775V30H755.111V28.775C755.788 28.7283 756.325 28.6583 756.721 28.565C757.118 28.4717 757.421 28.285 757.631 28.005C757.841 27.725 757.97 27.3283 758.016 26.815C758.086 26.2783 758.121 25.5667 758.121 24.68V20.2C758.121 18.87 758.098 17.7617 758.051 16.875C758.028 15.9883 757.97 15.3817 757.876 15.055C757.806 14.7517 757.725 14.5183 757.631 14.355C757.538 14.1683 757.386 14.0283 757.176 13.935C756.966 13.8183 756.686 13.7483 756.336 13.725C756.01 13.6783 755.578 13.655 755.041 13.655V12.43L760.746 11.1L761.201 14.6H761.376C762.426 13.41 763.523 12.535 764.666 11.975C765.833 11.3917 767.116 11.1 768.516 11.1C769.986 11.1 771.223 11.4033 772.226 12.01C773.23 12.5933 773.93 13.445 774.326 14.565H774.466C775.33 13.4683 776.38 12.6167 777.616 12.01C778.853 11.4033 780.171 11.1 781.571 11.1C782.668 11.1 783.66 11.2867 784.546 11.66C785.456 12.01 786.145 12.5 786.611 13.13C787.031 13.6667 787.323 14.3783 787.486 15.265C787.673 16.1283 787.766 17.3183 787.766 18.835V24.4C787.766 25.3567 787.79 26.115 787.836 26.675C787.906 27.235 788.035 27.6667 788.221 27.97C788.408 28.2733 788.688 28.4717 789.061 28.565C789.458 28.6583 789.995 28.7283 790.671 28.775V30H781.361V28.775C782.015 28.7517 782.54 28.6933 782.936 28.6C783.333 28.4833 783.636 28.285 783.846 28.005C784.056 27.7017 784.185 27.2933 784.231 26.78C784.301 26.2667 784.336 25.5667 784.336 24.68V20.27C784.336 18.94 784.266 17.82 784.126 16.91C783.986 15.9767 783.753 15.23 783.426 14.67C783.1 14.0867 782.668 13.6667 782.131 13.41C781.618 13.1533 780.988 13.025 780.241 13.025C779.215 13.025 778.246 13.3167 777.336 13.9C776.45 14.46 775.75 15.2183 775.236 16.175C775.12 16.4083 775.015 16.6417 774.921 16.875C774.851 17.085 774.793 17.33 774.746 17.61C774.7 17.8667 774.665 18.1817 774.641 18.555C774.641 18.9283 774.641 19.395 774.641 19.955V24.4C774.641 25.3567 774.665 26.115 774.711 26.675C774.758 27.235 774.875 27.6667 775.061 27.97C775.271 28.2733 775.575 28.4717 775.971 28.565C776.368 28.6583 776.905 28.7283 777.581 28.775V30H768.271V28.775C768.925 28.7283 769.45 28.6583 769.846 28.565C770.243 28.4717 770.535 28.285 770.721 28.005C770.931 27.725 771.06 27.3283 771.106 26.815C771.176 26.2783 771.211 25.5667 771.211 24.68V20.27C771.211 18.9167 771.141 17.785 771.001 16.875C770.861 15.9417 770.628 15.195 770.301 14.635C769.998 14.0517 769.59 13.6433 769.076 13.41C768.563 13.1533 767.933 13.025 767.186 13.025C766.136 13.025 765.145 13.3167 764.211 13.9C763.301 14.46 762.613 15.2183 762.146 16.175C762.03 16.4083 761.925 16.6417 761.831 16.875C761.761 17.085 761.703 17.33 761.656 17.61C761.61 17.8667 761.575 18.1817 761.551 18.555C761.551 18.9283 761.551 19.395 761.551 19.955V24.4ZM809.65 26.745C807.667 29.1483 805.205 30.35 802.265 30.35C800.888 30.35 799.64 30.1283 798.52 29.685C797.4 29.2183 796.432 28.5767 795.615 27.76C794.822 26.92 794.203 25.9283 793.76 24.785C793.317 23.6183 793.095 22.335 793.095 20.935C793.095 19.5117 793.328 18.1933 793.795 16.98C794.262 15.7667 794.915 14.7283 795.755 13.865C796.618 13.0017 797.633 12.325 798.8 11.835C799.99 11.345 801.285 11.1 802.685 11.1C804.948 11.1 806.698 11.7183 807.935 12.955C809.172 14.1683 809.79 15.9183 809.79 18.205C809.79 18.5317 809.72 18.73 809.58 18.8C809.463 18.87 809.172 18.905 808.705 18.905H797.19C797.143 19.0917 797.108 19.325 797.085 19.605C797.062 19.8617 797.05 20.1533 797.05 20.48C797.05 21.6933 797.19 22.8017 797.47 23.805C797.773 24.785 798.193 25.625 798.73 26.325C799.29 27.025 799.943 27.5733 800.69 27.97C801.46 28.3433 802.312 28.53 803.245 28.53C804.225 28.53 805.135 28.32 805.975 27.9C806.815 27.4567 807.678 26.745 808.565 25.765L809.65 26.745ZM803.875 17.295C804.342 17.295 804.715 17.2833 804.995 17.26C805.275 17.2367 805.485 17.19 805.625 17.12C805.765 17.05 805.858 16.9567 805.905 16.84C805.952 16.7 805.975 16.525 805.975 16.315C805.975 15.2417 805.625 14.39 804.925 13.76C804.248 13.1067 803.315 12.78 802.125 12.78C799.605 12.78 798.042 14.285 797.435 17.295H803.875ZM813.788 28.075C813.788 27.4217 814.01 26.8733 814.453 26.43C814.897 25.9867 815.433 25.765 816.063 25.765C816.717 25.765 817.265 25.9867 817.708 26.43C818.152 26.8733 818.373 27.4217 818.373 28.075C818.373 28.705 818.152 29.2417 817.708 29.685C817.265 30.1283 816.717 30.35 816.063 30.35C815.433 30.35 814.897 30.1283 814.453 29.685C814.01 29.2417 813.788 28.705 813.788 28.075ZM364.523 62.64C363.193 63.1533 362.061 63.655 361.128 64.145C360.218 64.635 359.483 65.125 358.923 65.615C358.363 66.105 357.954 66.595 357.698 67.085C357.464 67.575 357.348 68.0767 357.348 68.59C357.348 69.36 357.604 69.99 358.118 70.48C358.631 70.97 359.308 71.215 360.148 71.215C360.754 71.215 361.314 71.0633 361.828 70.76C362.364 70.4567 362.831 70.0483 363.228 69.535C363.624 68.9983 363.939 68.38 364.173 67.68C364.406 66.9567 364.523 66.1983 364.523 65.405V62.64ZM364.523 61.135V59.7C364.523 56.8533 363.309 55.43 360.883 55.43C360.486 55.43 360.148 55.465 359.868 55.535C359.588 55.605 359.354 55.7217 359.168 55.885C358.981 56.0483 358.806 56.2817 358.643 56.585C358.503 56.8883 358.363 57.2617 358.223 57.705C357.966 58.3817 357.709 58.8367 357.453 59.07C357.219 59.28 356.869 59.385 356.403 59.385C355.236 59.385 354.653 58.8017 354.653 57.635C354.653 56.515 355.248 55.6517 356.438 55.045C357.628 54.415 359.319 54.1 361.513 54.1C363.846 54.1 365.503 54.52 366.483 55.36C367.463 56.1767 367.953 57.5767 367.953 59.56V67.4C367.953 70.06 368.478 71.39 369.528 71.39C369.854 71.39 370.169 71.355 370.473 71.285C370.776 71.1917 371.033 70.97 371.243 70.62L371.733 71.46C371.453 71.9967 370.939 72.4517 370.193 72.825C369.446 73.175 368.664 73.35 367.848 73.35C366.821 73.35 366.051 73.0233 365.538 72.37C365.048 71.7167 364.803 70.795 364.803 69.605H364.628C364.021 70.7483 363.181 71.6583 362.108 72.335C361.034 72.9883 359.844 73.315 358.538 73.315C357.068 73.315 355.913 72.9417 355.073 72.195C354.233 71.4483 353.813 70.445 353.813 69.185C353.813 68.625 353.906 68.0883 354.093 67.575C354.303 67.0617 354.629 66.5717 355.073 66.105C355.516 65.6383 356.099 65.1833 356.823 64.74C357.546 64.2733 358.433 63.8067 359.483 63.34L364.523 61.135ZM379.248 67.505C379.248 68.4617 379.271 69.22 379.318 69.78C379.364 70.3167 379.481 70.7367 379.668 71.04C379.878 71.32 380.169 71.5067 380.543 71.6C380.939 71.6933 381.476 71.7633 382.153 71.81V73H372.983V71.81C373.636 71.7633 374.149 71.6933 374.523 71.6C374.919 71.5067 375.223 71.32 375.433 71.04C375.643 70.76 375.771 70.3633 375.818 69.85C375.888 69.3367 375.923 68.6367 375.923 67.75V63.095C375.923 60.3183 375.853 58.6267 375.713 58.02C375.643 57.7167 375.549 57.4717 375.433 57.285C375.339 57.075 375.188 56.9233 374.978 56.83C374.768 56.7133 374.499 56.6433 374.173 56.62C373.846 56.5733 373.426 56.55 372.913 56.55V55.43L378.513 54.1L378.933 57.565H379.073C379.959 56.4683 380.998 55.6167 382.188 55.01C383.378 54.4033 384.673 54.1 386.073 54.1C387.146 54.1 388.126 54.275 389.013 54.625C389.899 54.975 390.576 55.4533 391.043 56.06C391.439 56.5967 391.719 57.2967 391.883 58.16C392.046 59 392.128 60.1667 392.128 61.66V67.505C392.128 68.4617 392.151 69.22 392.198 69.78C392.268 70.3167 392.396 70.7367 392.583 71.04C392.769 71.32 393.049 71.5067 393.423 71.6C393.819 71.6933 394.333 71.7633 394.963 71.81V73H385.898V71.81C386.551 71.7867 387.064 71.7283 387.438 71.635C387.834 71.5183 388.126 71.32 388.313 71.04C388.523 70.76 388.651 70.3633 388.698 69.85C388.768 69.3133 388.803 68.6133 388.803 67.75V63.13C388.803 61.8 388.733 60.68 388.593 59.77C388.453 58.86 388.219 58.125 387.893 57.565C387.589 57.005 387.181 56.6083 386.668 56.375C386.154 56.1183 385.536 55.99 384.813 55.99C383.763 55.99 382.794 56.27 381.908 56.83C381.044 57.3667 380.368 58.1133 379.878 59.07C379.761 59.3033 379.656 59.525 379.563 59.735C379.493 59.945 379.434 60.19 379.388 60.47C379.341 60.75 379.306 61.0767 379.283 61.45C379.259 61.8 379.248 62.255 379.248 62.815V67.505ZM412.758 70.06H412.618C411.778 71.25 410.88 72.1017 409.923 72.615C408.99 73.105 407.882 73.35 406.598 73.35C405.268 73.35 404.043 73.1167 402.923 72.65C401.827 72.16 400.87 71.495 400.053 70.655C399.26 69.7917 398.63 68.765 398.163 67.575C397.72 66.385 397.498 65.09 397.498 63.69C397.498 62.3133 397.72 61.0417 398.163 59.875C398.63 58.685 399.26 57.67 400.053 56.83C400.87 55.9667 401.838 55.3017 402.958 54.835C404.078 54.345 405.292 54.1 406.598 54.1C407.718 54.1 408.71 54.2867 409.573 54.66C410.46 55.0333 411.312 55.6283 412.128 56.445V52.875C412.128 51.545 412.105 50.4367 412.058 49.55C412.035 48.6633 411.988 48.0567 411.918 47.73C411.802 47.2167 411.475 46.855 410.938 46.645C410.402 46.435 409.527 46.33 408.313 46.33V45.28L415.488 43.95V64.145C415.488 65.755 415.5 67.085 415.523 68.135C415.547 69.1617 415.617 69.8967 415.733 70.34C415.803 70.62 415.885 70.8533 415.978 71.04C416.095 71.2267 416.247 71.3783 416.433 71.495C416.643 71.5883 416.912 71.6583 417.238 71.705C417.588 71.7517 418.032 71.775 418.568 71.775V72.965L412.758 73.35V70.06ZM412.058 62.325C412.058 61.1117 411.988 60.19 411.848 59.56C411.732 58.93 411.487 58.3817 411.113 57.915C410.577 57.215 409.888 56.69 409.048 56.34C408.232 55.9667 407.415 55.78 406.598 55.78C404.918 55.78 403.635 56.48 402.748 57.88C401.885 59.2567 401.453 61.135 401.453 63.515C401.453 64.7517 401.558 65.8717 401.768 66.875C402.002 67.8783 402.328 68.7417 402.748 69.465C403.192 70.165 403.728 70.7133 404.358 71.11C405.012 71.4833 405.758 71.67 406.598 71.67C407.018 71.67 407.438 71.6233 407.858 71.53C408.302 71.4367 408.722 71.2967 409.118 71.11C409.538 70.9 409.923 70.6667 410.273 70.41C410.623 70.13 410.915 69.815 411.148 69.465C411.475 68.9517 411.708 68.3333 411.848 67.61C411.988 66.8867 412.058 65.895 412.058 64.635V62.325ZM448.735 66.735L457.835 46.05H465.675V47.38C464.929 47.4033 464.322 47.4967 463.855 47.66C463.412 47.8233 463.062 48.1033 462.805 48.5C462.572 48.8733 462.409 49.3983 462.315 50.075C462.245 50.7517 462.21 51.615 462.21 52.665V66.385C462.21 67.5517 462.257 68.4733 462.35 69.15C462.444 69.8267 462.619 70.3517 462.875 70.725C463.155 71.0983 463.54 71.3433 464.03 71.46C464.544 71.5767 465.209 71.6467 466.025 71.67V73H454.685V71.67C455.502 71.6467 456.155 71.5767 456.645 71.46C457.159 71.32 457.555 71.075 457.835 70.725C458.115 70.375 458.302 69.885 458.395 69.255C458.489 68.6017 458.535 67.7267 458.535 66.63V50.39H458.185L447.965 73.35H447.195L437.15 50.39H437.01V66.385C437.01 67.5517 437.057 68.4733 437.15 69.15C437.244 69.8267 437.419 70.3517 437.675 70.725C437.955 71.0983 438.34 71.3433 438.83 71.46C439.344 71.5767 440.009 71.6467 440.825 71.67V73H431.06V71.67C431.877 71.6467 432.53 71.5767 433.02 71.46C433.534 71.32 433.93 71.075 434.21 70.725C434.49 70.375 434.677 69.885 434.77 69.255C434.864 68.6017 434.91 67.7267 434.91 66.63V52.42C434.91 51.44 434.864 50.635 434.77 50.005C434.7 49.3517 434.537 48.8383 434.28 48.465C434.047 48.0917 433.697 47.835 433.23 47.695C432.764 47.5317 432.157 47.4267 431.41 47.38V46.05H439.775L448.595 66.735H448.735ZM475.4 67.435C475.4 68.3917 475.423 69.15 475.47 69.71C475.517 70.27 475.633 70.7017 475.82 71.005C476.03 71.285 476.322 71.4717 476.695 71.565C477.068 71.6583 477.593 71.7283 478.27 71.775V73H468.96V71.775C469.637 71.7517 470.173 71.6933 470.57 71.6C470.967 71.4833 471.27 71.285 471.48 71.005C471.69 70.725 471.818 70.3283 471.865 69.815C471.935 69.2783 471.97 68.5667 471.97 67.68V63.585C471.97 61.9983 471.947 60.7617 471.9 59.875C471.877 58.9883 471.76 58.335 471.55 57.915C471.363 57.495 471.06 57.25 470.64 57.18C470.22 57.0867 469.637 57.04 468.89 57.04V55.815L475.015 54.485L475.505 58.825H475.645C475.948 58.125 476.322 57.4833 476.765 56.9C477.232 56.3167 477.733 55.8267 478.27 55.43C478.807 55.01 479.367 54.6833 479.95 54.45C480.533 54.2167 481.128 54.1 481.735 54.1C482.482 54.1 483.065 54.2867 483.485 54.66C483.928 55.01 484.15 55.4883 484.15 56.095C484.15 56.655 483.975 57.0983 483.625 57.425C483.275 57.7283 482.773 57.88 482.12 57.88C481.747 57.88 481.432 57.8333 481.175 57.74C480.918 57.6467 480.685 57.5533 480.475 57.46C480.288 57.3433 480.102 57.2383 479.915 57.145C479.752 57.0517 479.565 57.005 479.355 57.005C478.725 57.005 478.095 57.4133 477.465 58.23C476.835 59.0233 476.345 60.0383 475.995 61.275C475.808 61.9517 475.657 62.7217 475.54 63.585C475.447 64.425 475.4 65.3117 475.4 66.245V67.435ZM485.322 71.075C485.322 70.4217 485.543 69.8733 485.987 69.43C486.43 68.9867 486.967 68.765 487.597 68.765C488.25 68.765 488.798 68.9867 489.242 69.43C489.685 69.8733 489.907 70.4217 489.907 71.075C489.907 71.705 489.685 72.2417 489.242 72.685C488.798 73.1283 488.25 73.35 487.597 73.35C486.967 73.35 486.43 73.1283 485.987 72.685C485.543 72.2417 485.322 71.705 485.322 71.075Z" fill="black"/>
<path d="M402.791 2.7C404.401 2.7 405.906 3.06167 407.306 3.785C408.729 4.50833 409.966 5.5 411.016 6.76C412.066 8.02 412.894 9.50167 413.501 11.205C414.131 12.9083 414.446 14.7517 414.446 16.735C414.446 18.625 414.131 20.3983 413.501 22.055C412.894 23.7117 412.066 25.1583 411.016 26.395C409.966 27.6083 408.729 28.5767 407.306 29.3C405.906 30 404.401 30.35 402.791 30.35C401.204 30.35 399.711 30 398.311 29.3C396.934 28.5767 395.721 27.6083 394.671 26.395C393.644 25.1583 392.828 23.7117 392.221 22.055C391.614 20.3983 391.311 18.625 391.311 16.735C391.311 14.7517 391.614 12.9083 392.221 11.205C392.828 9.50167 393.644 8.02 394.671 6.76C395.721 5.5 396.934 4.50833 398.311 3.785C399.711 3.06167 401.204 2.7 402.791 2.7ZM402.791 28.32C403.631 28.32 404.378 28.145 405.031 27.795C405.708 27.4217 406.279 26.7917 406.746 25.905C407.213 25.0183 407.563 23.84 407.796 22.37C408.053 20.9 408.181 19.0567 408.181 16.84C408.181 14.53 408.053 12.605 407.796 11.065C407.563 9.50167 407.213 8.25333 406.746 7.32C406.279 6.38667 405.708 5.72167 405.031 5.325C404.378 4.92833 403.631 4.73 402.791 4.73C401.951 4.73 401.193 4.92833 400.516 5.325C399.863 5.72167 399.303 6.38667 398.836 7.32C398.369 8.25333 398.008 9.50167 397.751 11.065C397.518 12.605 397.401 14.53 397.401 16.84C397.401 19.0567 397.518 20.9 397.751 22.37C398.008 23.84 398.369 25.0183 398.836 25.905C399.303 26.7917 399.863 27.4217 400.516 27.795C401.193 28.145 401.951 28.32 402.791 28.32ZM438.102 20.935C438.102 22.2417 437.834 23.4667 437.297 24.61C436.784 25.7533 436.072 26.7567 435.162 27.62C434.252 28.46 433.179 29.125 431.942 29.615C430.729 30.105 429.422 30.35 428.022 30.35C426.505 30.35 425.117 30.0583 423.857 29.475C422.597 28.8683 421.512 28.0283 420.602 26.955C419.715 25.8817 419.015 24.61 418.502 23.14C418.012 21.6467 417.767 20.0017 417.767 18.205C417.767 16.0817 418.094 14.0867 418.747 12.22C419.4 10.33 420.287 8.685 421.407 7.285C422.527 5.86167 423.834 4.74167 425.327 3.925C426.82 3.10833 428.419 2.7 430.122 2.7C431.055 2.7 431.93 2.805 432.747 3.015C433.564 3.20167 434.264 3.47 434.847 3.82C435.454 4.17 435.932 4.59 436.282 5.08C436.632 5.54667 436.807 6.06 436.807 6.62C436.807 7.29666 436.597 7.83333 436.177 8.23C435.757 8.60333 435.197 8.79 434.497 8.79C434.007 8.79 433.622 8.685 433.342 8.475C433.062 8.265 432.817 8.00833 432.607 7.705C432.42 7.40167 432.245 7.075 432.082 6.725C431.919 6.35167 431.709 6.01333 431.452 5.71C431.219 5.40667 430.915 5.15 430.542 4.94C430.169 4.73 429.667 4.625 429.037 4.625C428.267 4.625 427.555 4.88167 426.902 5.395C426.249 5.885 425.677 6.57333 425.187 7.46C424.72 8.32333 424.347 9.35 424.067 10.54C423.787 11.73 423.647 13.025 423.647 14.425L423.752 14.495C424.499 13.655 425.28 13.0367 426.097 12.64C426.937 12.2433 427.917 12.045 429.037 12.045C430.32 12.045 431.51 12.2783 432.607 12.745C433.727 13.1883 434.684 13.8067 435.477 14.6C436.294 15.3933 436.935 16.3383 437.402 17.435C437.869 18.5083 438.102 19.675 438.102 20.935ZM423.577 20.095C423.577 22.8483 423.962 24.925 424.732 26.325C425.525 27.725 426.669 28.425 428.162 28.425C429.632 28.425 430.717 27.83 431.417 26.64C432.117 25.45 432.467 23.595 432.467 21.075C432.467 18.7883 432.129 17.0617 431.452 15.895C430.799 14.705 429.83 14.11 428.547 14.11C427.52 14.11 426.622 14.4367 425.852 15.09C425.082 15.7433 424.324 16.7817 423.577 18.205V20.095ZM838.241 21.845H828.336C827.239 24.3183 826.691 26.0333 826.691 26.99C826.691 27.69 826.948 28.1333 827.461 28.32C827.998 28.5067 828.791 28.6 829.841 28.6V30H820.251V28.6C820.811 28.53 821.289 28.4367 821.686 28.32C822.106 28.2033 822.468 28.04 822.771 27.83C823.098 27.62 823.378 27.3517 823.611 27.025C823.844 26.675 824.066 26.255 824.276 25.765L833.481 2.7H836.071L844.436 23.14C844.926 24.33 845.334 25.2633 845.661 25.94C846.011 26.6167 846.373 27.1417 846.746 27.515C847.143 27.865 847.586 28.11 848.076 28.25C848.589 28.39 849.243 28.495 850.036 28.565V30H836.806V28.565C837.926 28.5183 838.731 28.4017 839.221 28.215C839.711 28.0283 839.956 27.655 839.956 27.095C839.956 26.7683 839.874 26.3483 839.711 25.835C839.548 25.3217 839.326 24.6917 839.046 23.945L838.241 21.845ZM829.141 19.745H837.471L833.446 9.14H833.306L829.141 19.745ZM858.002 24.26C858.002 25.1933 858.037 25.94 858.107 26.5C858.177 27.06 858.317 27.4917 858.527 27.795C858.737 28.0983 859.04 28.3083 859.437 28.425C859.834 28.5183 860.37 28.5767 861.047 28.6V30H850.022V28.6C850.675 28.5767 851.2 28.5067 851.597 28.39C852.017 28.25 852.332 28.04 852.542 27.76C852.775 27.4567 852.927 27.0483 852.997 26.535C853.09 25.9983 853.137 25.3217 853.137 24.505V20.2C853.137 18.8467 853.114 17.7383 853.067 16.875C853.02 15.9883 852.962 15.3817 852.892 15.055C852.775 14.4717 852.507 14.0867 852.087 13.9C851.69 13.7133 850.955 13.62 849.882 13.62V12.43L858.002 11.1V24.26ZM852.857 3.68C852.857 2.91 853.114 2.26833 853.627 1.755C854.164 1.21833 854.805 0.949998 855.552 0.949998C856.322 0.949998 856.964 1.21833 857.477 1.755C858.014 2.26833 858.282 2.91 858.282 3.68C858.282 4.42667 858.014 5.06833 857.477 5.605C856.964 6.11833 856.322 6.375 855.552 6.375C854.805 6.375 854.164 6.11833 853.627 5.605C853.114 5.06833 852.857 4.42667 852.857 3.68ZM862.528 13.375V11.8C863.928 11.4033 865.095 10.8083 866.028 10.015C866.985 9.19833 867.697 8.265 868.163 7.215H869.948V11.45H873.973V13.375H869.948V24.12C869.948 25.5667 870.1 26.5933 870.403 27.2C870.73 27.8067 871.267 28.11 872.013 28.11C872.923 28.11 873.612 27.69 874.078 26.85L874.813 27.865C874.16 29.5217 872.62 30.35 870.193 30.35C868.583 30.35 867.323 29.9767 866.413 29.23C865.527 28.4833 865.083 27.4333 865.083 26.08V13.375H862.528ZM885.539 30V28.6C886.309 28.5767 886.928 28.5183 887.394 28.425C887.884 28.3083 888.258 28.11 888.514 27.83C888.794 27.5267 888.981 27.13 889.074 26.64C889.168 26.1267 889.214 25.45 889.214 24.61V8.44C889.214 7.62333 889.179 6.97 889.109 6.48C889.039 5.96667 888.888 5.57 888.654 5.29C888.421 4.98667 888.094 4.78833 887.674 4.695C887.278 4.57833 886.753 4.49667 886.099 4.45V3.05H899.399C901.639 3.05 903.704 3.4 905.594 4.1C907.484 4.8 909.118 5.76833 910.494 7.005C911.871 8.24167 912.944 9.71167 913.714 11.415C914.484 13.1183 914.869 14.9733 914.869 16.98C914.869 18.8933 914.508 20.655 913.784 22.265C913.061 23.8517 912.046 25.2167 910.739 26.36C909.456 27.5033 907.904 28.4017 906.084 29.055C904.288 29.685 902.304 30 900.134 30H885.539ZM894.954 5.185C894.558 5.185 894.359 5.38333 894.359 5.78V23.875C894.359 25.2283 894.779 26.2317 895.619 26.885C896.459 27.5383 897.754 27.865 899.504 27.865C902.561 27.865 904.906 26.9433 906.539 25.1C908.196 23.2567 909.024 20.5733 909.024 17.05C909.024 15.1833 908.803 13.515 908.359 12.045C907.916 10.575 907.274 9.33833 906.434 8.335C905.594 7.30833 904.568 6.52666 903.354 5.99C902.164 5.45333 900.823 5.185 899.329 5.185H894.954ZM928.312 20.025C926.352 20.9117 924.871 21.74 923.867 22.51C922.887 23.2567 922.397 24.0383 922.397 24.855C922.397 25.5317 922.584 26.0683 922.957 26.465C923.331 26.8617 923.797 27.06 924.357 27.06C924.917 27.06 925.442 26.9667 925.932 26.78C926.422 26.57 926.842 26.3017 927.192 25.975C927.542 25.6483 927.811 25.2633 927.997 24.82C928.207 24.3533 928.312 23.8633 928.312 23.35V20.025ZM928.312 18.17V16.7C928.312 15.3467 928.067 14.3667 927.577 13.76C927.111 13.13 926.376 12.815 925.372 12.815C924.696 12.815 924.182 13.0017 923.832 13.375C923.482 13.725 923.156 14.32 922.852 15.16C922.642 15.7433 922.339 16.1983 921.942 16.525C921.569 16.8517 921.044 17.015 920.367 17.015C919.714 17.015 919.212 16.8167 918.862 16.42C918.512 16.0233 918.337 15.4633 918.337 14.74C918.337 13.62 918.944 12.7333 920.157 12.08C921.394 11.4267 923.249 11.1 925.722 11.1C928.336 11.1 930.202 11.5783 931.322 12.535C932.442 13.4683 933.002 15.0433 933.002 17.26V24.925C933.002 26.9083 933.399 27.9 934.192 27.9C934.636 27.9 935.044 27.7483 935.417 27.445L935.942 28.46C935.616 29.0433 935.102 29.51 934.402 29.86C933.726 30.1867 932.956 30.35 932.092 30.35C931.019 30.35 930.202 30.0233 929.642 29.37C929.082 28.7167 928.802 27.795 928.802 26.605H928.627C927.951 27.8183 927.076 28.74 926.002 29.37C924.929 30 923.704 30.315 922.327 30.315C920.857 30.315 919.679 29.9067 918.792 29.09C917.906 28.25 917.462 27.165 917.462 25.835C917.462 24.8083 917.917 23.8517 918.827 22.965C919.737 22.055 921.254 21.1683 923.377 20.305L928.312 18.17ZM947.85 11.1C949.25 11.1 950.568 11.345 951.805 11.835C953.065 12.3017 954.162 12.955 955.095 13.795C956.052 14.635 956.798 15.6383 957.335 16.805C957.895 17.9483 958.175 19.2083 958.175 20.585C958.175 22.0083 957.895 23.315 957.335 24.505C956.798 25.695 956.052 26.7217 955.095 27.585C954.162 28.4483 953.065 29.125 951.805 29.615C950.568 30.105 949.25 30.35 947.85 30.35C946.473 30.35 945.167 30.1167 943.93 29.65C942.693 29.16 941.608 28.4833 940.675 27.62C939.742 26.7567 939.007 25.73 938.47 24.54C937.933 23.3267 937.665 22.0083 937.665 20.585C937.665 19.2083 937.933 17.9367 938.47 16.77C939.007 15.6033 939.742 14.6 940.675 13.76C941.608 12.92 942.693 12.2667 943.93 11.8C945.167 11.3333 946.473 11.1 947.85 11.1ZM947.85 13.13C947.15 13.13 946.508 13.3167 945.925 13.69C945.342 14.04 944.84 14.5417 944.42 15.195C944.023 15.8483 943.708 16.6417 943.475 17.575C943.265 18.485 943.16 19.5 943.16 20.62C943.16 21.7867 943.265 22.8367 943.475 23.77C943.708 24.7033 944.023 25.4967 944.42 26.15C944.84 26.8033 945.33 27.3167 945.89 27.69C946.473 28.04 947.127 28.215 947.85 28.215C948.573 28.215 949.227 28.04 949.81 27.69C950.417 27.3167 950.93 26.8033 951.35 26.15C951.77 25.4733 952.097 24.6683 952.33 23.735C952.563 22.8017 952.68 21.7633 952.68 20.62C952.68 19.5 952.563 18.485 952.33 17.575C952.097 16.665 951.77 15.8833 951.35 15.23C950.93 14.5533 950.417 14.04 949.81 13.69C949.227 13.3167 948.573 13.13 947.85 13.13ZM975.751 17.19C975.751 16.2567 975.727 15.5217 975.681 14.985C975.634 14.425 975.506 14.005 975.296 13.725C975.086 13.4217 974.771 13.2233 974.351 13.13C973.954 13.0133 973.406 12.92 972.706 12.85V11.45H980.616V22.055C980.616 23.4783 980.627 24.5983 980.651 25.415C980.697 26.2083 980.767 26.8033 980.861 27.2C980.931 27.5033 981.012 27.7483 981.106 27.935C981.199 28.0983 981.351 28.2383 981.561 28.355C981.771 28.4483 982.051 28.5183 982.401 28.565C982.774 28.5883 983.252 28.6 983.836 28.6V29.965L976.871 30.385L976.486 27.27H976.346C975.739 28.25 974.887 29.0083 973.791 29.545C972.694 30.0817 971.469 30.35 970.116 30.35C967.619 30.35 965.717 29.4633 964.411 27.69C963.407 26.3367 962.906 24.4117 962.906 21.915V17.19C962.906 16.2333 962.882 15.4867 962.836 14.95C962.789 14.39 962.661 13.97 962.451 13.69C962.264 13.41 961.972 13.2233 961.576 13.13C961.179 13.0133 960.631 12.92 959.931 12.85V11.45H967.771V21.355C967.771 23.7117 968.062 25.4267 968.646 26.5C969.229 27.55 970.162 28.075 971.446 28.075C972.822 28.075 973.884 27.445 974.631 26.185C975.377 24.9717 975.751 23.1867 975.751 20.83V17.19ZM1001.13 27.76H1000.99C999.375 29.4867 997.287 30.35 994.72 30.35C993.39 30.35 992.165 30.1167 991.045 29.65C989.948 29.1833 988.992 28.53 988.175 27.69C987.382 26.85 986.763 25.8583 986.32 24.715C985.877 23.5483 985.655 22.265 985.655 20.865C985.655 19.465 985.877 18.17 986.32 16.98C986.787 15.79 987.405 14.7633 988.175 13.9C988.968 13.0133 989.902 12.325 990.975 11.835C992.072 11.345 993.25 11.1 994.51 11.1C995.677 11.1 996.703 11.275 997.59 11.625C998.5 11.975 999.293 12.57 999.97 13.41H1000.11V10.435C1000.11 9.05833 1000.09 7.88 1000.04 6.9C1000.02 5.89667 999.97 5.24333 999.9 4.94C999.783 4.45 999.422 4.1 998.815 3.89C998.232 3.65667 997.322 3.54 996.085 3.54V2.35L1004.94 0.949998V20.97C1004.94 22.72 1004.95 24.0733 1004.98 25.03C1005.02 25.9633 1005.09 26.675 1005.19 27.165C1005.23 27.4683 1005.3 27.7133 1005.4 27.9C1005.49 28.0867 1005.63 28.2383 1005.82 28.355C1006 28.4483 1006.25 28.5183 1006.55 28.565C1006.88 28.5883 1007.29 28.6 1007.78 28.6V29.965L1001.13 30.35V27.76ZM1000.04 19.955C1000.04 19.0683 999.947 18.2517 999.76 17.505C999.573 16.735 999.293 16.0583 998.92 15.475C998.5 14.7983 997.963 14.285 997.31 13.935C996.657 13.585 995.957 13.41 995.21 13.41C993.833 13.41 992.783 14.04 992.06 15.3C991.337 16.56 990.975 18.3917 990.975 20.795C990.975 23.2217 991.337 25.0883 992.06 26.395C992.783 27.7017 993.822 28.355 995.175 28.355C995.945 28.355 996.68 28.1567 997.38 27.76C998.08 27.3633 998.652 26.8267 999.095 26.15C999.422 25.6367 999.655 25.0067 999.795 24.26C999.958 23.49 1000.04 22.51 1000.04 21.32V19.955ZM224.11 64.075H225.475C225.801 66.2917 226.688 68.0417 228.135 69.325C229.581 70.585 231.366 71.215 233.49 71.215C234.353 71.215 235.146 71.11 235.87 70.9C236.593 70.69 237.211 70.3983 237.725 70.025C238.238 69.6283 238.635 69.1733 238.915 68.66C239.195 68.1233 239.335 67.5283 239.335 66.875C239.335 66.315 239.241 65.8367 239.055 65.44C238.891 65.02 238.565 64.6233 238.075 64.25C237.585 63.8533 236.908 63.4567 236.045 63.06C235.205 62.6633 234.108 62.2083 232.755 61.695C230.025 60.645 228.006 59.4317 226.7 58.055C225.393 56.655 224.74 55.01 224.74 53.12C224.74 52.0233 224.95 51.02 225.37 50.11C225.79 49.2 226.373 48.4183 227.12 47.765C227.89 47.1117 228.8 46.61 229.85 46.26C230.923 45.8867 232.101 45.7 233.385 45.7C234.575 45.7 235.695 45.8867 236.745 46.26C237.795 46.6333 238.833 47.1933 239.86 47.94L240.49 46.19H241.33L241.715 53.75H240.35C239.79 51.8367 238.915 50.3783 237.725 49.375C236.535 48.3483 235.158 47.835 233.595 47.835C232.148 47.835 230.97 48.1967 230.06 48.92C229.173 49.62 228.73 50.53 228.73 51.65C228.73 52.14 228.811 52.5833 228.975 52.98C229.138 53.3533 229.441 53.715 229.885 54.065C230.328 54.415 230.935 54.7767 231.705 55.15C232.475 55.5 233.466 55.8967 234.68 56.34C236.313 56.97 237.701 57.6117 238.845 58.265C240.011 58.895 240.956 59.5833 241.68 60.33C242.426 61.0533 242.975 61.8233 243.325 62.64C243.675 63.4567 243.85 64.355 243.85 65.335C243.85 66.525 243.593 67.61 243.08 68.59C242.566 69.57 241.843 70.41 240.91 71.11C240 71.81 238.903 72.3583 237.62 72.755C236.36 73.1517 234.96 73.35 233.42 73.35C232.02 73.35 230.76 73.1633 229.64 72.79C228.52 72.3933 227.365 71.7633 226.175 70.9L225.475 73H224.635L224.11 64.075ZM254.423 67.26C254.423 68.1933 254.458 68.94 254.528 69.5C254.598 70.06 254.738 70.4917 254.948 70.795C255.158 71.0983 255.461 71.3083 255.858 71.425C256.254 71.5183 256.791 71.5767 257.468 71.6V73H246.443V71.6C247.096 71.5767 247.621 71.5067 248.018 71.39C248.438 71.25 248.753 71.04 248.963 70.76C249.196 70.4567 249.348 70.0483 249.418 69.535C249.511 68.9983 249.558 68.3217 249.558 67.505V63.2C249.558 61.8467 249.534 60.7383 249.488 59.875C249.441 58.9883 249.383 58.3817 249.313 58.055C249.196 57.4717 248.928 57.0867 248.508 56.9C248.111 56.7133 247.376 56.62 246.303 56.62V55.43L254.423 54.1V67.26ZM249.278 46.68C249.278 45.91 249.534 45.2683 250.048 44.755C250.584 44.2183 251.226 43.95 251.973 43.95C252.743 43.95 253.384 44.2183 253.898 44.755C254.434 45.2683 254.703 45.91 254.703 46.68C254.703 47.4267 254.434 48.0683 253.898 48.605C253.384 49.1183 252.743 49.375 251.973 49.375C251.226 49.375 250.584 49.1183 250.048 48.605C249.534 48.0683 249.278 47.4267 249.278 46.68ZM266.614 67.26C266.614 68.2167 266.638 68.975 266.684 69.535C266.754 70.0717 266.883 70.4917 267.069 70.795C267.279 71.0983 267.583 71.2967 267.979 71.39C268.399 71.4833 268.959 71.5533 269.659 71.6V73H258.634V71.6C259.334 71.5533 259.894 71.4833 260.314 71.39C260.734 71.2967 261.049 71.11 261.259 70.83C261.469 70.55 261.598 70.1533 261.644 69.64C261.714 69.1033 261.749 68.3917 261.749 67.505V53.12C261.749 51.72 261.726 50.6233 261.679 49.83C261.656 49.0133 261.598 48.395 261.504 47.975C261.434 47.6717 261.353 47.4383 261.259 47.275C261.166 47.0883 261.014 46.9483 260.804 46.855C260.618 46.7383 260.349 46.6683 259.999 46.645C259.673 46.5983 259.253 46.575 258.739 46.575V45.28L266.544 43.95V56.865H266.684C267.408 55.9083 268.213 55.2083 269.099 54.765C270.009 54.3217 271.094 54.1 272.354 54.1C274.641 54.1 276.414 54.8 277.674 56.2C278.281 56.9 278.759 57.7517 279.109 58.755C279.459 59.735 279.634 60.7617 279.634 61.835V67.26C279.634 68.24 279.658 69.01 279.704 69.57C279.751 70.1067 279.868 70.5267 280.054 70.83C280.264 71.11 280.568 71.2967 280.964 71.39C281.361 71.4833 281.909 71.5533 282.609 71.6V73H271.654V71.6C272.354 71.5767 272.903 71.5183 273.299 71.425C273.719 71.3083 274.034 71.11 274.244 70.83C274.478 70.55 274.618 70.1533 274.664 69.64C274.734 69.1033 274.769 68.3917 274.769 67.505V63.2C274.769 60.7267 274.501 58.9767 273.964 57.95C273.428 56.9233 272.506 56.41 271.199 56.41C269.799 56.41 268.691 56.9233 267.874 57.95C267.478 58.4867 267.163 59.1517 266.929 59.945C266.719 60.7383 266.614 61.625 266.614 62.605V67.26ZM301.96 69.745C299.836 72.1483 297.188 73.35 294.015 73.35C292.568 73.35 291.25 73.1283 290.06 72.685C288.893 72.2183 287.89 71.5767 287.05 70.76C286.21 69.92 285.556 68.9283 285.09 67.785C284.623 66.6417 284.39 65.37 284.39 63.97C284.39 62.5233 284.635 61.205 285.125 60.015C285.615 58.8017 286.303 57.7633 287.19 56.9C288.1 56.0133 289.161 55.325 290.375 54.835C291.611 54.345 292.965 54.1 294.435 54.1C296.908 54.1 298.833 54.765 300.21 56.095C301.586 57.425 302.275 59.2917 302.275 61.695C302.275 62.0683 302.216 62.3017 302.1 62.395C301.983 62.465 301.656 62.5 301.12 62.5H289.85C289.756 62.71 289.71 63.095 289.71 63.655C289.71 65.9417 290.2 67.75 291.18 69.08C292.183 70.41 293.536 71.075 295.24 71.075C296.22 71.075 297.188 70.8533 298.145 70.41C299.125 69.9667 300.07 69.3367 300.98 68.52L301.96 69.745ZM295.17 60.54C296.103 60.54 296.698 60.4933 296.955 60.4C297.235 60.2833 297.375 60.0267 297.375 59.63C297.375 58.6033 297.083 57.7633 296.5 57.11C295.916 56.4567 295.181 56.13 294.295 56.13C293.291 56.13 292.393 56.55 291.6 57.39C290.83 58.2067 290.328 59.2567 290.095 60.54H295.17ZM312.563 67.225C312.563 68.205 312.587 68.975 312.633 69.535C312.68 70.095 312.808 70.5267 313.018 70.83C313.228 71.11 313.532 71.2967 313.928 71.39C314.325 71.4833 314.873 71.5533 315.573 71.6V73H304.513V71.6C305.213 71.5533 305.773 71.4833 306.193 71.39C306.613 71.2967 306.928 71.11 307.138 70.83C307.348 70.55 307.488 70.1533 307.558 69.64C307.628 69.1033 307.663 68.3917 307.663 67.505V63.165C307.663 61.835 307.64 60.7267 307.593 59.84C307.57 58.9533 307.512 58.3467 307.418 58.02C307.348 57.7167 307.255 57.4833 307.138 57.32C307.045 57.1333 306.882 56.9933 306.648 56.9C306.438 56.7833 306.158 56.7133 305.808 56.69C305.458 56.6433 305.003 56.62 304.443 56.62V55.43L311.198 54.1L311.618 57.145H311.828C312.808 56.0483 313.788 55.2667 314.768 54.8C315.772 54.3333 316.927 54.1 318.233 54.1C319.773 54.1 321.045 54.3683 322.048 54.905C323.052 55.4417 323.81 56.2117 324.323 57.215H324.463C325.303 56.235 326.307 55.4767 327.473 54.94C328.64 54.38 329.888 54.1 331.218 54.1C332.618 54.1 333.832 54.275 334.858 54.625C335.908 54.975 336.725 55.4767 337.308 56.13C337.775 56.6667 338.113 57.3667 338.323 58.23C338.557 59.0933 338.673 60.295 338.673 61.835V67.225C338.673 68.1817 338.697 68.94 338.743 69.5C338.813 70.06 338.953 70.4917 339.163 70.795C339.373 71.0983 339.677 71.2967 340.073 71.39C340.47 71.4833 341.018 71.5533 341.718 71.6V73H330.658V71.6C331.358 71.5767 331.907 71.5183 332.303 71.425C332.723 71.3083 333.038 71.11 333.248 70.83C333.482 70.5267 333.622 70.1183 333.668 69.605C333.738 69.0917 333.773 68.3917 333.773 67.505V62.92C333.773 61.7067 333.703 60.68 333.563 59.84C333.423 59 333.202 58.3233 332.898 57.81C332.595 57.2967 332.187 56.935 331.673 56.725C331.183 56.4917 330.577 56.375 329.853 56.375C329.037 56.375 328.36 56.5733 327.823 56.97C327.31 57.3667 326.878 57.88 326.528 58.51C325.922 59.6067 325.618 60.9717 325.618 62.605V67.225C325.618 68.1817 325.642 68.94 325.688 69.5C325.735 70.06 325.863 70.4917 326.073 70.795C326.283 71.0983 326.587 71.2967 326.983 71.39C327.403 71.4833 327.975 71.5533 328.698 71.6V73H317.603V71.6C318.303 71.5533 318.852 71.4833 319.248 71.39C319.668 71.2967 319.983 71.11 320.193 70.83C320.427 70.55 320.567 70.1533 320.613 69.64C320.683 69.1033 320.718 68.3917 320.718 67.505V62.92C320.718 61.7067 320.648 60.68 320.508 59.84C320.368 59 320.135 58.3233 319.808 57.81C319.505 57.2967 319.097 56.935 318.583 56.725C318.07 56.4917 317.428 56.375 316.658 56.375C315.888 56.375 315.247 56.5617 314.733 56.935C314.243 57.3083 313.835 57.81 313.508 58.44C313.205 59 312.972 59.6417 312.808 60.365C312.645 61.0883 312.563 61.835 312.563 62.605V67.225ZM530.463 67.365C530.463 68.2517 530.498 68.975 530.568 69.535C530.661 70.0717 530.836 70.4917 531.093 70.795C531.373 71.075 531.746 71.2733 532.213 71.39C532.703 71.5067 533.345 71.5767 534.138 71.6V73H521.293V71.6C522.156 71.5767 522.845 71.5067 523.358 71.39C523.895 71.2733 524.303 71.075 524.583 70.795C524.886 70.515 525.085 70.1183 525.178 69.605C525.271 69.0917 525.318 68.4267 525.318 67.61V60.295H512.333V67.365C512.333 68.2517 512.38 68.975 512.473 69.535C512.566 70.0717 512.753 70.4917 513.033 70.795C513.313 71.075 513.71 71.2733 514.223 71.39C514.76 71.5067 515.46 71.5767 516.323 71.6V73H503.513V71.6C504.306 71.5767 504.936 71.5067 505.403 71.39C505.893 71.2733 506.266 71.075 506.523 70.795C506.78 70.515 506.955 70.1183 507.048 69.605C507.141 69.0917 507.188 68.4267 507.188 67.61V51.44C507.188 50.6233 507.141 49.97 507.048 49.48C506.978 48.9667 506.826 48.57 506.593 48.29C506.36 47.9867 506.021 47.7883 505.578 47.695C505.158 47.5783 504.598 47.4967 503.898 47.45V46.05H515.973V47.45C515.18 47.4733 514.538 47.5433 514.048 47.66C513.581 47.7767 513.22 47.9867 512.963 48.29C512.706 48.5933 512.531 49.0133 512.438 49.55C512.368 50.0867 512.333 50.7983 512.333 51.685V58.125H525.318V51.44C525.318 50.6233 525.271 49.97 525.178 49.48C525.085 48.9667 524.91 48.57 524.653 48.29C524.396 47.9867 524.023 47.7883 523.533 47.695C523.066 47.5783 522.436 47.4967 521.643 47.45V46.05H533.753V47.45C533.053 47.4733 532.481 47.5433 532.038 47.66C531.618 47.7767 531.291 47.9867 531.058 48.29C530.825 48.5933 530.661 49.0133 530.568 49.55C530.498 50.0867 530.463 50.7983 530.463 51.685V67.365ZM547.414 63.025C545.454 63.9117 543.972 64.74 542.969 65.51C541.989 66.2567 541.499 67.0383 541.499 67.855C541.499 68.5317 541.686 69.0683 542.059 69.465C542.432 69.8617 542.899 70.06 543.459 70.06C544.019 70.06 544.544 69.9667 545.034 69.78C545.524 69.57 545.944 69.3017 546.294 68.975C546.644 68.6483 546.912 68.2633 547.099 67.82C547.309 67.3533 547.414 66.8633 547.414 66.35V63.025ZM547.414 61.17V59.7C547.414 58.3467 547.169 57.3667 546.679 56.76C546.212 56.13 545.477 55.815 544.474 55.815C543.797 55.815 543.284 56.0017 542.934 56.375C542.584 56.725 542.257 57.32 541.954 58.16C541.744 58.7433 541.441 59.1983 541.044 59.525C540.671 59.8517 540.146 60.015 539.469 60.015C538.816 60.015 538.314 59.8167 537.964 59.42C537.614 59.0233 537.439 58.4633 537.439 57.74C537.439 56.62 538.046 55.7333 539.259 55.08C540.496 54.4267 542.351 54.1 544.824 54.1C547.437 54.1 549.304 54.5783 550.424 55.535C551.544 56.4683 552.104 58.0433 552.104 60.26V67.925C552.104 69.9083 552.501 70.9 553.294 70.9C553.737 70.9 554.146 70.7483 554.519 70.445L555.044 71.46C554.717 72.0433 554.204 72.51 553.504 72.86C552.827 73.1867 552.057 73.35 551.194 73.35C550.121 73.35 549.304 73.0233 548.744 72.37C548.184 71.7167 547.904 70.795 547.904 69.605H547.729C547.052 70.8183 546.177 71.74 545.104 72.37C544.031 73 542.806 73.315 541.429 73.315C539.959 73.315 538.781 72.9067 537.894 72.09C537.007 71.25 536.564 70.165 536.564 68.835C536.564 67.8083 537.019 66.8517 537.929 65.965C538.839 65.055 540.356 64.1683 542.479 63.305L547.414 61.17ZM573.952 70.095C573.065 71.075 571.957 71.8333 570.627 72.37C569.32 72.9067 567.897 73.175 566.357 73.175C564.933 73.175 563.638 72.9533 562.472 72.51C561.305 72.0433 560.302 71.4017 559.462 70.585C558.622 69.7683 557.968 68.7883 557.502 67.645C557.058 66.4783 556.837 65.195 556.837 63.795C556.837 62.3483 557.082 61.03 557.572 59.84C558.062 58.65 558.75 57.635 559.637 56.795C560.523 55.9317 561.585 55.2667 562.822 54.8C564.058 54.3333 565.423 54.1 566.917 54.1C567.967 54.1 568.935 54.205 569.822 54.415C570.732 54.625 571.502 54.9167 572.132 55.29C572.785 55.6633 573.298 56.1067 573.672 56.62C574.045 57.11 574.232 57.6467 574.232 58.23C574.232 58.9067 574.033 59.4433 573.637 59.84C573.263 60.2367 572.75 60.435 572.097 60.435C571.56 60.435 571.082 60.295 570.662 60.015C570.265 59.735 569.868 59.28 569.472 58.65C569.122 58.09 568.818 57.6467 568.562 57.32C568.328 56.9933 568.107 56.7483 567.897 56.585C567.687 56.3983 567.477 56.2817 567.267 56.235C567.057 56.165 566.8 56.13 566.497 56.13C565.143 56.13 564.093 56.76 563.347 58.02C562.6 59.28 562.227 61.0417 562.227 63.305C562.227 65.7317 562.67 67.5983 563.557 68.905C564.467 70.2117 565.762 70.865 567.442 70.865C568.398 70.865 569.355 70.69 570.312 70.34C571.268 69.9667 572.178 69.4417 573.042 68.765L573.952 70.095ZM583.768 67.26C583.768 68.2167 583.791 68.975 583.838 69.535C583.908 70.0717 584.036 70.4917 584.223 70.795C584.433 71.0983 584.736 71.2967 585.133 71.39C585.553 71.4833 586.113 71.5533 586.813 71.6V73H575.788V71.6C576.488 71.5533 577.048 71.4833 577.468 71.39C577.888 71.2967 578.203 71.11 578.413 70.83C578.623 70.55 578.751 70.1533 578.798 69.64C578.868 69.1033 578.903 68.3917 578.903 67.505V53.12C578.903 51.72 578.879 50.6233 578.833 49.83C578.809 49.0133 578.751 48.395 578.658 47.975C578.588 47.6717 578.506 47.4383 578.413 47.275C578.319 47.0883 578.168 46.9483 577.958 46.855C577.771 46.7383 577.503 46.6683 577.153 46.645C576.826 46.5983 576.406 46.575 575.893 46.575V45.28L583.698 43.95V56.865H583.838C584.561 55.9083 585.366 55.2083 586.253 54.765C587.163 54.3217 588.248 54.1 589.508 54.1C591.794 54.1 593.568 54.8 594.828 56.2C595.434 56.9 595.913 57.7517 596.263 58.755C596.613 59.735 596.788 60.7617 596.788 61.835V67.26C596.788 68.24 596.811 69.01 596.858 69.57C596.904 70.1067 597.021 70.5267 597.208 70.83C597.418 71.11 597.721 71.2967 598.118 71.39C598.514 71.4833 599.063 71.5533 599.763 71.6V73H588.808V71.6C589.508 71.5767 590.056 71.5183 590.453 71.425C590.873 71.3083 591.188 71.11 591.398 70.83C591.631 70.55 591.771 70.1533 591.818 69.64C591.888 69.1033 591.923 68.3917 591.923 67.505V63.2C591.923 60.7267 591.654 58.9767 591.118 57.95C590.581 56.9233 589.659 56.41 588.353 56.41C586.953 56.41 585.844 56.9233 585.028 57.95C584.631 58.4867 584.316 59.1517 584.083 59.945C583.873 60.7383 583.768 61.625 583.768 62.605V67.26ZM619.113 69.745C616.99 72.1483 614.341 73.35 611.168 73.35C609.721 73.35 608.403 73.1283 607.213 72.685C606.046 72.2183 605.043 71.5767 604.203 70.76C603.363 69.92 602.71 68.9283 602.243 67.785C601.776 66.6417 601.543 65.37 601.543 63.97C601.543 62.5233 601.788 61.205 602.278 60.015C602.768 58.8017 603.456 57.7633 604.343 56.9C605.253 56.0133 606.315 55.325 607.528 54.835C608.765 54.345 610.118 54.1 611.588 54.1C614.061 54.1 615.986 54.765 617.363 56.095C618.74 57.425 619.428 59.2917 619.428 61.695C619.428 62.0683 619.37 62.3017 619.253 62.395C619.136 62.465 618.81 62.5 618.273 62.5H607.003C606.91 62.71 606.863 63.095 606.863 63.655C606.863 65.9417 607.353 67.75 608.333 69.08C609.336 70.41 610.69 71.075 612.393 71.075C613.373 71.075 614.341 70.8533 615.298 70.41C616.278 69.9667 617.223 69.3367 618.133 68.52L619.113 69.745ZM612.323 60.54C613.256 60.54 613.851 60.4933 614.108 60.4C614.388 60.2833 614.528 60.0267 614.528 59.63C614.528 58.6033 614.236 57.7633 613.653 57.11C613.07 56.4567 612.335 56.13 611.448 56.13C610.445 56.13 609.546 56.55 608.753 57.39C607.983 58.2067 607.481 59.2567 607.248 60.54H612.323ZM629.717 67.225C629.717 68.205 629.74 68.975 629.787 69.535C629.833 70.095 629.962 70.5267 630.172 70.83C630.382 71.11 630.685 71.2967 631.082 71.39C631.478 71.4833 632.027 71.5533 632.727 71.6V73H621.667V71.6C622.367 71.5533 622.927 71.4833 623.347 71.39C623.767 71.2967 624.082 71.11 624.292 70.83C624.502 70.55 624.642 70.1533 624.712 69.64C624.782 69.1033 624.817 68.3917 624.817 67.505V63.165C624.817 61.835 624.793 60.7267 624.747 59.84C624.723 58.9533 624.665 58.3467 624.572 58.02C624.502 57.7167 624.408 57.4833 624.292 57.32C624.198 57.1333 624.035 56.9933 623.802 56.9C623.592 56.7833 623.312 56.7133 622.962 56.69C622.612 56.6433 622.157 56.62 621.597 56.62V55.43L628.352 54.1L628.772 57.145H628.982C629.962 56.0483 630.942 55.2667 631.922 54.8C632.925 54.3333 634.08 54.1 635.387 54.1C636.927 54.1 638.198 54.3683 639.202 54.905C640.205 55.4417 640.963 56.2117 641.477 57.215H641.617C642.457 56.235 643.46 55.4767 644.627 54.94C645.793 54.38 647.042 54.1 648.372 54.1C649.772 54.1 650.985 54.275 652.012 54.625C653.062 54.975 653.878 55.4767 654.462 56.13C654.928 56.6667 655.267 57.3667 655.477 58.23C655.71 59.0933 655.827 60.295 655.827 61.835V67.225C655.827 68.1817 655.85 68.94 655.897 69.5C655.967 70.06 656.107 70.4917 656.317 70.795C656.527 71.0983 656.83 71.2967 657.227 71.39C657.623 71.4833 658.172 71.5533 658.872 71.6V73H647.812V71.6C648.512 71.5767 649.06 71.5183 649.457 71.425C649.877 71.3083 650.192 71.11 650.402 70.83C650.635 70.5267 650.775 70.1183 650.822 69.605C650.892 69.0917 650.927 68.3917 650.927 67.505V62.92C650.927 61.7067 650.857 60.68 650.717 59.84C650.577 59 650.355 58.3233 650.052 57.81C649.748 57.2967 649.34 56.935 648.827 56.725C648.337 56.4917 647.73 56.375 647.007 56.375C646.19 56.375 645.513 56.5733 644.977 56.97C644.463 57.3667 644.032 57.88 643.682 58.51C643.075 59.6067 642.772 60.9717 642.772 62.605V67.225C642.772 68.1817 642.795 68.94 642.842 69.5C642.888 70.06 643.017 70.4917 643.227 70.795C643.437 71.0983 643.74 71.2967 644.137 71.39C644.557 71.4833 645.128 71.5533 645.852 71.6V73H634.757V71.6C635.457 71.5533 636.005 71.4833 636.402 71.39C636.822 71.2967 637.137 71.11 637.347 70.83C637.58 70.55 637.72 70.1533 637.767 69.64C637.837 69.1033 637.872 68.3917 637.872 67.505V62.92C637.872 61.7067 637.802 60.68 637.662 59.84C637.522 59 637.288 58.3233 636.962 57.81C636.658 57.2967 636.25 56.935 635.737 56.725C635.223 56.4917 634.582 56.375 633.812 56.375C633.042 56.375 632.4 56.5617 631.887 56.935C631.397 57.3083 630.988 57.81 630.662 58.44C630.358 59 630.125 59.6417 629.962 60.365C629.798 61.0883 629.717 61.835 629.717 62.605V67.225ZM668.407 67.26C668.407 68.1933 668.442 68.94 668.512 69.5C668.582 70.06 668.722 70.4917 668.932 70.795C669.142 71.0983 669.445 71.3083 669.842 71.425C670.239 71.5183 670.775 71.5767 671.452 71.6V73H660.427V71.6C661.08 71.5767 661.605 71.5067 662.002 71.39C662.422 71.25 662.737 71.04 662.947 70.76C663.18 70.4567 663.332 70.0483 663.402 69.535C663.495 68.9983 663.542 68.3217 663.542 67.505V63.2C663.542 61.8467 663.519 60.7383 663.472 59.875C663.425 58.9883 663.367 58.3817 663.297 58.055C663.18 57.4717 662.912 57.0867 662.492 56.9C662.095 56.7133 661.36 56.62 660.287 56.62V55.43L668.407 54.1V67.26ZM663.262 46.68C663.262 45.91 663.519 45.2683 664.032 44.755C664.569 44.2183 665.21 43.95 665.957 43.95C666.727 43.95 667.369 44.2183 667.882 44.755C668.419 45.2683 668.687 45.91 668.687 46.68C668.687 47.4267 668.419 48.0683 667.882 48.605C667.369 49.1183 666.727 49.375 665.957 49.375C665.21 49.375 664.569 49.1183 664.032 48.605C663.519 48.0683 663.262 47.4267 663.262 46.68ZM682.58 73V71.6C683.35 71.5767 683.969 71.5183 684.435 71.425C684.925 71.3083 685.299 71.11 685.555 70.83C685.835 70.5267 686.022 70.13 686.115 69.64C686.209 69.1267 686.255 68.45 686.255 67.61V51.44C686.255 50.6233 686.22 49.97 686.15 49.48C686.08 48.9667 685.929 48.57 685.695 48.29C685.462 47.9867 685.135 47.7883 684.715 47.695C684.319 47.5783 683.794 47.4967 683.14 47.45V46.05H696.44C698.68 46.05 700.745 46.4 702.635 47.1C704.525 47.8 706.159 48.7683 707.535 50.005C708.912 51.2417 709.985 52.7117 710.755 54.415C711.525 56.1183 711.91 57.9733 711.91 59.98C711.91 61.8933 711.549 63.655 710.825 65.265C710.102 66.8517 709.087 68.2167 707.78 69.36C706.497 70.5033 704.945 71.4017 703.125 72.055C701.329 72.685 699.345 73 697.175 73H682.58ZM691.995 48.185C691.599 48.185 691.4 48.3833 691.4 48.78V66.875C691.4 68.2283 691.82 69.2317 692.66 69.885C693.5 70.5383 694.795 70.865 696.545 70.865C699.602 70.865 701.947 69.9433 703.58 68.1C705.237 66.2567 706.065 63.5733 706.065 60.05C706.065 58.1833 705.844 56.515 705.4 55.045C704.957 53.575 704.315 52.3383 703.475 51.335C702.635 50.3083 701.609 49.5267 700.395 48.99C699.205 48.4533 697.864 48.185 696.37 48.185H691.995ZM732.419 69.745C730.295 72.1483 727.647 73.35 724.474 73.35C723.027 73.35 721.709 73.1283 720.519 72.685C719.352 72.2183 718.349 71.5767 717.509 70.76C716.669 69.92 716.015 68.9283 715.549 67.785C715.082 66.6417 714.849 65.37 714.849 63.97C714.849 62.5233 715.094 61.205 715.584 60.015C716.074 58.8017 716.762 57.7633 717.649 56.9C718.559 56.0133 719.62 55.325 720.834 54.835C722.07 54.345 723.424 54.1 724.894 54.1C727.367 54.1 729.292 54.765 730.669 56.095C732.045 57.425 732.734 59.2917 732.734 61.695C732.734 62.0683 732.675 62.3017 732.559 62.395C732.442 62.465 732.115 62.5 731.579 62.5H720.309C720.215 62.71 720.169 63.095 720.169 63.655C720.169 65.9417 720.659 67.75 721.639 69.08C722.642 70.41 723.995 71.075 725.699 71.075C726.679 71.075 727.647 70.8533 728.604 70.41C729.584 69.9667 730.529 69.3367 731.439 68.52L732.419 69.745ZM725.629 60.54C726.562 60.54 727.157 60.4933 727.414 60.4C727.694 60.2833 727.834 60.0267 727.834 59.63C727.834 58.6033 727.542 57.7633 726.959 57.11C726.375 56.4567 725.64 56.13 724.754 56.13C723.75 56.13 722.852 56.55 722.059 57.39C721.289 58.2067 720.787 59.2567 720.554 60.54H725.629ZM742.637 67.26C742.637 68.1933 742.672 68.94 742.742 69.5C742.812 70.06 742.952 70.4917 743.162 70.795C743.372 71.0983 743.676 71.3083 744.072 71.425C744.469 71.5183 745.006 71.5767 745.682 71.6V73H734.657V71.6C735.311 71.5767 735.836 71.5067 736.232 71.39C736.652 71.25 736.967 71.04 737.177 70.76C737.411 70.4567 737.562 70.0483 737.632 69.535C737.726 68.9983 737.772 68.3217 737.772 67.505V53.05C737.772 51.6967 737.749 50.5883 737.702 49.725C737.656 48.8383 737.597 48.2317 737.527 47.905C737.411 47.3217 737.142 46.9367 736.722 46.75C736.326 46.5633 735.591 46.47 734.517 46.47V45.28L742.637 43.95V67.26ZM755.079 67.26C755.079 68.1933 755.114 68.94 755.184 69.5C755.254 70.06 755.394 70.4917 755.604 70.795C755.814 71.0983 756.117 71.3083 756.514 71.425C756.91 71.5183 757.447 71.5767 758.124 71.6V73H747.099V71.6C747.752 71.5767 748.277 71.5067 748.674 71.39C749.094 71.25 749.409 71.04 749.619 70.76C749.852 70.4567 750.004 70.0483 750.074 69.535C750.167 68.9983 750.214 68.3217 750.214 67.505V53.05C750.214 51.6967 750.19 50.5883 750.144 49.725C750.097 48.8383 750.039 48.2317 749.969 47.905C749.852 47.3217 749.584 46.9367 749.164 46.75C748.767 46.5633 748.032 46.47 746.959 46.47V45.28L755.079 43.95V67.26ZM768.441 78.495C768.185 79.0083 767.858 79.4867 767.461 79.93C767.088 80.3733 766.656 80.7467 766.166 81.05C765.7 81.3767 765.21 81.6333 764.696 81.82C764.183 82.0067 763.67 82.1 763.156 82.1C762.386 82.1 761.768 81.9133 761.301 81.54C760.835 81.1667 760.601 80.665 760.601 80.035C760.601 79.4517 760.8 78.9967 761.196 78.67C761.616 78.3433 762.281 78.145 763.191 78.075C765.268 77.9117 766.61 77.2583 767.216 76.115L768.161 74.295L761.966 58.965C761.686 58.2883 761.441 57.7517 761.231 57.355C761.045 56.9583 760.835 56.655 760.601 56.445C760.368 56.2117 760.1 56.06 759.796 55.99C759.493 55.92 759.12 55.8733 758.676 55.85V54.45H769.281V55.85C768.371 55.85 767.73 55.9433 767.356 56.13C767.006 56.2933 766.831 56.6083 766.831 57.075C766.831 57.2617 766.855 57.4833 766.901 57.74C766.971 57.9733 767.053 58.2183 767.146 58.475L770.716 68.695H770.856L773.866 61.87C774.17 61.1467 774.426 60.5517 774.636 60.085C774.846 59.595 774.998 59.1867 775.091 58.86C775.208 58.51 775.29 58.23 775.336 58.02C775.383 57.81 775.406 57.6 775.406 57.39C775.406 56.7833 775.231 56.375 774.881 56.165C774.555 55.955 773.878 55.85 772.851 55.85V54.45H781.286V55.85C780.82 55.85 780.423 55.92 780.096 56.06C779.77 56.1767 779.431 56.4333 779.081 56.83C778.755 57.2267 778.381 57.8217 777.961 58.615C777.565 59.385 777.063 60.4117 776.456 61.695L768.441 78.495ZM783.452 73H782.367V66.63H783.837C784.233 68.31 784.805 69.535 785.552 70.305C786.298 71.075 787.267 71.46 788.457 71.46C789.32 71.46 789.985 71.285 790.452 70.935C790.942 70.5617 791.187 70.06 791.187 69.43C791.187 68.7767 790.895 68.1467 790.312 67.54C789.728 66.91 788.783 66.245 787.477 65.545C785.703 64.5883 784.432 63.6433 783.662 62.71C782.892 61.7533 782.507 60.68 782.507 59.49C782.507 58.72 782.647 58.0083 782.927 57.355C783.23 56.6783 783.627 56.095 784.117 55.605C784.63 55.115 785.237 54.7417 785.937 54.485C786.637 54.205 787.395 54.065 788.212 54.065C788.935 54.065 789.647 54.17 790.347 54.38C791.07 54.59 791.7 54.8817 792.237 55.255L792.867 54.415H793.777V59.7H792.412C791.875 58.37 791.315 57.4133 790.732 56.83C790.172 56.2467 789.483 55.955 788.667 55.955C788.013 55.955 787.488 56.13 787.092 56.48C786.718 56.83 786.532 57.2967 786.532 57.88C786.532 58.5333 786.812 59.1517 787.372 59.735C787.955 60.3183 788.912 60.96 790.242 61.66C791.175 62.1733 791.98 62.675 792.657 63.165C793.333 63.655 793.882 64.1567 794.302 64.67C794.722 65.16 795.025 65.685 795.212 66.245C795.422 66.7817 795.527 67.365 795.527 67.995C795.527 68.8117 795.375 69.5467 795.072 70.2C794.768 70.8533 794.337 71.4133 793.777 71.88C793.217 72.3467 792.54 72.7083 791.747 72.965C790.977 73.2217 790.113 73.35 789.157 73.35C788.153 73.35 787.22 73.2217 786.357 72.965C785.493 72.685 784.782 72.2883 784.222 71.775L783.452 73Z" fill="#4A8CFF"/>
</svg>
