<svg width="676" height="62" viewBox="0 0 676 62" fill="none" xmlns="http://www.w3.org/2000/svg">
<path d="M257.651 10.61C258.101 10.61 258.416 10.745 258.596 11.015C258.776 11.285 258.806 11.615 258.686 12.005L249.506 43.055C249.296 43.685 248.846 44 248.156 44H243.296C242.546 44 242.081 43.685 241.901 43.055L236.231 23.39C236.171 23.12 236.081 22.985 235.961 22.985C235.871 22.955 235.781 23.12 235.691 23.48L229.976 43.055C229.796 43.685 229.346 44 228.626 44H223.631C222.911 44 222.446 43.685 222.236 43.055L213.056 12.005C212.966 11.615 213.011 11.285 213.191 11.015C213.371 10.745 213.686 10.61 214.136 10.61H219.761C220.151 10.61 220.421 10.685 220.571 10.835C220.751 10.955 220.871 11.135 220.931 11.375L226.736 31.85C226.826 32.18 226.916 32.345 227.006 32.345C227.096 32.345 227.186 32.225 227.276 31.985L233.081 11.375C233.141 11.135 233.246 10.955 233.396 10.835C233.576 10.685 233.861 10.61 234.251 10.61H239.066C239.456 10.61 239.726 10.685 239.876 10.835C240.056 10.955 240.191 11.135 240.281 11.375L246.176 32.165C246.236 32.375 246.326 32.495 246.446 32.525C246.566 32.525 246.641 32.42 246.671 32.21L252.386 11.375C252.446 11.135 252.566 10.955 252.746 10.835C252.926 10.685 253.211 10.61 253.601 10.61H257.651ZM263.726 44C263.096 44 262.781 43.7 262.781 43.1V11.465C262.781 10.895 263.021 10.61 263.501 10.61H268.901C269.351 10.61 269.576 10.865 269.576 11.375V22.895C269.576 23.075 269.621 23.195 269.711 23.255C269.801 23.285 269.936 23.225 270.116 23.075C271.046 22.235 271.916 21.575 272.726 21.095C273.566 20.615 274.391 20.27 275.201 20.06C276.041 19.82 276.881 19.7 277.721 19.7C280.001 19.7 281.756 20.33 282.986 21.59C284.216 22.85 284.831 24.62 284.831 26.9V42.92C284.831 43.64 284.471 44 283.751 44H278.756C278.456 44 278.231 43.94 278.081 43.82C277.961 43.67 277.901 43.43 277.901 43.1V27.89C277.901 26.87 277.631 26.09 277.091 25.55C276.551 24.98 275.741 24.695 274.661 24.695C274.031 24.695 273.446 24.8 272.906 25.01C272.366 25.22 271.841 25.535 271.331 25.955C270.821 26.345 270.281 26.855 269.711 27.485V42.965C269.711 43.655 269.321 44 268.541 44H263.726ZM300.566 44.45C298.196 44.45 296.096 43.925 294.266 42.875C292.466 41.825 291.056 40.385 290.036 38.555C289.016 36.695 288.506 34.58 288.506 32.21C288.506 29.72 289.031 27.545 290.081 25.685C291.131 23.795 292.571 22.325 294.401 21.275C296.231 20.225 298.301 19.7 300.611 19.7C303.041 19.7 305.156 20.24 306.956 21.32C308.756 22.37 310.151 23.84 311.141 25.73C312.161 27.59 312.671 29.735 312.671 32.165C312.671 34.565 312.161 36.695 311.141 38.555C310.121 40.385 308.696 41.825 306.866 42.875C305.066 43.925 302.966 44.45 300.566 44.45ZM300.611 39.86C301.721 39.86 302.651 39.575 303.401 39.005C304.151 38.405 304.706 37.52 305.066 36.35C305.456 35.18 305.651 33.755 305.651 32.075C305.651 30.305 305.456 28.85 305.066 27.71C304.706 26.54 304.151 25.655 303.401 25.055C302.651 24.455 301.721 24.155 300.611 24.155C299.531 24.155 298.601 24.455 297.821 25.055C297.071 25.655 296.501 26.54 296.111 27.71C295.721 28.85 295.526 30.305 295.526 32.075C295.526 33.785 295.721 35.225 296.111 36.395C296.501 37.535 297.071 38.405 297.821 39.005C298.601 39.575 299.531 39.86 300.611 39.86ZM358.467 20.15C358.767 20.15 358.977 20.255 359.097 20.465C359.217 20.675 359.217 20.915 359.097 21.185L351.762 43.28C351.672 43.55 351.552 43.745 351.402 43.865C351.282 43.955 351.087 44 350.817 44H347.127C346.527 44 346.137 43.715 345.957 43.145L342.087 30.77C341.967 30.47 341.847 30.32 341.727 30.32C341.607 30.32 341.517 30.47 341.457 30.77L337.497 43.28C337.437 43.55 337.332 43.745 337.182 43.865C337.062 43.955 336.852 44 336.552 44H332.727C332.157 44 331.782 43.715 331.602 43.145L324.357 21.23C324.267 20.93 324.282 20.675 324.402 20.465C324.552 20.255 324.777 20.15 325.077 20.15H330.342C330.552 20.15 330.747 20.225 330.927 20.375C331.137 20.495 331.272 20.675 331.332 20.915L335.337 33.65C335.397 33.92 335.487 34.055 335.607 34.055C335.757 34.055 335.877 33.905 335.967 33.605L339.837 20.87C339.897 20.66 340.017 20.495 340.197 20.375C340.377 20.225 340.587 20.15 340.827 20.15H344.607C344.817 20.15 345.012 20.225 345.192 20.375C345.402 20.495 345.522 20.675 345.552 20.915L349.467 33.65C349.557 33.92 349.662 34.055 349.782 34.055C349.902 34.055 350.022 33.905 350.142 33.605L354.012 20.87C354.132 20.66 354.267 20.495 354.417 20.375C354.597 20.225 354.807 20.15 355.047 20.15H358.467ZM367.292 34.1C367.292 35.21 367.547 36.2 368.057 37.07C368.597 37.91 369.302 38.57 370.172 39.05C371.072 39.5 372.077 39.725 373.187 39.725C374.267 39.725 375.257 39.5 376.157 39.05C377.087 38.57 378.017 37.79 378.947 36.71C379.067 36.59 379.172 36.53 379.262 36.53C379.352 36.5 379.517 36.545 379.757 36.665L382.997 38.015C383.417 38.195 383.462 38.495 383.132 38.915C382.172 40.295 381.167 41.39 380.117 42.2C379.067 43.01 377.897 43.595 376.607 43.955C375.347 44.285 373.922 44.45 372.332 44.45C369.992 44.45 367.907 43.94 366.077 42.92C364.247 41.9 362.792 40.49 361.712 38.69C360.662 36.86 360.137 34.775 360.137 32.435C360.137 29.855 360.677 27.62 361.757 25.73C362.867 23.81 364.337 22.325 366.167 21.275C367.997 20.225 370.007 19.7 372.197 19.7C374.507 19.7 376.532 20.21 378.272 21.23C380.012 22.22 381.377 23.645 382.367 25.505C383.387 27.365 383.897 29.63 383.897 32.3C383.897 32.63 383.867 32.885 383.807 33.065C383.747 33.245 383.522 33.35 383.132 33.38H367.832C367.652 33.38 367.517 33.44 367.427 33.56C367.337 33.68 367.292 33.86 367.292 34.1ZM376.337 29.6C376.667 29.6 376.877 29.57 376.967 29.51C377.057 29.42 377.102 29.24 377.102 28.97C377.102 28.22 376.922 27.455 376.562 26.675C376.232 25.895 375.722 25.25 375.032 24.74C374.372 24.2 373.517 23.93 372.467 23.93C371.477 23.93 370.592 24.17 369.812 24.65C369.032 25.13 368.432 25.805 368.012 26.675C367.592 27.515 367.382 28.475 367.382 29.555L376.337 29.6ZM409.682 41.705C408.752 42.545 407.702 43.22 406.532 43.73C405.392 44.21 404.072 44.45 402.572 44.45C400.292 44.45 398.492 43.835 397.172 42.605C395.882 41.375 395.237 39.8 395.237 37.88C395.237 36.2 395.762 34.73 396.812 33.47C397.862 32.21 399.362 31.235 401.312 30.545C403.262 29.825 405.587 29.435 408.287 29.375L409.862 29.24C410.042 29.24 410.207 29.195 410.357 29.105C410.507 29.015 410.582 28.85 410.582 28.61V27.665C410.582 26.525 410.252 25.64 409.592 25.01C408.932 24.35 407.987 24.02 406.757 24.02C405.857 24.02 404.987 24.23 404.147 24.65C403.337 25.04 402.647 25.73 402.077 26.72C401.987 26.93 401.882 27.065 401.762 27.125C401.642 27.185 401.417 27.185 401.087 27.125L396.587 26.09C396.407 26.03 396.272 25.94 396.182 25.82C396.122 25.67 396.182 25.37 396.362 24.92C397.112 23.15 398.402 21.845 400.232 21.005C402.092 20.135 404.372 19.7 407.072 19.7C409.562 19.7 411.542 20.015 413.012 20.645C414.482 21.275 415.547 22.16 416.207 23.3C416.867 24.41 417.197 25.715 417.197 27.215V43.01C417.197 43.37 417.137 43.625 417.017 43.775C416.897 43.925 416.672 44 416.342 44H411.707C411.377 44 411.137 43.88 410.987 43.64C410.867 43.4 410.792 43.1 410.762 42.74L410.672 41.75C410.612 41.21 410.282 41.195 409.682 41.705ZM410.582 33.38C410.582 32.87 410.357 32.615 409.907 32.615L408.647 32.705C407.867 32.735 407.087 32.855 406.307 33.065C405.527 33.245 404.822 33.515 404.192 33.875C403.562 34.205 403.037 34.64 402.617 35.18C402.227 35.69 402.032 36.29 402.032 36.98C402.032 37.88 402.347 38.6 402.977 39.14C403.607 39.65 404.477 39.905 405.587 39.905C406.337 39.905 406.997 39.785 407.567 39.545C408.167 39.305 408.677 39.02 409.097 38.69C409.547 38.3 409.907 37.91 410.177 37.52C410.447 37.13 410.582 36.725 410.582 36.305V33.38ZM423.158 44C422.828 44 422.588 43.925 422.438 43.775C422.288 43.625 422.213 43.4 422.213 43.1V21.005C422.213 20.435 422.453 20.15 422.933 20.15H428.198C428.678 20.15 428.918 20.405 428.918 20.915V23.57C428.918 23.75 428.978 23.87 429.098 23.93C429.248 23.96 429.398 23.885 429.548 23.705C430.148 22.895 430.823 22.19 431.573 21.59C432.353 20.99 433.148 20.525 433.958 20.195C434.768 19.865 435.533 19.7 436.253 19.7C437.333 19.7 437.873 19.955 437.873 20.465V25.685C437.873 26.165 437.648 26.36 437.198 26.27C436.658 26.12 436.103 26.03 435.533 26C434.963 25.94 434.468 25.91 434.048 25.91C433.508 25.91 432.938 26.015 432.338 26.225C431.768 26.435 431.243 26.735 430.763 27.125C430.283 27.515 429.893 27.935 429.593 28.385C429.293 28.835 429.143 29.315 429.143 29.825V42.965C429.143 43.655 428.753 44 427.973 44H423.158ZM446.701 34.1C446.701 35.21 446.956 36.2 447.466 37.07C448.006 37.91 448.711 38.57 449.581 39.05C450.481 39.5 451.486 39.725 452.596 39.725C453.676 39.725 454.666 39.5 455.566 39.05C456.496 38.57 457.426 37.79 458.356 36.71C458.476 36.59 458.581 36.53 458.671 36.53C458.761 36.5 458.926 36.545 459.166 36.665L462.406 38.015C462.826 38.195 462.871 38.495 462.541 38.915C461.581 40.295 460.576 41.39 459.526 42.2C458.476 43.01 457.306 43.595 456.016 43.955C454.756 44.285 453.331 44.45 451.741 44.45C449.401 44.45 447.316 43.94 445.486 42.92C443.656 41.9 442.201 40.49 441.121 38.69C440.071 36.86 439.546 34.775 439.546 32.435C439.546 29.855 440.086 27.62 441.166 25.73C442.276 23.81 443.746 22.325 445.576 21.275C447.406 20.225 449.416 19.7 451.606 19.7C453.916 19.7 455.941 20.21 457.681 21.23C459.421 22.22 460.786 23.645 461.776 25.505C462.796 27.365 463.306 29.63 463.306 32.3C463.306 32.63 463.276 32.885 463.216 33.065C463.156 33.245 462.931 33.35 462.541 33.38H447.241C447.061 33.38 446.926 33.44 446.836 33.56C446.746 33.68 446.701 33.86 446.701 34.1ZM455.746 29.6C456.076 29.6 456.286 29.57 456.376 29.51C456.466 29.42 456.511 29.24 456.511 28.97C456.511 28.22 456.331 27.455 455.971 26.675C455.641 25.895 455.131 25.25 454.441 24.74C453.781 24.2 452.926 23.93 451.876 23.93C450.886 23.93 450.001 24.17 449.221 24.65C448.441 25.13 447.841 25.805 447.421 26.675C447.001 27.515 446.791 28.475 446.791 29.555L455.746 29.6Z" fill="#003BA3"/>
<line x1="676" y1="31.5" x2="526" y2="31.5" stroke="#003BA3"/>
<line x1="676" y1="31.5" x2="526" y2="31.5" stroke="#003BA3"/>
<line x1="676" y1="31.5" x2="526" y2="31.5" stroke="#003BA3"/>
<line x1="676" y1="31.5" x2="526" y2="31.5" stroke="#003BA3"/>
<line x1="150" y1="31.5" y2="31.5" stroke="#003BA3"/>
</svg>
